%TF.GenerationSoftware,KiCad,Pcbnew,8.0.4*%
%TF.CreationDate,2024-11-19T23:33:53+08:00*%
%TF.ProjectId,uvk5_ttl,75766b35-5f74-4746-9c2e-6b696361645f,rev?*%
%TF.SameCoordinates,Original*%
%TF.FileFunction,Soldermask,Top*%
%TF.FilePolarity,Negative*%
%FSLAX46Y46*%
G04 Gerber Fmt 4.6, Leading zero omitted, Abs format (unit mm)*
G04 Created by KiCad (PCBNEW 8.0.4) date 2024-11-19 23:33:53*
%MOMM*%
%LPD*%
G01*
G04 APERTURE LIST*
G04 Aperture macros list*
%AMRoundRect*
0 Rectangle with rounded corners*
0 $1 Rounding radius*
0 $2 $3 $4 $5 $6 $7 $8 $9 X,Y pos of 4 corners*
0 Add a 4 corners polygon primitive as box body*
4,1,4,$2,$3,$4,$5,$6,$7,$8,$9,$2,$3,0*
0 Add four circle primitives for the rounded corners*
1,1,$1+$1,$2,$3*
1,1,$1+$1,$4,$5*
1,1,$1+$1,$6,$7*
1,1,$1+$1,$8,$9*
0 Add four rect primitives between the rounded corners*
20,1,$1+$1,$2,$3,$4,$5,0*
20,1,$1+$1,$4,$5,$6,$7,0*
20,1,$1+$1,$6,$7,$8,$9,0*
20,1,$1+$1,$8,$9,$2,$3,0*%
%AMRotRect*
0 Rectangle, with rotation*
0 The origin of the aperture is its center*
0 $1 length*
0 $2 width*
0 $3 Rotation angle, in degrees counterclockwise*
0 Add horizontal line*
21,1,$1,$2,0,0,$3*%
G04 Aperture macros list end*
%ADD10RoundRect,0.140000X0.219203X0.021213X0.021213X0.219203X-0.219203X-0.021213X-0.021213X-0.219203X0*%
%ADD11C,0.650000*%
%ADD12R,0.300000X1.150000*%
%ADD13O,1.000000X2.100000*%
%ADD14O,1.000000X1.600000*%
%ADD15RoundRect,0.140000X0.021213X-0.219203X0.219203X-0.021213X-0.021213X0.219203X-0.219203X0.021213X0*%
%ADD16RoundRect,0.125000X0.125000X-0.625000X0.125000X0.625000X-0.125000X0.625000X-0.125000X-0.625000X0*%
%ADD17RoundRect,0.125000X0.625000X-0.125000X0.625000X0.125000X-0.625000X0.125000X-0.625000X-0.125000X0*%
%ADD18RoundRect,0.225000X-0.017678X0.335876X-0.335876X0.017678X0.017678X-0.335876X0.335876X-0.017678X0*%
%ADD19RoundRect,0.062500X0.309359X-0.220971X-0.220971X0.309359X-0.309359X0.220971X0.220971X-0.309359X0*%
%ADD20RoundRect,0.062500X0.309359X0.220971X0.220971X0.309359X-0.309359X-0.220971X-0.220971X-0.309359X0*%
%ADD21RotRect,3.300000X3.300000X135.000000*%
%ADD22RoundRect,0.075000X-0.075000X-0.200000X0.075000X-0.200000X0.075000X0.200000X-0.075000X0.200000X0*%
%ADD23RoundRect,0.135000X0.185000X-0.135000X0.185000X0.135000X-0.185000X0.135000X-0.185000X-0.135000X0*%
%ADD24RoundRect,0.225000X-0.225000X-0.250000X0.225000X-0.250000X0.225000X0.250000X-0.225000X0.250000X0*%
G04 APERTURE END LIST*
D10*
%TO.C,C4*%
X107677553Y-96843207D03*
X106998731Y-96164385D03*
%TD*%
D11*
%TO.C,J1*%
X122090000Y-92210000D03*
X116310000Y-92210000D03*
D12*
X122550000Y-93275000D03*
X121750000Y-93275000D03*
X120450000Y-93274999D03*
X119450000Y-93275000D03*
X118950000Y-93275000D03*
X117950000Y-93274999D03*
X116650000Y-93275000D03*
X115850000Y-93275000D03*
X116150000Y-93275000D03*
X116950000Y-93275000D03*
X117450000Y-93275000D03*
X118450000Y-93275000D03*
X119950000Y-93275000D03*
X120950000Y-93275000D03*
X121450000Y-93275000D03*
X122250000Y-93275000D03*
D13*
X123520000Y-92710000D03*
D14*
X123520000Y-88530000D03*
D13*
X114880000Y-92710000D03*
D14*
X114880000Y-88530000D03*
%TD*%
D15*
%TO.C,C1*%
X104285117Y-97536172D03*
X104963939Y-96857350D03*
%TD*%
D16*
%TO.C,REF\u002A\u002A*%
X85195000Y-104951086D03*
X85995000Y-104951086D03*
X86795000Y-104951086D03*
X87595000Y-104951086D03*
X88395000Y-104951086D03*
X89195000Y-104951086D03*
X89995000Y-104951086D03*
X90795000Y-104951086D03*
D17*
X92170000Y-103576086D03*
X92170000Y-102776086D03*
X92170000Y-101976086D03*
X92170000Y-101176086D03*
X92170000Y-100376086D03*
X92170000Y-99576086D03*
X92170000Y-98776086D03*
X92170000Y-97976086D03*
D16*
X90795000Y-96601086D03*
X89995000Y-96601086D03*
X89195000Y-96601086D03*
X88395000Y-96601086D03*
X87595000Y-96601086D03*
X86795000Y-96601086D03*
X85995000Y-96601086D03*
X85195000Y-96601086D03*
D17*
X83820000Y-97976086D03*
X83820000Y-98776086D03*
X83820000Y-99576086D03*
X83820000Y-100376086D03*
X83820000Y-101176086D03*
X83820000Y-101976086D03*
X83820000Y-102776086D03*
X83820000Y-103576086D03*
%TD*%
D18*
%TO.C,C2*%
X103288008Y-98161992D03*
X102191992Y-99258008D03*
%TD*%
D19*
%TO.C,U1*%
X106813953Y-103628827D03*
X107167506Y-103275273D03*
X107521060Y-102921720D03*
X107874613Y-102568166D03*
X108228166Y-102214613D03*
X108581720Y-101861060D03*
X108935273Y-101507506D03*
X109288827Y-101153953D03*
D20*
X109288827Y-100181681D03*
X108935273Y-99828128D03*
X108581720Y-99474574D03*
X108228166Y-99121021D03*
X107874613Y-98767468D03*
X107521060Y-98413914D03*
X107167506Y-98060361D03*
X106813953Y-97706807D03*
D19*
X105841681Y-97706807D03*
X105488128Y-98060361D03*
X105134574Y-98413914D03*
X104781021Y-98767468D03*
X104427468Y-99121021D03*
X104073914Y-99474574D03*
X103720361Y-99828128D03*
X103366807Y-100181681D03*
D20*
X103366807Y-101153953D03*
X103720361Y-101507506D03*
X104073914Y-101861060D03*
X104427468Y-102214613D03*
X104781021Y-102568166D03*
X105134574Y-102921720D03*
X105488128Y-103275273D03*
X105841681Y-103628827D03*
D21*
X106327817Y-100667817D03*
%TD*%
D22*
%TO.C,U2*%
X117450000Y-95909999D03*
X117950000Y-95910000D03*
X118450000Y-95909999D03*
X118950000Y-95910000D03*
X119450000Y-95909999D03*
X119450000Y-95139999D03*
X118950000Y-95139998D03*
X118450000Y-95139999D03*
X117950000Y-95139998D03*
X117450000Y-95139999D03*
%TD*%
D23*
%TO.C,R2*%
X113332600Y-91130999D03*
X113332600Y-90111001D03*
%TD*%
%TO.C,R1*%
X125067400Y-91130999D03*
X125067400Y-90111001D03*
%TD*%
D24*
%TO.C,C3*%
X121600000Y-95180000D03*
X123150000Y-95180000D03*
%TD*%
M02*
