M48
; DRILL file {KiCad 8.0.4} date 2024-11-19T23:33:50+0800
; FORMAT={-:-/ absolute / metric / decimal}
; #@! TF.CreationDate,2024-11-19T23:33:50+08:00
; #@! TF.GenerationSoftware,Kicad,Pcbnew,8.0.4
; #@! TF.FileFunction,Plated,1,2,PTH
FMAT,2
METRIC
; #@! TA.AperFunction,Plated,PTH,ViaDrill
T1C0.200
; #@! TA.AperFunction,Plated,PTH,ComponentDrill
T2C0.600
%
G90
G05
T1
X92.19Y-106.33
X97.62Y-104.58
X98.49Y-101.92
X98.98Y-105.99
X103.89Y-104.56
X103.936Y-97.886
X106.306Y-104.137
X108.36Y-95.61
X109.3Y-105.47
X110.19Y-101.86
X116.45Y-95.57
X116.8Y-94.037
X118.45Y-94.17
X118.95Y-94.48
X119.19Y-89.25
X119.45Y-94.17
X119.95Y-94.48
X121.42Y-96.92
X121.6Y-94.037
T2
G00X114.88Y-88.83
M15
G01X114.88Y-88.23
M16
G05
G00X114.88Y-93.26
M15
G01X114.88Y-92.16
M16
G05
G00X123.52Y-88.83
M15
G01X123.52Y-88.23
M16
G05
G00X123.52Y-93.26
M15
G01X123.52Y-92.16
M16
G05
M30
