%TF.GenerationSoftware,KiCad,Pcbnew,8.0.4*%
%TF.CreationDate,2024-11-19T23:33:53+08:00*%
%TF.ProjectId,uvk5_ttl,75766b35-5f74-4746-9c2e-6b696361645f,rev?*%
%TF.SameCoordinates,Original*%
%TF.FileFunction,Copper,L1,Top*%
%TF.FilePolarity,Positive*%
%FSLAX46Y46*%
G04 Gerber Fmt 4.6, Leading zero omitted, Abs format (unit mm)*
G04 Created by KiCad (PCBNEW 8.0.4) date 2024-11-19 23:33:53*
%MOMM*%
%LPD*%
G01*
G04 APERTURE LIST*
G04 Aperture macros list*
%AMRoundRect*
0 Rectangle with rounded corners*
0 $1 Rounding radius*
0 $2 $3 $4 $5 $6 $7 $8 $9 X,Y pos of 4 corners*
0 Add a 4 corners polygon primitive as box body*
4,1,4,$2,$3,$4,$5,$6,$7,$8,$9,$2,$3,0*
0 Add four circle primitives for the rounded corners*
1,1,$1+$1,$2,$3*
1,1,$1+$1,$4,$5*
1,1,$1+$1,$6,$7*
1,1,$1+$1,$8,$9*
0 Add four rect primitives between the rounded corners*
20,1,$1+$1,$2,$3,$4,$5,0*
20,1,$1+$1,$4,$5,$6,$7,0*
20,1,$1+$1,$6,$7,$8,$9,0*
20,1,$1+$1,$8,$9,$2,$3,0*%
%AMRotRect*
0 Rectangle, with rotation*
0 The origin of the aperture is its center*
0 $1 length*
0 $2 width*
0 $3 Rotation angle, in degrees counterclockwise*
0 Add horizontal line*
21,1,$1,$2,0,0,$3*%
G04 Aperture macros list end*
%TA.AperFunction,SMDPad,CuDef*%
%ADD10RoundRect,0.140000X0.219203X0.021213X0.021213X0.219203X-0.219203X-0.021213X-0.021213X-0.219203X0*%
%TD*%
%TA.AperFunction,SMDPad,CuDef*%
%ADD11R,0.300000X1.150000*%
%TD*%
%TA.AperFunction,ComponentPad*%
%ADD12O,1.000000X2.100000*%
%TD*%
%TA.AperFunction,ComponentPad*%
%ADD13O,1.000000X1.600000*%
%TD*%
%TA.AperFunction,SMDPad,CuDef*%
%ADD14RoundRect,0.140000X0.021213X-0.219203X0.219203X-0.021213X-0.021213X0.219203X-0.219203X0.021213X0*%
%TD*%
%TA.AperFunction,SMDPad,CuDef*%
%ADD15RoundRect,0.125000X0.125000X-0.625000X0.125000X0.625000X-0.125000X0.625000X-0.125000X-0.625000X0*%
%TD*%
%TA.AperFunction,SMDPad,CuDef*%
%ADD16RoundRect,0.125000X0.625000X-0.125000X0.625000X0.125000X-0.625000X0.125000X-0.625000X-0.125000X0*%
%TD*%
%TA.AperFunction,SMDPad,CuDef*%
%ADD17RoundRect,0.225000X-0.017678X0.335876X-0.335876X0.017678X0.017678X-0.335876X0.335876X-0.017678X0*%
%TD*%
%TA.AperFunction,SMDPad,CuDef*%
%ADD18RoundRect,0.062500X0.309359X-0.220971X-0.220971X0.309359X-0.309359X0.220971X0.220971X-0.309359X0*%
%TD*%
%TA.AperFunction,SMDPad,CuDef*%
%ADD19RoundRect,0.062500X0.309359X0.220971X0.220971X0.309359X-0.309359X-0.220971X-0.220971X-0.309359X0*%
%TD*%
%TA.AperFunction,HeatsinkPad*%
%ADD20RotRect,3.300000X3.300000X135.000000*%
%TD*%
%TA.AperFunction,SMDPad,CuDef*%
%ADD21RoundRect,0.075000X-0.075000X-0.200000X0.075000X-0.200000X0.075000X0.200000X-0.075000X0.200000X0*%
%TD*%
%TA.AperFunction,SMDPad,CuDef*%
%ADD22RoundRect,0.135000X0.185000X-0.135000X0.185000X0.135000X-0.185000X0.135000X-0.185000X-0.135000X0*%
%TD*%
%TA.AperFunction,SMDPad,CuDef*%
%ADD23RoundRect,0.225000X-0.225000X-0.250000X0.225000X-0.250000X0.225000X0.250000X-0.225000X0.250000X0*%
%TD*%
%TA.AperFunction,ViaPad*%
%ADD24C,0.500000*%
%TD*%
%TA.AperFunction,ViaPad*%
%ADD25C,0.450000*%
%TD*%
%TA.AperFunction,Conductor*%
%ADD26C,0.508000*%
%TD*%
%TA.AperFunction,Conductor*%
%ADD27C,0.254000*%
%TD*%
%TA.AperFunction,Conductor*%
%ADD28C,0.381000*%
%TD*%
%TA.AperFunction,Conductor*%
%ADD29C,0.184658*%
%TD*%
G04 APERTURE END LIST*
D10*
%TO.P,C4,1*%
%TO.N,Net-(U1-3V3OUT)*%
X107677553Y-96843207D03*
%TO.P,C4,2*%
%TO.N,GND*%
X106998731Y-96164385D03*
%TD*%
D11*
%TO.P,J1,A1,GND*%
%TO.N,GND*%
X122550000Y-93275000D03*
%TO.P,J1,A4,VBUS*%
%TO.N,+5V*%
X121750000Y-93275000D03*
%TO.P,J1,A5,CC1*%
%TO.N,Net-(J1-CC1)*%
X120450000Y-93274999D03*
%TO.P,J1,A6,D+*%
%TO.N,/D+*%
X119450000Y-93275000D03*
%TO.P,J1,A7,D-*%
%TO.N,/D-*%
X118950000Y-93275000D03*
%TO.P,J1,A8,SBU1*%
%TO.N,unconnected-(J1-SBU1-PadA8)*%
X117950000Y-93274999D03*
%TO.P,J1,A9,VBUS*%
%TO.N,+5V*%
X116650000Y-93275000D03*
%TO.P,J1,A12,GND*%
%TO.N,GND*%
X115850000Y-93275000D03*
%TO.P,J1,B1,GND*%
X116150000Y-93275000D03*
%TO.P,J1,B4,VBUS*%
%TO.N,+5V*%
X116950000Y-93275000D03*
%TO.P,J1,B5,CC2*%
%TO.N,Net-(J1-CC2)*%
X117450000Y-93275000D03*
%TO.P,J1,B6,D+*%
%TO.N,/D+*%
X118450000Y-93275000D03*
%TO.P,J1,B7,D-*%
%TO.N,/D-*%
X119950000Y-93275000D03*
%TO.P,J1,B8,SBU2*%
%TO.N,unconnected-(J1-SBU2-PadB8)*%
X120950000Y-93275000D03*
%TO.P,J1,B9,VBUS*%
%TO.N,+5V*%
X121450000Y-93275000D03*
%TO.P,J1,B12,GND*%
%TO.N,GND*%
X122250000Y-93275000D03*
D12*
%TO.P,J1,S1,SHIELD*%
X123520000Y-92710000D03*
D13*
X123520000Y-88530000D03*
D12*
X114880000Y-92710000D03*
D13*
X114880000Y-88530000D03*
%TD*%
D14*
%TO.P,C1,1*%
%TO.N,+5V*%
X104285117Y-97536172D03*
%TO.P,C1,2*%
%TO.N,GND*%
X104963939Y-96857350D03*
%TD*%
D15*
%TO.P,REF\u002A\u002A,1*%
%TO.N,N/C*%
X85195000Y-104951086D03*
%TO.P,REF\u002A\u002A,2*%
X85995000Y-104951086D03*
%TO.P,REF\u002A\u002A,3*%
X86795000Y-104951086D03*
%TO.P,REF\u002A\u002A,4*%
X87595000Y-104951086D03*
%TO.P,REF\u002A\u002A,5*%
X88395000Y-104951086D03*
%TO.P,REF\u002A\u002A,6*%
X89195000Y-104951086D03*
%TO.P,REF\u002A\u002A,7*%
X89995000Y-104951086D03*
%TO.P,REF\u002A\u002A,8*%
%TO.N,/RXD*%
X90795000Y-104951086D03*
D16*
%TO.P,REF\u002A\u002A,9*%
%TO.N,/TXD*%
X92170000Y-103576086D03*
%TO.P,REF\u002A\u002A,10*%
%TO.N,N/C*%
X92170000Y-102776086D03*
%TO.P,REF\u002A\u002A,11*%
X92170000Y-101976086D03*
%TO.P,REF\u002A\u002A,12*%
X92170000Y-101176086D03*
%TO.P,REF\u002A\u002A,13*%
X92170000Y-100376086D03*
%TO.P,REF\u002A\u002A,14*%
X92170000Y-99576086D03*
%TO.P,REF\u002A\u002A,15*%
X92170000Y-98776086D03*
%TO.P,REF\u002A\u002A,16*%
X92170000Y-97976086D03*
D15*
%TO.P,REF\u002A\u002A,17*%
X90795000Y-96601086D03*
%TO.P,REF\u002A\u002A,18*%
X89995000Y-96601086D03*
%TO.P,REF\u002A\u002A,19*%
X89195000Y-96601086D03*
%TO.P,REF\u002A\u002A,20*%
X88395000Y-96601086D03*
%TO.P,REF\u002A\u002A,21*%
X87595000Y-96601086D03*
%TO.P,REF\u002A\u002A,22*%
X86795000Y-96601086D03*
%TO.P,REF\u002A\u002A,23*%
X85995000Y-96601086D03*
%TO.P,REF\u002A\u002A,24*%
X85195000Y-96601086D03*
D16*
%TO.P,REF\u002A\u002A,25*%
X83820000Y-97976086D03*
%TO.P,REF\u002A\u002A,26*%
X83820000Y-98776086D03*
%TO.P,REF\u002A\u002A,27*%
X83820000Y-99576086D03*
%TO.P,REF\u002A\u002A,28*%
X83820000Y-100376086D03*
%TO.P,REF\u002A\u002A,29*%
X83820000Y-101176086D03*
%TO.P,REF\u002A\u002A,30*%
X83820000Y-101976086D03*
%TO.P,REF\u002A\u002A,31*%
X83820000Y-102776086D03*
%TO.P,REF\u002A\u002A,32*%
X83820000Y-103576086D03*
%TD*%
D17*
%TO.P,C2,1*%
%TO.N,+5V*%
X103288008Y-98161992D03*
%TO.P,C2,2*%
%TO.N,GND*%
X102191992Y-99258008D03*
%TD*%
D18*
%TO.P,U1,1,VCCIO*%
%TO.N,+5V*%
X106813953Y-103628827D03*
%TO.P,U1,2,RXD*%
%TO.N,/RXD*%
X107167506Y-103275273D03*
%TO.P,U1,3,RI#*%
%TO.N,unconnected-(U1-RI#-Pad3)*%
X107521060Y-102921720D03*
%TO.P,U1,4,GND*%
%TO.N,GND*%
X107874613Y-102568166D03*
%TO.P,U1,5,NC*%
%TO.N,unconnected-(U1-NC-Pad5)*%
X108228166Y-102214613D03*
%TO.P,U1,6,DSR#*%
%TO.N,unconnected-(U1-DSR#-Pad6)*%
X108581720Y-101861060D03*
%TO.P,U1,7,DCD#*%
%TO.N,unconnected-(U1-DCD#-Pad7)*%
X108935273Y-101507506D03*
%TO.P,U1,8,CTS#*%
%TO.N,unconnected-(U1-CTS#-Pad8)*%
X109288827Y-101153953D03*
D19*
%TO.P,U1,9,CBUS4*%
%TO.N,unconnected-(U1-CBUS4-Pad9)*%
X109288827Y-100181681D03*
%TO.P,U1,10,CBUS2*%
%TO.N,unconnected-(U1-CBUS2-Pad10)*%
X108935273Y-99828128D03*
%TO.P,U1,11,CBUS3*%
%TO.N,unconnected-(U1-CBUS3-Pad11)*%
X108581720Y-99474574D03*
%TO.P,U1,12,NC*%
%TO.N,unconnected-(U1-NC-Pad12)*%
X108228166Y-99121021D03*
%TO.P,U1,13,NC*%
%TO.N,unconnected-(U1-NC-Pad13)*%
X107874613Y-98767468D03*
%TO.P,U1,14,USBDP*%
%TO.N,/D+*%
X107521060Y-98413914D03*
%TO.P,U1,15,USBDM*%
%TO.N,/D-*%
X107167506Y-98060361D03*
%TO.P,U1,16,3V3OUT*%
%TO.N,Net-(U1-3V3OUT)*%
X106813953Y-97706807D03*
D18*
%TO.P,U1,17,GND*%
%TO.N,GND*%
X105841681Y-97706807D03*
%TO.P,U1,18,RESET#*%
%TO.N,unconnected-(U1-RESET#-Pad18)*%
X105488128Y-98060361D03*
%TO.P,U1,19,VCC*%
%TO.N,+5V*%
X105134574Y-98413914D03*
%TO.P,U1,20,GND*%
%TO.N,GND*%
X104781021Y-98767468D03*
%TO.P,U1,21,CBUS1*%
%TO.N,unconnected-(U1-CBUS1-Pad21)*%
X104427468Y-99121021D03*
%TO.P,U1,22,CBUS0*%
%TO.N,unconnected-(U1-CBUS0-Pad22)*%
X104073914Y-99474574D03*
%TO.P,U1,23,NC*%
%TO.N,unconnected-(U1-NC-Pad23)*%
X103720361Y-99828128D03*
%TO.P,U1,24,AGND*%
%TO.N,GND*%
X103366807Y-100181681D03*
D19*
%TO.P,U1,25,NC*%
%TO.N,unconnected-(U1-NC-Pad25)*%
X103366807Y-101153953D03*
%TO.P,U1,26,TEST*%
%TO.N,GND*%
X103720361Y-101507506D03*
%TO.P,U1,27,OSCI*%
%TO.N,unconnected-(U1-OSCI-Pad27)*%
X104073914Y-101861060D03*
%TO.P,U1,28,OSCO*%
%TO.N,unconnected-(U1-OSCO-Pad28)*%
X104427468Y-102214613D03*
%TO.P,U1,29,NC*%
%TO.N,unconnected-(U1-NC-Pad29)*%
X104781021Y-102568166D03*
%TO.P,U1,30,TXD*%
%TO.N,/TXD*%
X105134574Y-102921720D03*
%TO.P,U1,31,DTR#*%
%TO.N,unconnected-(U1-DTR#-Pad31)*%
X105488128Y-103275273D03*
%TO.P,U1,32,RTS#*%
%TO.N,unconnected-(U1-RTS#-Pad32)*%
X105841681Y-103628827D03*
D20*
%TO.P,U1,33,EP*%
%TO.N,GND*%
X106327817Y-100667817D03*
%TD*%
D21*
%TO.P,U2,1,IO1*%
%TO.N,unconnected-(U2-IO1-Pad1)*%
X117450000Y-95909999D03*
%TO.P,U2,2,IO2*%
%TO.N,unconnected-(U2-IO2-Pad2)*%
X117950000Y-95910000D03*
%TO.P,U2,3,G*%
%TO.N,GND*%
X118450000Y-95909999D03*
%TO.P,U2,4,IO3*%
%TO.N,/D-*%
X118950000Y-95910000D03*
%TO.P,U2,5,IO4*%
%TO.N,/D+*%
X119450000Y-95909999D03*
%TO.P,U2,6,NC*%
X119450000Y-95139999D03*
%TO.P,U2,7,NC*%
%TO.N,/D-*%
X118950000Y-95139998D03*
%TO.P,U2,8,G*%
%TO.N,GND*%
X118450000Y-95139999D03*
%TO.P,U2,9,NC*%
%TO.N,unconnected-(U2-NC-Pad9)*%
X117950000Y-95139998D03*
%TO.P,U2,10,NC*%
%TO.N,unconnected-(U2-NC-Pad10)*%
X117450000Y-95139999D03*
%TD*%
D22*
%TO.P,R2,1*%
%TO.N,Net-(J1-CC2)*%
X113332600Y-91130999D03*
%TO.P,R2,2*%
%TO.N,GND*%
X113332600Y-90111001D03*
%TD*%
%TO.P,R1,1*%
%TO.N,Net-(J1-CC1)*%
X125067400Y-91130999D03*
%TO.P,R1,2*%
%TO.N,GND*%
X125067400Y-90111001D03*
%TD*%
D23*
%TO.P,C3,1*%
%TO.N,+5V*%
X121600000Y-95180000D03*
%TO.P,C3,2*%
%TO.N,GND*%
X123150000Y-95180000D03*
%TD*%
D24*
%TO.N,+5V*%
X103935645Y-97885645D03*
X106305953Y-104136827D03*
X121600000Y-94037000D03*
X116800000Y-94037000D03*
%TO.N,GND*%
X116450000Y-95570000D03*
X121420000Y-96920000D03*
X119190000Y-89250000D03*
X108360000Y-95610000D03*
X103890000Y-104560000D03*
X97620000Y-104580000D03*
X92190000Y-106330000D03*
X110190000Y-101860000D03*
X109300000Y-105470000D03*
X98980000Y-105990000D03*
X98490000Y-101920000D03*
D25*
%TO.N,/D-*%
X118949619Y-94480000D03*
X119950000Y-94480000D03*
%TO.N,/D+*%
X118450000Y-94170000D03*
X119450000Y-94170000D03*
%TD*%
D26*
%TO.N,+5V*%
X105440000Y-94540000D02*
X116297000Y-94540000D01*
D27*
X103935645Y-97885645D02*
X103935645Y-97885644D01*
X103935645Y-97885644D02*
X104285117Y-97536172D01*
D26*
X116297000Y-94540000D02*
X116800000Y-94037000D01*
X104285117Y-97536172D02*
X103770000Y-97021055D01*
X103770000Y-96210000D02*
X105440000Y-94540000D01*
D27*
X104285117Y-97536172D02*
X104285117Y-97564457D01*
X104285117Y-97564457D02*
X105134574Y-98413914D01*
X103659297Y-98161992D02*
X103935644Y-97885645D01*
D28*
X121600000Y-95180000D02*
X121600000Y-93275000D01*
D27*
X103935644Y-97885645D02*
X103935645Y-97885645D01*
D28*
X116800000Y-94037000D02*
X116800000Y-93275000D01*
D26*
X103770000Y-97021055D02*
X103770000Y-96210000D01*
D27*
X106305953Y-104136827D02*
X106813953Y-103628827D01*
X103288008Y-98161992D02*
X103659297Y-98161992D01*
%TO.N,GND*%
X104963939Y-96857350D02*
X104992224Y-96857350D01*
X104992224Y-96857350D02*
X105841681Y-97706807D01*
%TO.N,Net-(U1-3V3OUT)*%
X106813953Y-97706807D02*
X107677553Y-96843207D01*
%TO.N,Net-(J1-CC1)*%
X125067400Y-91130999D02*
X121892000Y-91130999D01*
X121892000Y-91130999D02*
X120450000Y-92572999D01*
X120450000Y-92572999D02*
X120450000Y-93274999D01*
D29*
%TO.N,/D-*%
X107167506Y-98060091D02*
X107167506Y-98060361D01*
X118416366Y-97009810D02*
X108217787Y-97009810D01*
X119950000Y-93275000D02*
X119950000Y-94480000D01*
X118950000Y-95910000D02*
X118949810Y-95910190D01*
X118949810Y-95910190D02*
X118949810Y-96476366D01*
X118949810Y-96476366D02*
X118416366Y-97009810D01*
X118949619Y-94480000D02*
X118949619Y-95909619D01*
X118949619Y-95909619D02*
X118950000Y-95910000D01*
X108217787Y-97009810D02*
X107167506Y-98060091D01*
X118949619Y-93275381D02*
X118950000Y-93275000D01*
X118949619Y-94480000D02*
X118949619Y-93275381D01*
%TO.N,/D+*%
X119450191Y-95910190D02*
X119450191Y-96683633D01*
X119450000Y-93275000D02*
X119450000Y-95909999D01*
X108425053Y-97510190D02*
X107521329Y-98413914D01*
X118450000Y-93275000D02*
X118450000Y-94170000D01*
X118623634Y-97510190D02*
X108425053Y-97510190D01*
X107521329Y-98413914D02*
X107521060Y-98413914D01*
X119450000Y-95909999D02*
X119450191Y-95910190D01*
X119450191Y-96683633D02*
X118623634Y-97510190D01*
D27*
%TO.N,Net-(J1-CC2)*%
X113332600Y-91130999D02*
X116133974Y-91130999D01*
X117450000Y-92447025D02*
X117450000Y-93275000D01*
X116133974Y-91130999D02*
X117450000Y-92447025D01*
%TO.N,/RXD*%
X107720000Y-104700000D02*
X106983000Y-105437000D01*
X106983000Y-105437000D02*
X90670000Y-105437000D01*
X107167506Y-103275273D02*
X107720000Y-103827767D01*
X107720000Y-103827767D02*
X107720000Y-104700000D01*
%TO.N,/TXD*%
X104480208Y-103576086D02*
X92537000Y-103576086D01*
X105134574Y-102921720D02*
X104480208Y-103576086D01*
%TD*%
%TA.AperFunction,Conductor*%
%TO.N,GND*%
G36*
X124657328Y-91403805D02*
G01*
X124665101Y-91413276D01*
X124693147Y-91455250D01*
X124693150Y-91455253D01*
X124779975Y-91513268D01*
X124779977Y-91513269D01*
X124856544Y-91528499D01*
X125278255Y-91528499D01*
X125278256Y-91528499D01*
X125324807Y-91519239D01*
X125371723Y-91528571D01*
X125398299Y-91568344D01*
X125399500Y-91580538D01*
X125399500Y-95216798D01*
X125381194Y-95260992D01*
X121500992Y-99141194D01*
X121456798Y-99159500D01*
X114885892Y-99159500D01*
X114754108Y-99159500D01*
X114754107Y-99159500D01*
X114754101Y-99159501D01*
X114626817Y-99193606D01*
X114626814Y-99193607D01*
X114512684Y-99259501D01*
X114512680Y-99259504D01*
X112372686Y-101399500D01*
X112279504Y-101492680D01*
X112279501Y-101492684D01*
X112213607Y-101606814D01*
X112213606Y-101606817D01*
X112179501Y-101734101D01*
X112179500Y-101734109D01*
X112179500Y-103706798D01*
X112161194Y-103750992D01*
X109530992Y-106381194D01*
X109486798Y-106399500D01*
X97445893Y-106399500D01*
X97314108Y-106399500D01*
X97314107Y-106399500D01*
X97314101Y-106399501D01*
X97186817Y-106433606D01*
X97186814Y-106433607D01*
X97072684Y-106499501D01*
X97072680Y-106499504D01*
X96760992Y-106811194D01*
X96716798Y-106829500D01*
X84643202Y-106829500D01*
X84599008Y-106811194D01*
X84528806Y-106740992D01*
X84510500Y-106696798D01*
X84510500Y-106357692D01*
X85220307Y-106357692D01*
X85440115Y-106577500D01*
X85542145Y-106577500D01*
X85761952Y-106357692D01*
X86118332Y-106357692D01*
X86338140Y-106577500D01*
X86440170Y-106577500D01*
X86659977Y-106357692D01*
X87016358Y-106357692D01*
X87236166Y-106577500D01*
X87338196Y-106577500D01*
X87558003Y-106357692D01*
X87914383Y-106357692D01*
X88134191Y-106577500D01*
X88236221Y-106577500D01*
X88456028Y-106357692D01*
X88812409Y-106357692D01*
X89032217Y-106577500D01*
X89134247Y-106577500D01*
X89354054Y-106357692D01*
X89710435Y-106357692D01*
X89930243Y-106577500D01*
X90032273Y-106577500D01*
X90252080Y-106357692D01*
X90608460Y-106357692D01*
X90828268Y-106577500D01*
X90930298Y-106577500D01*
X91150105Y-106357692D01*
X91506486Y-106357692D01*
X91726294Y-106577500D01*
X91828322Y-106577500D01*
X91841793Y-106564028D01*
X91817273Y-106515905D01*
X92562725Y-106515905D01*
X92624320Y-106577500D01*
X92726350Y-106577500D01*
X92946157Y-106357692D01*
X93302537Y-106357692D01*
X93522345Y-106577500D01*
X93624375Y-106577500D01*
X93844182Y-106357692D01*
X94200563Y-106357692D01*
X94420371Y-106577500D01*
X94522401Y-106577500D01*
X94742208Y-106357692D01*
X95098588Y-106357692D01*
X95318396Y-106577500D01*
X95420426Y-106577500D01*
X95640233Y-106357692D01*
X95996614Y-106357692D01*
X96216422Y-106577500D01*
X96318452Y-106577500D01*
X96538259Y-106357692D01*
X96428518Y-106247951D01*
X97004381Y-106247951D01*
X97067963Y-106211242D01*
X97071572Y-106209313D01*
X97079031Y-106205635D01*
X97082755Y-106203948D01*
X97098006Y-106197631D01*
X97101830Y-106196192D01*
X97109703Y-106193519D01*
X97113620Y-106192331D01*
X97237681Y-106159088D01*
X97165462Y-106086869D01*
X97004381Y-106247951D01*
X96428518Y-106247951D01*
X96267437Y-106086870D01*
X95996614Y-106357692D01*
X95640233Y-106357692D01*
X95369411Y-106086869D01*
X95098588Y-106357692D01*
X94742208Y-106357692D01*
X94471386Y-106086870D01*
X94200563Y-106357692D01*
X93844182Y-106357692D01*
X93573360Y-106086870D01*
X93302537Y-106357692D01*
X92946157Y-106357692D01*
X92675334Y-106086869D01*
X92581420Y-106180784D01*
X92586559Y-106190870D01*
X92592602Y-106209467D01*
X92610144Y-106320223D01*
X92610144Y-106339777D01*
X92592602Y-106450533D01*
X92586559Y-106469131D01*
X92562725Y-106515905D01*
X91817273Y-106515905D01*
X91793441Y-106469131D01*
X91787398Y-106450533D01*
X91769856Y-106339777D01*
X91769856Y-106320223D01*
X91787398Y-106209467D01*
X91793441Y-106190870D01*
X91823100Y-106132661D01*
X91777309Y-106086870D01*
X91506486Y-106357692D01*
X91150105Y-106357692D01*
X91000499Y-106208086D01*
X90758067Y-106208086D01*
X90608460Y-106357692D01*
X90252080Y-106357692D01*
X90102474Y-106208086D01*
X89860042Y-106208086D01*
X89710435Y-106357692D01*
X89354054Y-106357692D01*
X89204448Y-106208086D01*
X88962016Y-106208086D01*
X88812409Y-106357692D01*
X88456028Y-106357692D01*
X88306422Y-106208086D01*
X88063990Y-106208086D01*
X87914383Y-106357692D01*
X87558003Y-106357692D01*
X87408397Y-106208086D01*
X87165965Y-106208086D01*
X87016358Y-106357692D01*
X86659977Y-106357692D01*
X86510371Y-106208086D01*
X86267939Y-106208086D01*
X86118332Y-106357692D01*
X85761952Y-106357692D01*
X85612346Y-106208086D01*
X85369914Y-106208086D01*
X85220307Y-106357692D01*
X84510500Y-106357692D01*
X84510500Y-106166836D01*
X91315630Y-106166836D01*
X91328296Y-106179502D01*
X91564298Y-105943500D01*
X91990320Y-105943500D01*
X92004094Y-105957274D01*
X92031128Y-105943500D01*
X92348873Y-105943500D01*
X92424029Y-105981794D01*
X92462324Y-105943500D01*
X92888345Y-105943500D01*
X93124347Y-106179502D01*
X93360350Y-105943500D01*
X93786371Y-105943500D01*
X94022373Y-106179502D01*
X94258375Y-105943500D01*
X94684396Y-105943500D01*
X94920398Y-106179502D01*
X95156401Y-105943500D01*
X95582422Y-105943500D01*
X95818424Y-106179502D01*
X96054426Y-105943500D01*
X96480448Y-105943500D01*
X96716450Y-106179502D01*
X96952452Y-105943500D01*
X97378473Y-105943500D01*
X97582473Y-106147500D01*
X97646477Y-106147500D01*
X97850478Y-105943500D01*
X98276499Y-105943500D01*
X98480499Y-106147500D01*
X98544503Y-106147500D01*
X98552007Y-106139996D01*
X99371021Y-106139996D01*
X99378526Y-106147500D01*
X99442529Y-106147500D01*
X99646529Y-105943500D01*
X100072550Y-105943500D01*
X100276550Y-106147500D01*
X100340554Y-106147500D01*
X100544554Y-105943500D01*
X100970576Y-105943500D01*
X101174576Y-106147500D01*
X101238580Y-106147500D01*
X101442580Y-105943500D01*
X101868601Y-105943500D01*
X102072601Y-106147500D01*
X102136605Y-106147500D01*
X102340606Y-105943500D01*
X102766627Y-105943500D01*
X102970627Y-106147500D01*
X103034631Y-106147500D01*
X103238631Y-105943500D01*
X103664652Y-105943500D01*
X103868653Y-106147500D01*
X103932657Y-106147500D01*
X104136657Y-105943500D01*
X104562678Y-105943500D01*
X104766678Y-106147500D01*
X104830682Y-106147500D01*
X105034683Y-105943500D01*
X105460704Y-105943500D01*
X105664704Y-106147500D01*
X105728708Y-106147500D01*
X105932708Y-105943500D01*
X106358729Y-105943500D01*
X106562730Y-106147500D01*
X106626734Y-106147500D01*
X106830734Y-105943500D01*
X106358729Y-105943500D01*
X105932708Y-105943500D01*
X105460704Y-105943500D01*
X105034683Y-105943500D01*
X104562678Y-105943500D01*
X104136657Y-105943500D01*
X103664652Y-105943500D01*
X103238631Y-105943500D01*
X102766627Y-105943500D01*
X102340606Y-105943500D01*
X101868601Y-105943500D01*
X101442580Y-105943500D01*
X100970576Y-105943500D01*
X100544554Y-105943500D01*
X100072550Y-105943500D01*
X99646529Y-105943500D01*
X99394328Y-105943500D01*
X99400144Y-105980223D01*
X99400144Y-105999777D01*
X99382602Y-106110533D01*
X99376558Y-106129131D01*
X99371021Y-106139996D01*
X98552007Y-106139996D01*
X98578396Y-106113605D01*
X98577398Y-106110533D01*
X98559856Y-105999777D01*
X98559856Y-105980223D01*
X98565672Y-105943500D01*
X98276499Y-105943500D01*
X97850478Y-105943500D01*
X97378473Y-105943500D01*
X96952452Y-105943500D01*
X96480448Y-105943500D01*
X96054426Y-105943500D01*
X95582422Y-105943500D01*
X95156401Y-105943500D01*
X94684396Y-105943500D01*
X94258375Y-105943500D01*
X93786371Y-105943500D01*
X93360350Y-105943500D01*
X92888345Y-105943500D01*
X92462324Y-105943500D01*
X92348873Y-105943500D01*
X92031128Y-105943500D01*
X91990320Y-105943500D01*
X91564298Y-105943500D01*
X91422000Y-105943500D01*
X91422000Y-106007236D01*
X91417242Y-106031154D01*
X91397907Y-106077832D01*
X91384359Y-106098108D01*
X91315630Y-106166836D01*
X84510500Y-106166836D01*
X84510500Y-106018586D01*
X84528806Y-105974392D01*
X84573000Y-105956086D01*
X91170000Y-105956086D01*
X91170000Y-105908679D01*
X107221934Y-105908679D01*
X107460755Y-106147500D01*
X107524759Y-106147500D01*
X107763579Y-105908679D01*
X108119960Y-105908679D01*
X108358781Y-106147500D01*
X108422785Y-106147500D01*
X108661605Y-105908679D01*
X109017985Y-105908679D01*
X109256806Y-106147500D01*
X109320810Y-106147500D01*
X109559630Y-105908679D01*
X109491053Y-105840102D01*
X109439131Y-105866559D01*
X109420533Y-105872602D01*
X109309777Y-105890144D01*
X109290223Y-105890144D01*
X109179467Y-105872602D01*
X109160869Y-105866559D01*
X109094117Y-105832547D01*
X109017985Y-105908679D01*
X108661605Y-105908679D01*
X108390783Y-105637857D01*
X108119960Y-105908679D01*
X107763579Y-105908679D01*
X107495598Y-105640698D01*
X107296590Y-105839709D01*
X107292047Y-105843827D01*
X107282403Y-105851742D01*
X107277474Y-105855398D01*
X107270669Y-105859944D01*
X107221934Y-105908679D01*
X91170000Y-105908679D01*
X91170000Y-105754000D01*
X91188306Y-105709806D01*
X91232500Y-105691500D01*
X107033621Y-105691500D01*
X107033623Y-105691500D01*
X107127163Y-105652755D01*
X107317410Y-105462507D01*
X107673788Y-105462507D01*
X107941770Y-105730489D01*
X108212592Y-105459667D01*
X108568973Y-105459667D01*
X108839795Y-105730488D01*
X108922921Y-105647362D01*
X108903441Y-105609130D01*
X108897398Y-105590533D01*
X108879856Y-105479777D01*
X108879856Y-105460223D01*
X108897398Y-105349467D01*
X108903441Y-105330870D01*
X108929897Y-105278946D01*
X108915069Y-105264118D01*
X109662547Y-105264118D01*
X109696559Y-105330869D01*
X109702602Y-105349467D01*
X109720144Y-105460223D01*
X109720144Y-105479777D01*
X109702602Y-105590533D01*
X109696559Y-105609131D01*
X109669522Y-105662190D01*
X109737821Y-105730489D01*
X110008643Y-105459667D01*
X109737821Y-105188845D01*
X109662547Y-105264118D01*
X108915069Y-105264118D01*
X108839795Y-105188844D01*
X108568973Y-105459667D01*
X108212592Y-105459667D01*
X107944610Y-105191685D01*
X107673788Y-105462507D01*
X107317410Y-105462507D01*
X107766424Y-105013491D01*
X108122798Y-105013491D01*
X108390783Y-105281476D01*
X108661605Y-105010654D01*
X109017986Y-105010654D01*
X109107809Y-105100477D01*
X109160870Y-105073441D01*
X109179467Y-105067398D01*
X109290223Y-105049856D01*
X109309777Y-105049856D01*
X109420533Y-105067398D01*
X109439130Y-105073441D01*
X109477362Y-105092921D01*
X109559629Y-105010654D01*
X109916012Y-105010654D01*
X110186834Y-105281476D01*
X110457656Y-105010654D01*
X110186834Y-104739832D01*
X109916012Y-105010654D01*
X109559629Y-105010654D01*
X109559630Y-105010653D01*
X109288808Y-104739831D01*
X109017986Y-105010654D01*
X108661605Y-105010654D01*
X108390782Y-104739831D01*
X108142941Y-104987672D01*
X108138398Y-104994473D01*
X108134742Y-104999403D01*
X108126827Y-105009047D01*
X108122798Y-105013491D01*
X107766424Y-105013491D01*
X107855371Y-104924544D01*
X107855374Y-104924543D01*
X107864162Y-104915755D01*
X107864163Y-104915755D01*
X107935755Y-104844163D01*
X107974500Y-104750623D01*
X107974500Y-104561641D01*
X108568973Y-104561641D01*
X108839795Y-104832463D01*
X109110618Y-104561641D01*
X109466999Y-104561641D01*
X109737821Y-104832463D01*
X110008643Y-104561641D01*
X110365025Y-104561641D01*
X110635847Y-104832463D01*
X110906669Y-104561641D01*
X110635847Y-104290819D01*
X110365025Y-104561641D01*
X110008643Y-104561641D01*
X109737821Y-104290819D01*
X109466999Y-104561641D01*
X109110618Y-104561641D01*
X108839795Y-104290818D01*
X108568973Y-104561641D01*
X107974500Y-104561641D01*
X107974500Y-104006089D01*
X108226500Y-104006089D01*
X108226500Y-104219167D01*
X108390783Y-104383450D01*
X108661605Y-104112628D01*
X109017985Y-104112628D01*
X109288808Y-104383450D01*
X109559630Y-104112628D01*
X109916011Y-104112628D01*
X110186834Y-104383450D01*
X110457656Y-104112628D01*
X110814037Y-104112628D01*
X111084859Y-104383450D01*
X111355682Y-104112628D01*
X111084859Y-103841805D01*
X110814037Y-104112628D01*
X110457656Y-104112628D01*
X110186834Y-103841806D01*
X109916011Y-104112628D01*
X109559630Y-104112628D01*
X109288808Y-103841805D01*
X109017985Y-104112628D01*
X108661605Y-104112628D01*
X108390783Y-103841806D01*
X108226500Y-104006089D01*
X107974500Y-104006089D01*
X107974500Y-103885672D01*
X107974501Y-103885663D01*
X107974501Y-103777144D01*
X107974500Y-103777142D01*
X107973887Y-103775663D01*
X107957589Y-103736315D01*
X107940513Y-103695091D01*
X107940513Y-103695090D01*
X107935755Y-103683604D01*
X107915766Y-103663615D01*
X108568973Y-103663615D01*
X108839795Y-103934438D01*
X109110618Y-103663615D01*
X109466998Y-103663615D01*
X109737821Y-103934438D01*
X110008643Y-103663615D01*
X110365024Y-103663615D01*
X110635847Y-103934438D01*
X110906669Y-103663615D01*
X111263049Y-103663615D01*
X111533872Y-103934438D01*
X111804694Y-103663615D01*
X111533872Y-103392793D01*
X111263049Y-103663615D01*
X110906669Y-103663615D01*
X110635847Y-103392793D01*
X110365024Y-103663615D01*
X110008643Y-103663615D01*
X109737821Y-103392793D01*
X109466998Y-103663615D01*
X109110618Y-103663615D01*
X108839795Y-103392793D01*
X108568973Y-103663615D01*
X107915766Y-103663615D01*
X107860608Y-103608456D01*
X107860593Y-103608443D01*
X107770430Y-103518279D01*
X107752124Y-103474085D01*
X107770430Y-103429891D01*
X107802431Y-103412786D01*
X107816165Y-103410055D01*
X107863150Y-103378661D01*
X107912076Y-103329735D01*
X108235093Y-103329735D01*
X108390783Y-103485425D01*
X108661605Y-103214602D01*
X109017985Y-103214602D01*
X109288808Y-103485425D01*
X109559630Y-103214602D01*
X109916011Y-103214602D01*
X110186834Y-103485425D01*
X110457656Y-103214602D01*
X110814037Y-103214602D01*
X111084859Y-103485425D01*
X111355682Y-103214602D01*
X111712062Y-103214602D01*
X111927500Y-103430040D01*
X111927500Y-102999165D01*
X111712062Y-103214602D01*
X111355682Y-103214602D01*
X111084859Y-102943780D01*
X110814037Y-103214602D01*
X110457656Y-103214602D01*
X110186834Y-102943780D01*
X109916011Y-103214602D01*
X109559630Y-103214602D01*
X109288808Y-102943780D01*
X109017985Y-103214602D01*
X108661605Y-103214602D01*
X108520356Y-103073354D01*
X108513419Y-103079959D01*
X108464496Y-103109280D01*
X108438489Y-103117870D01*
X108425587Y-103119140D01*
X108424317Y-103132042D01*
X108415727Y-103158049D01*
X108386406Y-103206972D01*
X108367522Y-103226807D01*
X108299229Y-103272443D01*
X108293969Y-103275597D01*
X108282962Y-103281481D01*
X108277415Y-103284104D01*
X108254509Y-103293592D01*
X108249184Y-103295497D01*
X108249024Y-103296028D01*
X108246958Y-103301802D01*
X108237472Y-103324706D01*
X108235093Y-103329735D01*
X107912076Y-103329735D01*
X107978001Y-103263810D01*
X108009395Y-103216825D01*
X108024141Y-103142691D01*
X108024141Y-103136535D01*
X108026172Y-103136535D01*
X108033875Y-103097803D01*
X108073647Y-103071225D01*
X108089429Y-103071226D01*
X108089429Y-103070738D01*
X108095584Y-103070738D01*
X108169523Y-103056031D01*
X108169528Y-103056029D01*
X108179221Y-103049551D01*
X108179221Y-103049550D01*
X108021084Y-102891414D01*
X108694798Y-102891414D01*
X108839796Y-103036412D01*
X109110618Y-102765590D01*
X109466999Y-102765590D01*
X109737821Y-103036412D01*
X110008643Y-102765590D01*
X110365025Y-102765590D01*
X110635847Y-103036412D01*
X110906669Y-102765590D01*
X111263050Y-102765590D01*
X111533872Y-103036412D01*
X111804694Y-102765590D01*
X111533872Y-102494767D01*
X111263050Y-102765590D01*
X110906669Y-102765590D01*
X110635847Y-102494768D01*
X110365025Y-102765590D01*
X110008643Y-102765590D01*
X109737821Y-102494768D01*
X109466999Y-102765590D01*
X109110618Y-102765590D01*
X108949863Y-102604835D01*
X108944578Y-102617599D01*
X108941956Y-102623145D01*
X108936073Y-102634152D01*
X108932919Y-102639414D01*
X108891199Y-102701852D01*
X108889431Y-102704362D01*
X108885715Y-102709372D01*
X108883830Y-102711787D01*
X108875979Y-102721354D01*
X108873972Y-102723682D01*
X108869785Y-102728301D01*
X108867672Y-102730519D01*
X108744072Y-102854119D01*
X108741854Y-102856232D01*
X108737235Y-102860419D01*
X108734907Y-102862426D01*
X108725340Y-102870277D01*
X108722925Y-102872162D01*
X108717915Y-102875878D01*
X108715405Y-102877646D01*
X108694798Y-102891414D01*
X108021084Y-102891414D01*
X107874613Y-102744943D01*
X107393227Y-102263557D01*
X107386748Y-102273254D01*
X107372041Y-102347195D01*
X107372041Y-102353350D01*
X107369842Y-102353350D01*
X107362218Y-102391663D01*
X107322442Y-102418236D01*
X107306245Y-102418236D01*
X107306245Y-102418639D01*
X107300088Y-102418639D01*
X107225956Y-102433384D01*
X107225952Y-102433386D01*
X107178970Y-102464778D01*
X107064118Y-102579630D01*
X107032726Y-102626612D01*
X107032724Y-102626616D01*
X107017979Y-102700748D01*
X107017979Y-102706905D01*
X107015737Y-102706905D01*
X107008138Y-102745107D01*
X106968364Y-102771683D01*
X106952691Y-102771683D01*
X106952691Y-102772192D01*
X106946534Y-102772192D01*
X106872402Y-102786937D01*
X106872398Y-102786939D01*
X106825416Y-102818331D01*
X106710564Y-102933183D01*
X106679172Y-102980165D01*
X106679170Y-102980169D01*
X106664425Y-103054301D01*
X106664425Y-103060458D01*
X106662184Y-103060458D01*
X106654582Y-103098664D01*
X106614807Y-103125238D01*
X106599138Y-103125237D01*
X106599138Y-103125746D01*
X106592981Y-103125746D01*
X106518849Y-103140491D01*
X106518845Y-103140493D01*
X106471863Y-103171885D01*
X106471861Y-103171887D01*
X106372011Y-103271738D01*
X106327817Y-103290044D01*
X106283623Y-103271738D01*
X106183770Y-103171885D01*
X106136788Y-103140493D01*
X106136784Y-103140491D01*
X106062653Y-103125746D01*
X106056496Y-103125746D01*
X106056496Y-103123504D01*
X106018290Y-103115903D01*
X105991716Y-103076128D01*
X105991719Y-103060458D01*
X105991209Y-103060458D01*
X105991209Y-103054301D01*
X105976463Y-102980169D01*
X105976461Y-102980165D01*
X105945069Y-102933183D01*
X105830217Y-102818331D01*
X105783235Y-102786939D01*
X105783231Y-102786937D01*
X105709100Y-102772192D01*
X105702943Y-102772192D01*
X105702943Y-102769951D01*
X105664733Y-102762347D01*
X105638162Y-102722570D01*
X105638165Y-102706905D01*
X105637655Y-102706905D01*
X105637655Y-102700748D01*
X105622909Y-102626616D01*
X105622907Y-102626612D01*
X105591515Y-102579630D01*
X105476663Y-102464778D01*
X105429681Y-102433386D01*
X105429677Y-102433384D01*
X105355546Y-102418639D01*
X105349389Y-102418639D01*
X105349389Y-102416397D01*
X105311183Y-102408796D01*
X105284609Y-102369021D01*
X105284612Y-102353351D01*
X105284102Y-102353351D01*
X105284102Y-102347194D01*
X105271902Y-102285861D01*
X105269356Y-102273061D01*
X105237962Y-102226076D01*
X105123111Y-102111225D01*
X105094026Y-102091791D01*
X105076128Y-102079832D01*
X105076124Y-102079830D01*
X105001993Y-102065085D01*
X104995836Y-102065085D01*
X104995836Y-102062843D01*
X104957630Y-102055242D01*
X104931056Y-102015467D01*
X104931059Y-101999798D01*
X104930549Y-101999798D01*
X104930549Y-101993641D01*
X104918349Y-101932307D01*
X104915803Y-101919508D01*
X104884409Y-101872523D01*
X104769558Y-101757672D01*
X104761915Y-101752565D01*
X104722575Y-101726279D01*
X104722571Y-101726277D01*
X104648440Y-101711532D01*
X104642283Y-101711532D01*
X104642283Y-101709291D01*
X104604073Y-101701687D01*
X104577502Y-101661910D01*
X104577505Y-101646245D01*
X104576995Y-101646245D01*
X104576995Y-101640088D01*
X104562249Y-101565956D01*
X104562247Y-101565952D01*
X104530855Y-101518970D01*
X104416003Y-101404118D01*
X104369021Y-101372726D01*
X104369017Y-101372724D01*
X104294886Y-101357979D01*
X104288729Y-101357979D01*
X104288729Y-101355949D01*
X104249988Y-101348238D01*
X104223418Y-101308460D01*
X104223421Y-101292690D01*
X104222933Y-101292690D01*
X104222933Y-101286535D01*
X104208226Y-101212596D01*
X104208224Y-101212592D01*
X104201746Y-101202896D01*
X103720361Y-101684283D01*
X103415751Y-101988891D01*
X103425447Y-101995369D01*
X103425451Y-101995371D01*
X103499390Y-102010078D01*
X103505545Y-102010078D01*
X103505545Y-102012281D01*
X103543841Y-102019889D01*
X103570426Y-102059656D01*
X103570430Y-102075875D01*
X103570833Y-102075875D01*
X103570833Y-102082031D01*
X103585578Y-102156163D01*
X103585580Y-102156167D01*
X103616972Y-102203149D01*
X103616973Y-102203150D01*
X103731824Y-102318001D01*
X103778809Y-102349395D01*
X103799879Y-102353586D01*
X103852942Y-102364141D01*
X103859099Y-102364141D01*
X103859099Y-102366385D01*
X103897291Y-102373974D01*
X103923875Y-102413742D01*
X103923878Y-102429428D01*
X103924387Y-102429428D01*
X103924387Y-102435584D01*
X103939132Y-102509716D01*
X103939134Y-102509720D01*
X103967762Y-102552565D01*
X103970527Y-102556703D01*
X104085378Y-102671554D01*
X104132363Y-102702948D01*
X104164659Y-102709372D01*
X104206496Y-102717694D01*
X104212653Y-102717694D01*
X104212653Y-102719939D01*
X104250841Y-102727525D01*
X104277428Y-102767291D01*
X104277431Y-102782981D01*
X104277940Y-102782981D01*
X104277940Y-102789137D01*
X104292685Y-102863269D01*
X104292687Y-102863273D01*
X104302291Y-102877646D01*
X104324080Y-102910256D01*
X104438931Y-103025107D01*
X104485916Y-103056501D01*
X104499647Y-103059232D01*
X104539421Y-103085807D01*
X104548754Y-103132723D01*
X104531649Y-103164725D01*
X104393096Y-103303280D01*
X104348902Y-103321586D01*
X93112500Y-103321586D01*
X93068306Y-103303280D01*
X93050000Y-103259086D01*
X93050000Y-102765590D01*
X93302538Y-102765590D01*
X93573360Y-103036412D01*
X93844182Y-102765590D01*
X94200564Y-102765590D01*
X94471386Y-103036412D01*
X94742208Y-102765590D01*
X95098589Y-102765590D01*
X95369411Y-103036412D01*
X95640233Y-102765590D01*
X95996615Y-102765590D01*
X96267437Y-103036412D01*
X96538259Y-102765590D01*
X96894640Y-102765590D01*
X97165462Y-103036412D01*
X97436285Y-102765590D01*
X97792666Y-102765590D01*
X98063488Y-103036412D01*
X98334310Y-102765590D01*
X98690692Y-102765590D01*
X98961514Y-103036412D01*
X99232336Y-102765590D01*
X99588717Y-102765590D01*
X99859539Y-103036412D01*
X100130361Y-102765590D01*
X100486743Y-102765590D01*
X100757565Y-103036412D01*
X101028387Y-102765590D01*
X101384768Y-102765590D01*
X101655590Y-103036412D01*
X101926413Y-102765590D01*
X102282794Y-102765590D01*
X102553616Y-103036412D01*
X102824438Y-102765590D01*
X103180820Y-102765590D01*
X103451642Y-103036412D01*
X103722464Y-102765590D01*
X103451642Y-102494768D01*
X103180820Y-102765590D01*
X102824438Y-102765590D01*
X102553616Y-102494767D01*
X102282794Y-102765590D01*
X101926413Y-102765590D01*
X101655590Y-102494767D01*
X101384768Y-102765590D01*
X101028387Y-102765590D01*
X100757565Y-102494768D01*
X100486743Y-102765590D01*
X100130361Y-102765590D01*
X99859539Y-102494767D01*
X99588717Y-102765590D01*
X99232336Y-102765590D01*
X98961514Y-102494768D01*
X98690692Y-102765590D01*
X98334310Y-102765590D01*
X98063488Y-102494768D01*
X97792666Y-102765590D01*
X97436285Y-102765590D01*
X97165462Y-102494767D01*
X96894640Y-102765590D01*
X96538259Y-102765590D01*
X96267437Y-102494768D01*
X95996615Y-102765590D01*
X95640233Y-102765590D01*
X95369411Y-102494767D01*
X95098589Y-102765590D01*
X94742208Y-102765590D01*
X94471386Y-102494768D01*
X94200564Y-102765590D01*
X93844182Y-102765590D01*
X93573360Y-102494768D01*
X93302538Y-102765590D01*
X93050000Y-102765590D01*
X93050000Y-102316577D01*
X93751551Y-102316577D01*
X94022373Y-102587399D01*
X94293195Y-102316577D01*
X94649576Y-102316577D01*
X94920398Y-102587399D01*
X95191221Y-102316577D01*
X95547602Y-102316577D01*
X95818424Y-102587399D01*
X96089246Y-102316577D01*
X96445628Y-102316577D01*
X96716450Y-102587399D01*
X96987272Y-102316577D01*
X97343653Y-102316577D01*
X97614475Y-102587399D01*
X97885297Y-102316577D01*
X98241679Y-102316577D01*
X98512501Y-102587399D01*
X98783323Y-102316577D01*
X99139704Y-102316577D01*
X99410526Y-102587399D01*
X99681349Y-102316577D01*
X100037730Y-102316577D01*
X100308552Y-102587399D01*
X100579374Y-102316577D01*
X100935756Y-102316577D01*
X101206578Y-102587399D01*
X101477400Y-102316577D01*
X101833781Y-102316577D01*
X102104603Y-102587399D01*
X102375425Y-102316577D01*
X102731807Y-102316577D01*
X103002629Y-102587399D01*
X103273451Y-102316577D01*
X103002629Y-102045755D01*
X102731807Y-102316577D01*
X102375425Y-102316577D01*
X102104603Y-102045754D01*
X101833781Y-102316577D01*
X101477400Y-102316577D01*
X101206578Y-102045755D01*
X100935756Y-102316577D01*
X100579374Y-102316577D01*
X100308552Y-102045755D01*
X100037730Y-102316577D01*
X99681349Y-102316577D01*
X99410526Y-102045754D01*
X99139704Y-102316577D01*
X98783323Y-102316577D01*
X98730985Y-102264239D01*
X98729045Y-102265650D01*
X98629131Y-102316559D01*
X98610533Y-102322602D01*
X98499777Y-102340144D01*
X98480223Y-102340144D01*
X98369467Y-102322602D01*
X98350869Y-102316559D01*
X98278547Y-102279708D01*
X98241679Y-102316577D01*
X97885297Y-102316577D01*
X97614475Y-102045754D01*
X97343653Y-102316577D01*
X96987272Y-102316577D01*
X96716450Y-102045755D01*
X96445628Y-102316577D01*
X96089246Y-102316577D01*
X95818424Y-102045755D01*
X95547602Y-102316577D01*
X95191221Y-102316577D01*
X94920398Y-102045754D01*
X94649576Y-102316577D01*
X94293195Y-102316577D01*
X94022373Y-102045755D01*
X93751551Y-102316577D01*
X93050000Y-102316577D01*
X93050000Y-101867564D01*
X93302537Y-101867564D01*
X93573360Y-102138386D01*
X93844182Y-101867564D01*
X94200563Y-101867564D01*
X94471386Y-102138386D01*
X94742208Y-101867564D01*
X95098588Y-101867564D01*
X95369411Y-102138386D01*
X95640233Y-101867564D01*
X95996614Y-101867564D01*
X96267437Y-102138386D01*
X96538259Y-101867564D01*
X96894640Y-101867564D01*
X97165462Y-102138386D01*
X97436285Y-101867564D01*
X97792665Y-101867564D01*
X98063487Y-102138386D01*
X98110082Y-102091791D01*
X98093441Y-102059131D01*
X98087398Y-102040533D01*
X98069856Y-101929777D01*
X98069856Y-101910223D01*
X98087398Y-101799467D01*
X98093441Y-101780869D01*
X98130291Y-101708547D01*
X98849708Y-101708547D01*
X98886559Y-101780869D01*
X98892602Y-101799467D01*
X98910144Y-101910223D01*
X98910144Y-101929777D01*
X98892602Y-102040533D01*
X98886559Y-102059131D01*
X98885107Y-102061979D01*
X98961514Y-102138386D01*
X99232336Y-101867564D01*
X99588716Y-101867564D01*
X99859539Y-102138386D01*
X100130361Y-101867564D01*
X100486742Y-101867564D01*
X100757565Y-102138386D01*
X101028387Y-101867564D01*
X101384768Y-101867564D01*
X101655590Y-102138386D01*
X101926413Y-101867564D01*
X102282793Y-101867564D01*
X102553616Y-102138386D01*
X102824438Y-101867564D01*
X102553616Y-101596741D01*
X102282793Y-101867564D01*
X101926413Y-101867564D01*
X101655590Y-101596741D01*
X101384768Y-101867564D01*
X101028387Y-101867564D01*
X100757565Y-101596742D01*
X100486742Y-101867564D01*
X100130361Y-101867564D01*
X99859539Y-101596741D01*
X99588716Y-101867564D01*
X99232336Y-101867564D01*
X98961514Y-101596742D01*
X98849708Y-101708547D01*
X98130291Y-101708547D01*
X98144350Y-101680955D01*
X98145760Y-101679014D01*
X98063488Y-101596742D01*
X97792665Y-101867564D01*
X97436285Y-101867564D01*
X97165462Y-101596741D01*
X96894640Y-101867564D01*
X96538259Y-101867564D01*
X96267437Y-101596742D01*
X95996614Y-101867564D01*
X95640233Y-101867564D01*
X95369411Y-101596741D01*
X95098588Y-101867564D01*
X94742208Y-101867564D01*
X94471386Y-101596742D01*
X94200563Y-101867564D01*
X93844182Y-101867564D01*
X93573360Y-101596742D01*
X93302537Y-101867564D01*
X93050000Y-101867564D01*
X93050000Y-101418551D01*
X93751550Y-101418551D01*
X94022373Y-101689373D01*
X94293195Y-101418551D01*
X94649576Y-101418551D01*
X94920398Y-101689373D01*
X95191221Y-101418551D01*
X95547601Y-101418551D01*
X95818424Y-101689373D01*
X96089246Y-101418551D01*
X96445627Y-101418551D01*
X96716450Y-101689373D01*
X96987272Y-101418551D01*
X97343652Y-101418551D01*
X97614475Y-101689373D01*
X97885297Y-101418551D01*
X98241679Y-101418551D01*
X98348021Y-101524893D01*
X98350871Y-101523441D01*
X98369467Y-101517398D01*
X98480223Y-101499856D01*
X98499777Y-101499856D01*
X98610533Y-101517398D01*
X98629130Y-101523441D01*
X98661790Y-101540082D01*
X98783321Y-101418551D01*
X99139704Y-101418551D01*
X99410526Y-101689373D01*
X99681349Y-101418551D01*
X100037729Y-101418551D01*
X100308552Y-101689373D01*
X100579374Y-101418551D01*
X100935755Y-101418551D01*
X101206578Y-101689373D01*
X101477400Y-101418551D01*
X101833780Y-101418551D01*
X102104603Y-101689373D01*
X102375425Y-101418551D01*
X102331797Y-101374923D01*
X102863726Y-101374923D01*
X102863726Y-101374924D01*
X102878471Y-101449056D01*
X102878473Y-101449060D01*
X102907623Y-101492686D01*
X102909866Y-101496043D01*
X103024717Y-101610894D01*
X103071702Y-101642288D01*
X103101097Y-101648135D01*
X103145835Y-101657034D01*
X103151992Y-101657034D01*
X103151992Y-101659065D01*
X103190721Y-101666766D01*
X103217300Y-101706538D01*
X103217301Y-101722322D01*
X103217789Y-101722322D01*
X103217789Y-101728476D01*
X103232495Y-101802415D01*
X103232496Y-101802416D01*
X103238975Y-101812113D01*
X103543583Y-101507505D01*
X103501157Y-101465079D01*
X103482851Y-101420885D01*
X103501156Y-101376692D01*
X103589547Y-101288301D01*
X103633740Y-101269996D01*
X103677934Y-101288302D01*
X103720360Y-101330728D01*
X104024969Y-101026120D01*
X104015271Y-101019641D01*
X104015270Y-101019640D01*
X103941332Y-101004934D01*
X103935177Y-101004934D01*
X103935177Y-101002736D01*
X103896860Y-100995109D01*
X103870289Y-100955332D01*
X103870292Y-100939138D01*
X103869888Y-100939138D01*
X103869888Y-100932981D01*
X103855142Y-100858849D01*
X103855140Y-100858845D01*
X103823748Y-100811863D01*
X103708898Y-100697013D01*
X103708893Y-100697009D01*
X103701738Y-100692228D01*
X103694656Y-100681628D01*
X103692317Y-100683968D01*
X103366807Y-100358458D01*
X103277005Y-100448259D01*
X103452014Y-100623268D01*
X103470320Y-100667462D01*
X103452014Y-100711656D01*
X102909868Y-101253802D01*
X102878472Y-101300789D01*
X102878471Y-101300790D01*
X102863726Y-101374923D01*
X102331797Y-101374923D01*
X102104603Y-101147728D01*
X101833780Y-101418551D01*
X101477400Y-101418551D01*
X101206578Y-101147729D01*
X100935755Y-101418551D01*
X100579374Y-101418551D01*
X100308552Y-101147729D01*
X100037729Y-101418551D01*
X99681349Y-101418551D01*
X99410526Y-101147728D01*
X99139704Y-101418551D01*
X98783321Y-101418551D01*
X98783322Y-101418550D01*
X98512501Y-101147729D01*
X98241679Y-101418551D01*
X97885297Y-101418551D01*
X97614475Y-101147728D01*
X97343652Y-101418551D01*
X96987272Y-101418551D01*
X96716450Y-101147729D01*
X96445627Y-101418551D01*
X96089246Y-101418551D01*
X95818424Y-101147729D01*
X95547601Y-101418551D01*
X95191221Y-101418551D01*
X94920398Y-101147728D01*
X94649576Y-101418551D01*
X94293195Y-101418551D01*
X94022373Y-101147729D01*
X93751550Y-101418551D01*
X93050000Y-101418551D01*
X93050000Y-100969538D01*
X93302537Y-100969538D01*
X93573360Y-101240361D01*
X93844182Y-100969538D01*
X94200563Y-100969538D01*
X94471386Y-101240361D01*
X94742208Y-100969538D01*
X95098588Y-100969538D01*
X95369411Y-101240361D01*
X95640233Y-100969538D01*
X95996614Y-100969538D01*
X96267437Y-101240361D01*
X96538259Y-100969538D01*
X96894640Y-100969538D01*
X97165462Y-101240361D01*
X97436285Y-100969538D01*
X97792665Y-100969538D01*
X98063488Y-101240361D01*
X98334310Y-100969538D01*
X98690691Y-100969538D01*
X98961514Y-101240361D01*
X99232336Y-100969538D01*
X99588716Y-100969538D01*
X99859539Y-101240361D01*
X100130361Y-100969538D01*
X100486742Y-100969538D01*
X100757565Y-101240361D01*
X101028387Y-100969538D01*
X101384768Y-100969538D01*
X101655590Y-101240361D01*
X101926413Y-100969538D01*
X102282793Y-100969538D01*
X102553616Y-101240361D01*
X102824438Y-100969538D01*
X102553616Y-100698716D01*
X102282793Y-100969538D01*
X101926413Y-100969538D01*
X101655590Y-100698716D01*
X101384768Y-100969538D01*
X101028387Y-100969538D01*
X100757565Y-100698716D01*
X100486742Y-100969538D01*
X100130361Y-100969538D01*
X99859539Y-100698716D01*
X99588716Y-100969538D01*
X99232336Y-100969538D01*
X98961514Y-100698716D01*
X98690691Y-100969538D01*
X98334310Y-100969538D01*
X98077272Y-100712500D01*
X98049704Y-100712500D01*
X97792665Y-100969538D01*
X97436285Y-100969538D01*
X97179247Y-100712500D01*
X97151679Y-100712500D01*
X96894640Y-100969538D01*
X96538259Y-100969538D01*
X96281221Y-100712500D01*
X96253653Y-100712500D01*
X95996614Y-100969538D01*
X95640233Y-100969538D01*
X95383195Y-100712500D01*
X95355627Y-100712500D01*
X95098588Y-100969538D01*
X94742208Y-100969538D01*
X94485170Y-100712500D01*
X94457602Y-100712500D01*
X94200563Y-100969538D01*
X93844182Y-100969538D01*
X93587144Y-100712500D01*
X93559576Y-100712500D01*
X93302537Y-100969538D01*
X93050000Y-100969538D01*
X93050000Y-100523000D01*
X93051025Y-100520526D01*
X99139704Y-100520526D01*
X99410526Y-100791348D01*
X99681349Y-100520526D01*
X100037730Y-100520526D01*
X100308552Y-100791348D01*
X100579374Y-100520526D01*
X100935756Y-100520526D01*
X101206578Y-100791348D01*
X101477400Y-100520526D01*
X101833781Y-100520526D01*
X102104603Y-100791348D01*
X102375425Y-100520526D01*
X102731807Y-100520526D01*
X103002628Y-100791347D01*
X103133170Y-100660805D01*
X103062646Y-100590281D01*
X103049098Y-100570005D01*
X103029763Y-100523327D01*
X103028999Y-100519488D01*
X103025159Y-100518725D01*
X102978481Y-100499390D01*
X102958205Y-100485842D01*
X102862348Y-100389985D01*
X102731807Y-100520526D01*
X102375425Y-100520526D01*
X102104603Y-100249703D01*
X101833781Y-100520526D01*
X101477400Y-100520526D01*
X101206578Y-100249704D01*
X100935756Y-100520526D01*
X100579374Y-100520526D01*
X100308552Y-100249704D01*
X100037730Y-100520526D01*
X99681349Y-100520526D01*
X99410526Y-100249703D01*
X99139704Y-100520526D01*
X93051025Y-100520526D01*
X93068306Y-100478806D01*
X93112500Y-100460500D01*
X98695891Y-100460500D01*
X98695892Y-100460500D01*
X98823186Y-100426392D01*
X98937314Y-100360500D01*
X99226301Y-100071513D01*
X99588717Y-100071513D01*
X99859539Y-100342335D01*
X100130361Y-100071513D01*
X100486743Y-100071513D01*
X100757565Y-100342335D01*
X101028387Y-100071513D01*
X101028386Y-100071512D01*
X101384768Y-100071512D01*
X101655590Y-100342334D01*
X101825267Y-100172658D01*
X102383939Y-100172658D01*
X102553616Y-100342335D01*
X102690194Y-100205756D01*
X102662525Y-100164347D01*
X102659372Y-100159087D01*
X102653488Y-100148079D01*
X102650865Y-100142531D01*
X102641379Y-100119627D01*
X102639313Y-100113853D01*
X102635692Y-100101915D01*
X102634202Y-100095967D01*
X102622185Y-100035553D01*
X102609920Y-100047819D01*
X102608283Y-100049396D01*
X102604921Y-100052522D01*
X102603254Y-100054018D01*
X102596359Y-100059983D01*
X102594609Y-100061442D01*
X102591025Y-100064321D01*
X102589245Y-100065699D01*
X102522321Y-100115603D01*
X102518329Y-100118345D01*
X102510002Y-100123603D01*
X102505809Y-100126029D01*
X102488515Y-100135158D01*
X102484153Y-100137249D01*
X102475114Y-100141159D01*
X102470594Y-100142910D01*
X102383939Y-100172658D01*
X101825267Y-100172658D01*
X101888600Y-100109325D01*
X101830093Y-100065698D01*
X101828306Y-100064315D01*
X101824723Y-100061436D01*
X101822980Y-100059982D01*
X101816085Y-100054017D01*
X101814411Y-100052515D01*
X101811050Y-100049389D01*
X101809421Y-100047818D01*
X101722313Y-99960710D01*
X102864235Y-99960710D01*
X102878941Y-100034648D01*
X102878942Y-100034650D01*
X102910253Y-100081509D01*
X103100226Y-100271482D01*
X103190029Y-100181680D01*
X102885421Y-99877072D01*
X102878942Y-99886769D01*
X102864235Y-99960710D01*
X101722313Y-99960710D01*
X101659435Y-99897832D01*
X101645887Y-99877556D01*
X101626552Y-99830878D01*
X101626361Y-99829919D01*
X101384768Y-100071512D01*
X101028386Y-100071512D01*
X100757565Y-99800691D01*
X100486743Y-100071513D01*
X100130361Y-100071513D01*
X99859539Y-99800690D01*
X99588717Y-100071513D01*
X99226301Y-100071513D01*
X99675314Y-99622500D01*
X100037729Y-99622500D01*
X100308552Y-99893322D01*
X100579374Y-99622500D01*
X100935755Y-99622500D01*
X101206577Y-99893322D01*
X101430750Y-99669148D01*
X101402182Y-99640580D01*
X101400611Y-99638952D01*
X101397484Y-99635590D01*
X101395982Y-99633915D01*
X101390017Y-99627020D01*
X101388563Y-99625277D01*
X101385684Y-99621694D01*
X101384301Y-99619907D01*
X101334395Y-99552979D01*
X101331652Y-99548987D01*
X101326391Y-99540655D01*
X101323964Y-99536459D01*
X101314836Y-99519164D01*
X101312745Y-99514800D01*
X101308838Y-99505766D01*
X101307090Y-99501251D01*
X101281441Y-99426541D01*
X101206578Y-99351678D01*
X100935755Y-99622500D01*
X100579374Y-99622500D01*
X100308552Y-99351678D01*
X100037729Y-99622500D01*
X99675314Y-99622500D01*
X100124327Y-99173487D01*
X100486742Y-99173487D01*
X100757565Y-99444309D01*
X101020284Y-99181590D01*
X101504116Y-99181590D01*
X101504116Y-99299070D01*
X101542260Y-99410178D01*
X101542262Y-99410183D01*
X101583590Y-99465606D01*
X101583598Y-99465615D01*
X101694188Y-99576205D01*
X102012386Y-99258007D01*
X101676511Y-98922132D01*
X101583593Y-99015052D01*
X101583589Y-99015057D01*
X101542263Y-99070475D01*
X101542259Y-99070482D01*
X101504116Y-99181590D01*
X101020284Y-99181590D01*
X101028387Y-99173487D01*
X100757565Y-98902665D01*
X100486742Y-99173487D01*
X100124327Y-99173487D01*
X100573340Y-98724474D01*
X100935755Y-98724474D01*
X101206578Y-98995297D01*
X101459347Y-98742527D01*
X101856116Y-98742527D01*
X102327402Y-99213813D01*
X102345708Y-99258007D01*
X102327402Y-99302201D01*
X101873794Y-99755809D01*
X101873794Y-99755810D01*
X101984384Y-99866400D01*
X101984393Y-99866408D01*
X102039821Y-99907739D01*
X102150930Y-99945884D01*
X102268409Y-99945884D01*
X102379517Y-99907739D01*
X102379519Y-99907739D01*
X102434945Y-99866409D01*
X102434954Y-99866401D01*
X102601060Y-99700295D01*
X103062198Y-99700295D01*
X103366807Y-100004904D01*
X103848191Y-100486289D01*
X103848192Y-100486289D01*
X103854670Y-100476596D01*
X103854672Y-100476591D01*
X103869379Y-100402652D01*
X103869379Y-100396497D01*
X103871581Y-100396497D01*
X103879192Y-100358198D01*
X103918960Y-100331614D01*
X103935176Y-100331612D01*
X103935176Y-100331209D01*
X103941333Y-100331209D01*
X103966043Y-100326293D01*
X104015466Y-100316463D01*
X104062451Y-100285069D01*
X104177302Y-100170218D01*
X104208696Y-100123233D01*
X104223442Y-100049099D01*
X104223442Y-100042943D01*
X104225686Y-100042943D01*
X104233277Y-100004747D01*
X104273046Y-99978165D01*
X104288729Y-99978165D01*
X104288729Y-99977655D01*
X104294886Y-99977655D01*
X104319596Y-99972739D01*
X104369019Y-99962909D01*
X104416004Y-99931515D01*
X104530855Y-99816664D01*
X104562249Y-99769679D01*
X104576995Y-99695545D01*
X104576995Y-99689389D01*
X104579240Y-99689389D01*
X104586828Y-99651197D01*
X104626596Y-99624613D01*
X104642283Y-99624612D01*
X104642283Y-99624102D01*
X104648440Y-99624102D01*
X104673150Y-99619186D01*
X104722573Y-99609356D01*
X104769558Y-99577962D01*
X104884409Y-99463111D01*
X104915803Y-99416126D01*
X104930549Y-99341992D01*
X104930549Y-99335836D01*
X104932581Y-99335836D01*
X104940281Y-99297107D01*
X104980053Y-99270528D01*
X104995837Y-99270528D01*
X104995837Y-99270040D01*
X105001992Y-99270040D01*
X105075931Y-99255333D01*
X105075936Y-99255331D01*
X105085629Y-99248853D01*
X105085629Y-99248852D01*
X104781021Y-98944245D01*
X104299635Y-98462859D01*
X104293156Y-98472556D01*
X104278449Y-98546497D01*
X104278449Y-98552652D01*
X104276249Y-98552652D01*
X104268628Y-98590962D01*
X104228853Y-98617536D01*
X104212653Y-98617536D01*
X104212653Y-98617940D01*
X104206496Y-98617940D01*
X104132364Y-98632685D01*
X104132360Y-98632687D01*
X104085378Y-98664079D01*
X103970526Y-98778931D01*
X103939134Y-98825913D01*
X103939132Y-98825917D01*
X103924387Y-98900049D01*
X103924387Y-98906206D01*
X103922145Y-98906206D01*
X103914546Y-98944408D01*
X103874772Y-98970984D01*
X103859099Y-98970984D01*
X103859099Y-98971493D01*
X103852942Y-98971493D01*
X103778810Y-98986238D01*
X103778806Y-98986240D01*
X103731824Y-99017632D01*
X103616972Y-99132484D01*
X103585580Y-99179466D01*
X103585578Y-99179470D01*
X103570833Y-99253602D01*
X103570833Y-99259759D01*
X103568592Y-99259759D01*
X103560990Y-99297965D01*
X103521215Y-99324539D01*
X103505546Y-99324538D01*
X103505546Y-99325047D01*
X103499389Y-99325047D01*
X103425257Y-99339792D01*
X103425253Y-99339794D01*
X103378271Y-99371186D01*
X103263419Y-99486038D01*
X103232027Y-99533020D01*
X103232025Y-99533024D01*
X103217280Y-99607156D01*
X103217280Y-99613313D01*
X103215249Y-99613313D01*
X103207540Y-99652051D01*
X103167764Y-99678622D01*
X103151991Y-99678622D01*
X103151991Y-99679109D01*
X103145836Y-99679109D01*
X103071895Y-99693816D01*
X103062198Y-99700295D01*
X102601060Y-99700295D01*
X102800386Y-99500968D01*
X102800397Y-99500955D01*
X102841720Y-99445540D01*
X102841724Y-99445533D01*
X102879868Y-99334425D01*
X102879868Y-99216945D01*
X102841723Y-99105837D01*
X102841721Y-99105832D01*
X102800393Y-99050409D01*
X102800385Y-99050400D01*
X102399599Y-98649615D01*
X102399590Y-98649607D01*
X102344162Y-98608276D01*
X102233054Y-98570132D01*
X102115575Y-98570132D01*
X102004466Y-98608276D01*
X102004464Y-98608276D01*
X101949038Y-98649606D01*
X101949036Y-98649608D01*
X101856116Y-98742527D01*
X101459347Y-98742527D01*
X101477400Y-98724474D01*
X101206578Y-98453652D01*
X100935755Y-98724474D01*
X100573340Y-98724474D01*
X101022352Y-98275462D01*
X101384768Y-98275462D01*
X101655590Y-98546284D01*
X101926413Y-98275462D01*
X101655590Y-98004639D01*
X101384768Y-98275462D01*
X101022352Y-98275462D01*
X101471365Y-97826449D01*
X101833781Y-97826449D01*
X102104603Y-98097271D01*
X102375425Y-97826449D01*
X102104603Y-97555626D01*
X101833781Y-97826449D01*
X101471365Y-97826449D01*
X101920378Y-97377436D01*
X102282794Y-97377436D01*
X102553616Y-97648258D01*
X102824438Y-97377436D01*
X102553616Y-97106613D01*
X102282794Y-97377436D01*
X101920378Y-97377436D01*
X102369390Y-96928423D01*
X102731806Y-96928423D01*
X103002628Y-97199245D01*
X103136500Y-97065373D01*
X103136500Y-96791472D01*
X103002629Y-96657601D01*
X102731806Y-96928423D01*
X102369390Y-96928423D01*
X103323919Y-95973893D01*
X103368113Y-95955588D01*
X103412307Y-95973894D01*
X103430613Y-96018088D01*
X103422240Y-96049337D01*
X103414500Y-96062742D01*
X103414498Y-96062748D01*
X103388500Y-96159770D01*
X103388500Y-97071284D01*
X103414498Y-97168306D01*
X103414498Y-97168308D01*
X103449908Y-97229639D01*
X103464723Y-97255301D01*
X103704228Y-97494806D01*
X103722534Y-97539000D01*
X103704229Y-97583194D01*
X103659268Y-97628156D01*
X103615074Y-97646462D01*
X103570880Y-97628157D01*
X103495931Y-97553208D01*
X103440421Y-97511815D01*
X103440419Y-97511814D01*
X103329153Y-97473616D01*
X103329152Y-97473616D01*
X103211509Y-97473616D01*
X103197032Y-97478586D01*
X103100238Y-97511814D01*
X103044734Y-97553202D01*
X103044725Y-97553210D01*
X102679226Y-97918711D01*
X102679215Y-97918724D01*
X102637833Y-97974218D01*
X102637832Y-97974220D01*
X102637831Y-97974223D01*
X102599632Y-98085493D01*
X102599632Y-98203136D01*
X102624364Y-98275176D01*
X102637831Y-98314406D01*
X102679213Y-98369904D01*
X102679218Y-98369910D01*
X102679222Y-98369915D01*
X103080085Y-98770776D01*
X103135595Y-98812169D01*
X103191229Y-98831268D01*
X103246863Y-98850368D01*
X103246864Y-98850368D01*
X103364506Y-98850368D01*
X103364507Y-98850368D01*
X103475777Y-98812169D01*
X103531286Y-98770778D01*
X103896792Y-98405270D01*
X103938185Y-98349761D01*
X103955860Y-98298272D01*
X103987523Y-98262416D01*
X104005194Y-98256835D01*
X104053753Y-98249145D01*
X104160300Y-98194856D01*
X104244856Y-98110300D01*
X104270757Y-98059464D01*
X104307131Y-98028398D01*
X104314241Y-98026542D01*
X104342400Y-98020940D01*
X104389314Y-98030271D01*
X104398787Y-98038045D01*
X104532074Y-98171332D01*
X104550380Y-98215526D01*
X104532074Y-98259720D01*
X104500076Y-98276825D01*
X104486109Y-98279603D01*
X104476412Y-98286082D01*
X104781021Y-98590691D01*
X104822033Y-98549679D01*
X104866227Y-98531373D01*
X104910421Y-98549679D01*
X104994764Y-98634022D01*
X104993809Y-98634976D01*
X105016720Y-98669267D01*
X105007385Y-98716183D01*
X104999615Y-98725651D01*
X104957798Y-98767468D01*
X105262405Y-99072076D01*
X105262406Y-99072076D01*
X105268884Y-99062383D01*
X105268886Y-99062378D01*
X105283593Y-98988439D01*
X105283593Y-98982284D01*
X105285794Y-98982284D01*
X105293407Y-98943981D01*
X105333178Y-98917400D01*
X105349389Y-98917399D01*
X105349389Y-98916995D01*
X105355546Y-98916995D01*
X105383683Y-98911398D01*
X105429679Y-98902249D01*
X105476664Y-98870855D01*
X105591515Y-98756004D01*
X105622909Y-98709019D01*
X105637655Y-98634885D01*
X105637655Y-98628729D01*
X105639900Y-98628729D01*
X105647488Y-98590537D01*
X105687256Y-98563953D01*
X105702943Y-98563952D01*
X105702943Y-98563442D01*
X105709100Y-98563442D01*
X105733810Y-98558526D01*
X105783233Y-98548696D01*
X105830218Y-98517302D01*
X105945069Y-98402451D01*
X105976463Y-98355466D01*
X105991209Y-98281332D01*
X105991209Y-98275176D01*
X105993240Y-98275176D01*
X106000943Y-98236444D01*
X106040715Y-98209866D01*
X106056497Y-98209867D01*
X106056497Y-98209379D01*
X106062652Y-98209379D01*
X106136591Y-98194672D01*
X106136596Y-98194670D01*
X106146289Y-98188192D01*
X106146289Y-98188191D01*
X105841681Y-97883584D01*
X105799254Y-97926011D01*
X105755059Y-97944316D01*
X105710866Y-97926010D01*
X105622477Y-97837621D01*
X105604171Y-97793427D01*
X105622477Y-97749233D01*
X105622478Y-97749232D01*
X105664904Y-97706807D01*
X105360295Y-97402198D01*
X105353816Y-97411895D01*
X105339109Y-97485836D01*
X105339109Y-97491991D01*
X105336910Y-97491991D01*
X105329286Y-97530304D01*
X105289510Y-97556877D01*
X105273313Y-97556877D01*
X105273313Y-97557280D01*
X105267156Y-97557280D01*
X105193024Y-97572025D01*
X105193020Y-97572027D01*
X105146038Y-97603419D01*
X105031186Y-97718271D01*
X104999794Y-97765253D01*
X104999793Y-97765256D01*
X104997061Y-97778991D01*
X104970484Y-97818764D01*
X104923567Y-97828095D01*
X104891568Y-97810990D01*
X104777605Y-97697027D01*
X104759299Y-97652833D01*
X104760499Y-97640648D01*
X104777061Y-97557385D01*
X104776711Y-97555627D01*
X104760890Y-97476086D01*
X104756300Y-97453011D01*
X104712102Y-97386865D01*
X104434424Y-97109187D01*
X104368278Y-97064989D01*
X104368277Y-97064988D01*
X104368276Y-97064988D01*
X104362589Y-97062632D01*
X104362831Y-97062047D01*
X104336370Y-97047902D01*
X104169806Y-96881338D01*
X104151500Y-96837144D01*
X104151500Y-96836136D01*
X104472505Y-96836136D01*
X104472505Y-96836137D01*
X104493226Y-96940315D01*
X104493228Y-96940318D01*
X104537340Y-97006335D01*
X104537344Y-97006340D01*
X104814948Y-97283944D01*
X104814953Y-97283948D01*
X104880970Y-97328060D01*
X104880973Y-97328062D01*
X104985151Y-97348784D01*
X104985153Y-97348784D01*
X105089330Y-97328062D01*
X105089333Y-97328060D01*
X105155350Y-97283948D01*
X105155355Y-97283944D01*
X105183142Y-97256158D01*
X105152405Y-97225421D01*
X105537072Y-97225421D01*
X105841680Y-97530029D01*
X105931481Y-97440227D01*
X105741508Y-97250254D01*
X105694648Y-97218941D01*
X105694649Y-97218941D01*
X105620710Y-97204235D01*
X105546769Y-97218942D01*
X105537072Y-97225421D01*
X105152405Y-97225421D01*
X105129332Y-97202348D01*
X106049983Y-97202348D01*
X106145841Y-97298206D01*
X106159389Y-97318482D01*
X106178724Y-97365160D01*
X106179487Y-97368998D01*
X106183328Y-97369762D01*
X106230006Y-97389097D01*
X106250282Y-97402645D01*
X106320806Y-97473169D01*
X106416540Y-97377435D01*
X106145718Y-97106613D01*
X106049983Y-97202348D01*
X105129332Y-97202348D01*
X104784334Y-96857350D01*
X105143544Y-96857350D01*
X105362747Y-97076553D01*
X105390533Y-97048766D01*
X105390537Y-97048761D01*
X105434649Y-96982744D01*
X105434651Y-96982741D01*
X105455373Y-96878563D01*
X105455373Y-96878562D01*
X105434651Y-96774384D01*
X105434649Y-96774381D01*
X105390537Y-96708364D01*
X105390533Y-96708359D01*
X105366407Y-96684233D01*
X105670072Y-96684233D01*
X105672213Y-96689402D01*
X105674279Y-96695175D01*
X105677901Y-96707115D01*
X105679391Y-96713065D01*
X105704949Y-96841557D01*
X105705849Y-96847624D01*
X105707072Y-96860042D01*
X105707373Y-96866168D01*
X105707373Y-96890958D01*
X105707072Y-96897084D01*
X105705849Y-96909502D01*
X105704949Y-96915569D01*
X105695672Y-96962208D01*
X105755969Y-96974202D01*
X105761920Y-96975692D01*
X105773863Y-96979315D01*
X105779640Y-96981382D01*
X105802544Y-96990870D01*
X105808089Y-96993493D01*
X105819094Y-96999376D01*
X105824354Y-97002529D01*
X105865756Y-97030194D01*
X105967528Y-96928423D01*
X106323909Y-96928423D01*
X106594731Y-97199245D01*
X106865554Y-96928423D01*
X106818196Y-96881065D01*
X106812020Y-96879837D01*
X106806070Y-96878347D01*
X106794130Y-96874725D01*
X106788357Y-96872659D01*
X106765454Y-96863173D01*
X106759907Y-96860550D01*
X106748901Y-96854667D01*
X106743640Y-96851513D01*
X106662165Y-96797071D01*
X106659662Y-96795309D01*
X106654652Y-96791594D01*
X106652228Y-96789702D01*
X106642662Y-96781851D01*
X106640337Y-96779846D01*
X106635718Y-96775659D01*
X106633500Y-96773546D01*
X106565169Y-96705215D01*
X106557938Y-96694393D01*
X106323909Y-96928423D01*
X105967528Y-96928423D01*
X105696705Y-96657600D01*
X105670072Y-96684233D01*
X105366407Y-96684233D01*
X105341534Y-96659360D01*
X105143544Y-96857350D01*
X104784334Y-96857350D01*
X104565131Y-96638147D01*
X104537344Y-96665933D01*
X104537340Y-96665938D01*
X104493228Y-96731955D01*
X104493226Y-96731958D01*
X104472505Y-96836136D01*
X104151500Y-96836136D01*
X104151500Y-96458542D01*
X104744736Y-96458542D01*
X104963939Y-96677745D01*
X105161929Y-96479755D01*
X105161584Y-96479410D01*
X105874896Y-96479410D01*
X106145718Y-96750233D01*
X106332758Y-96563193D01*
X106779528Y-96563193D01*
X106807314Y-96590979D01*
X106807319Y-96590983D01*
X106873336Y-96635095D01*
X106873339Y-96635097D01*
X106977517Y-96655819D01*
X106977519Y-96655819D01*
X107081696Y-96635097D01*
X107081699Y-96635095D01*
X107147716Y-96590983D01*
X107147721Y-96590979D01*
X107425325Y-96313375D01*
X107425329Y-96313370D01*
X107469441Y-96247353D01*
X107469443Y-96247350D01*
X107490165Y-96143172D01*
X107490165Y-96143171D01*
X107469443Y-96038993D01*
X107469441Y-96038990D01*
X107463699Y-96030397D01*
X108119960Y-96030397D01*
X108390783Y-96301220D01*
X108661605Y-96030398D01*
X109017986Y-96030398D01*
X109288808Y-96301220D01*
X109559630Y-96030398D01*
X109916012Y-96030398D01*
X110186834Y-96301220D01*
X110457656Y-96030398D01*
X110814037Y-96030398D01*
X111084859Y-96301220D01*
X111355682Y-96030398D01*
X111712063Y-96030398D01*
X111982885Y-96301220D01*
X112253707Y-96030398D01*
X112610089Y-96030398D01*
X112880911Y-96301220D01*
X113151733Y-96030398D01*
X113508114Y-96030398D01*
X113778936Y-96301220D01*
X114049758Y-96030398D01*
X114406140Y-96030398D01*
X114676962Y-96301220D01*
X114947784Y-96030398D01*
X115304165Y-96030398D01*
X115574987Y-96301220D01*
X115845810Y-96030398D01*
X115845809Y-96030397D01*
X116202190Y-96030397D01*
X116473013Y-96301220D01*
X116743835Y-96030398D01*
X116649325Y-95935888D01*
X116589131Y-95966559D01*
X116570533Y-95972602D01*
X116459777Y-95990144D01*
X116440223Y-95990144D01*
X116329467Y-95972602D01*
X116310869Y-95966559D01*
X116281164Y-95951423D01*
X116202190Y-96030397D01*
X115845809Y-96030397D01*
X115574987Y-95759575D01*
X115304165Y-96030398D01*
X114947784Y-96030398D01*
X114676962Y-95759576D01*
X114406140Y-96030398D01*
X114049758Y-96030398D01*
X113778936Y-95759575D01*
X113508114Y-96030398D01*
X113151733Y-96030398D01*
X112880911Y-95759576D01*
X112610089Y-96030398D01*
X112253707Y-96030398D01*
X111982885Y-95759576D01*
X111712063Y-96030398D01*
X111355682Y-96030398D01*
X111084859Y-95759575D01*
X110814037Y-96030398D01*
X110457656Y-96030398D01*
X110186834Y-95759576D01*
X109916012Y-96030398D01*
X109559630Y-96030398D01*
X109288808Y-95759575D01*
X109017986Y-96030398D01*
X108661605Y-96030398D01*
X108590970Y-95959763D01*
X108499131Y-96006559D01*
X108480533Y-96012602D01*
X108369777Y-96030144D01*
X108350223Y-96030144D01*
X108239467Y-96012602D01*
X108220869Y-96006559D01*
X108169813Y-95980544D01*
X108119960Y-96030397D01*
X107463699Y-96030397D01*
X107425329Y-95972973D01*
X107425325Y-95972968D01*
X107397539Y-95945182D01*
X106779528Y-96563193D01*
X106332758Y-96563193D01*
X106378665Y-96517286D01*
X106373414Y-96510888D01*
X106371522Y-96508464D01*
X106367807Y-96503454D01*
X106366045Y-96500951D01*
X106311603Y-96419476D01*
X106308449Y-96414215D01*
X106302566Y-96403209D01*
X106299943Y-96397662D01*
X106290457Y-96374759D01*
X106288391Y-96368986D01*
X106284769Y-96357046D01*
X106283279Y-96351098D01*
X106282049Y-96344919D01*
X106145718Y-96208588D01*
X105874896Y-96479410D01*
X105161584Y-96479410D01*
X105112929Y-96430755D01*
X105112924Y-96430751D01*
X105046907Y-96386639D01*
X105046904Y-96386637D01*
X104942727Y-96365916D01*
X104942725Y-96365916D01*
X104838547Y-96386637D01*
X104838544Y-96386639D01*
X104772527Y-96430751D01*
X104772522Y-96430755D01*
X104744736Y-96458542D01*
X104151500Y-96458542D01*
X104151500Y-96393911D01*
X104169806Y-96349717D01*
X104342927Y-96176596D01*
X104699307Y-96176596D01*
X104708849Y-96170221D01*
X104714109Y-96167068D01*
X104725115Y-96161185D01*
X104730662Y-96158562D01*
X104753565Y-96149076D01*
X104759338Y-96147010D01*
X104771278Y-96143388D01*
X104777228Y-96141898D01*
X104905720Y-96116340D01*
X104911787Y-96115440D01*
X104924205Y-96114217D01*
X104930331Y-96113916D01*
X104955121Y-96113916D01*
X104961247Y-96114217D01*
X104973665Y-96115440D01*
X104979731Y-96116340D01*
X104982924Y-96116975D01*
X105069501Y-96030398D01*
X105425884Y-96030398D01*
X105696706Y-96301220D01*
X105812329Y-96185597D01*
X106507297Y-96185597D01*
X106507297Y-96185598D01*
X106528018Y-96289776D01*
X106528020Y-96289779D01*
X106572132Y-96355796D01*
X106572136Y-96355801D01*
X106599923Y-96383588D01*
X106819126Y-96164385D01*
X106621136Y-95966395D01*
X106572136Y-96015394D01*
X106572132Y-96015399D01*
X106528020Y-96081416D01*
X106528018Y-96081419D01*
X106507297Y-96185597D01*
X105812329Y-96185597D01*
X105967528Y-96030398D01*
X105696706Y-95759576D01*
X105425884Y-96030398D01*
X105069501Y-96030398D01*
X105069502Y-96030397D01*
X104957504Y-95918399D01*
X104699307Y-96176596D01*
X104342927Y-96176596D01*
X104779314Y-95740209D01*
X105135695Y-95740209D01*
X105247693Y-95852207D01*
X105518515Y-95581385D01*
X105874896Y-95581385D01*
X106145718Y-95852207D01*
X106211135Y-95786790D01*
X106800741Y-95786790D01*
X106998731Y-95984780D01*
X107217934Y-95765577D01*
X107190147Y-95737790D01*
X107190142Y-95737786D01*
X107124125Y-95693674D01*
X107124122Y-95693672D01*
X107019945Y-95672951D01*
X107019943Y-95672951D01*
X106915765Y-95693672D01*
X106915762Y-95693674D01*
X106849745Y-95737786D01*
X106849740Y-95737790D01*
X106800741Y-95786790D01*
X106211135Y-95786790D01*
X106416541Y-95581385D01*
X107670948Y-95581385D01*
X107941769Y-95852206D01*
X107990918Y-95803057D01*
X107963441Y-95749130D01*
X107957398Y-95730533D01*
X107939856Y-95619777D01*
X107939856Y-95600223D01*
X107957398Y-95489467D01*
X107963441Y-95470869D01*
X107989456Y-95419812D01*
X108730544Y-95419812D01*
X108756559Y-95470869D01*
X108762602Y-95489467D01*
X108780144Y-95600223D01*
X108780144Y-95619777D01*
X108762602Y-95730533D01*
X108756559Y-95749131D01*
X108749862Y-95762273D01*
X108839796Y-95852207D01*
X109110618Y-95581385D01*
X109466999Y-95581385D01*
X109737821Y-95852207D01*
X110008643Y-95581385D01*
X110365025Y-95581385D01*
X110635847Y-95852207D01*
X110906669Y-95581385D01*
X111263050Y-95581385D01*
X111533872Y-95852207D01*
X111804694Y-95581385D01*
X112161076Y-95581385D01*
X112431898Y-95852207D01*
X112702720Y-95581385D01*
X113059101Y-95581385D01*
X113329923Y-95852207D01*
X113600746Y-95581385D01*
X113957127Y-95581385D01*
X114227949Y-95852207D01*
X114498771Y-95581385D01*
X114855153Y-95581385D01*
X115125975Y-95852207D01*
X115396797Y-95581385D01*
X115753178Y-95581385D01*
X116023999Y-95852206D01*
X116091797Y-95784408D01*
X116076261Y-95753918D01*
X116823737Y-95753918D01*
X116920500Y-95850681D01*
X116920500Y-95683867D01*
X116920575Y-95680800D01*
X116920881Y-95674571D01*
X116921107Y-95671513D01*
X116922320Y-95659196D01*
X116922696Y-95656147D01*
X116923611Y-95649981D01*
X116924135Y-95646962D01*
X116939509Y-95569670D01*
X116940999Y-95563722D01*
X116944620Y-95551784D01*
X116946686Y-95546010D01*
X116955387Y-95524999D01*
X116946686Y-95503988D01*
X116944620Y-95498214D01*
X116940999Y-95486276D01*
X116939509Y-95480328D01*
X116924135Y-95403036D01*
X116923611Y-95400017D01*
X116922696Y-95393851D01*
X116922320Y-95390802D01*
X116921107Y-95378485D01*
X116920881Y-95375427D01*
X116920575Y-95369198D01*
X116920500Y-95366131D01*
X116920500Y-95312088D01*
X116831423Y-95401164D01*
X116846559Y-95430869D01*
X116852602Y-95449467D01*
X116870144Y-95560223D01*
X116870144Y-95579777D01*
X116852602Y-95690533D01*
X116846559Y-95709131D01*
X116823737Y-95753918D01*
X116076261Y-95753918D01*
X116053441Y-95709131D01*
X116047398Y-95690533D01*
X116029856Y-95579777D01*
X116029856Y-95560223D01*
X116047398Y-95449467D01*
X116053441Y-95430869D01*
X116084111Y-95370674D01*
X116024000Y-95310563D01*
X115753178Y-95581385D01*
X115396797Y-95581385D01*
X115125975Y-95310563D01*
X114855153Y-95581385D01*
X114498771Y-95581385D01*
X114227949Y-95310563D01*
X113957127Y-95581385D01*
X113600746Y-95581385D01*
X113329923Y-95310562D01*
X113059101Y-95581385D01*
X112702720Y-95581385D01*
X112431898Y-95310563D01*
X112161076Y-95581385D01*
X111804694Y-95581385D01*
X111533872Y-95310562D01*
X111263050Y-95581385D01*
X110906669Y-95581385D01*
X110635847Y-95310563D01*
X110365025Y-95581385D01*
X110008643Y-95581385D01*
X109737821Y-95310563D01*
X109466999Y-95581385D01*
X109110618Y-95581385D01*
X108839795Y-95310562D01*
X108730544Y-95419812D01*
X107989456Y-95419812D01*
X108010236Y-95379029D01*
X107941770Y-95310563D01*
X107670948Y-95581385D01*
X106416541Y-95581385D01*
X106271443Y-95436287D01*
X106918019Y-95436287D01*
X106982938Y-95423375D01*
X106989005Y-95422475D01*
X107001423Y-95421252D01*
X107007549Y-95420951D01*
X107032339Y-95420951D01*
X107038465Y-95421252D01*
X107050883Y-95422475D01*
X107056950Y-95423375D01*
X107181288Y-95448106D01*
X107043744Y-95310562D01*
X106918019Y-95436287D01*
X106271443Y-95436287D01*
X106145718Y-95310562D01*
X105874896Y-95581385D01*
X105518515Y-95581385D01*
X105406517Y-95469387D01*
X105135695Y-95740209D01*
X104779314Y-95740209D01*
X105228327Y-95291196D01*
X105584708Y-95291196D01*
X105696706Y-95403194D01*
X105926400Y-95173500D01*
X106365037Y-95173500D01*
X106594731Y-95403194D01*
X106824426Y-95173500D01*
X107263063Y-95173500D01*
X107492757Y-95403194D01*
X107722451Y-95173500D01*
X108161089Y-95173500D01*
X108207726Y-95220137D01*
X108220870Y-95213441D01*
X108239467Y-95207398D01*
X108350223Y-95189856D01*
X108369777Y-95189856D01*
X108480533Y-95207398D01*
X108499130Y-95213441D01*
X108553057Y-95240918D01*
X108620477Y-95173500D01*
X109059114Y-95173500D01*
X109288808Y-95403194D01*
X109518503Y-95173500D01*
X109957140Y-95173500D01*
X110186834Y-95403194D01*
X110416528Y-95173500D01*
X110855165Y-95173500D01*
X111084859Y-95403194D01*
X111314554Y-95173500D01*
X111753191Y-95173500D01*
X111982885Y-95403194D01*
X112212579Y-95173500D01*
X112651217Y-95173500D01*
X112880911Y-95403194D01*
X113110605Y-95173500D01*
X113549242Y-95173500D01*
X113778936Y-95403194D01*
X114008631Y-95173500D01*
X114447268Y-95173500D01*
X114676962Y-95403194D01*
X114906656Y-95173500D01*
X115345293Y-95173500D01*
X115574987Y-95403194D01*
X115804682Y-95173500D01*
X116243319Y-95173500D01*
X116266081Y-95196262D01*
X116310754Y-95173500D01*
X116243319Y-95173500D01*
X115804682Y-95173500D01*
X115345293Y-95173500D01*
X114906656Y-95173500D01*
X114447268Y-95173500D01*
X114008631Y-95173500D01*
X113549242Y-95173500D01*
X113110605Y-95173500D01*
X112651217Y-95173500D01*
X112212579Y-95173500D01*
X111753191Y-95173500D01*
X111314554Y-95173500D01*
X110855165Y-95173500D01*
X110416528Y-95173500D01*
X109957140Y-95173500D01*
X109518503Y-95173500D01*
X109059114Y-95173500D01*
X108620477Y-95173500D01*
X108161089Y-95173500D01*
X107722451Y-95173500D01*
X107263063Y-95173500D01*
X106824426Y-95173500D01*
X106365037Y-95173500D01*
X105926400Y-95173500D01*
X105702405Y-95173500D01*
X105584708Y-95291196D01*
X105228327Y-95291196D01*
X105368785Y-95150738D01*
X116465348Y-95150738D01*
X116570533Y-95167398D01*
X116589131Y-95173441D01*
X116664409Y-95211797D01*
X116743835Y-95132371D01*
X116668361Y-95056897D01*
X116667870Y-95057226D01*
X116664396Y-95059387D01*
X116563105Y-95117867D01*
X116559502Y-95119793D01*
X116552043Y-95123472D01*
X116548310Y-95125163D01*
X116533059Y-95131479D01*
X116529240Y-95132916D01*
X116521368Y-95135589D01*
X116517449Y-95136778D01*
X116465348Y-95150738D01*
X105368785Y-95150738D01*
X105579717Y-94939806D01*
X105623911Y-94921500D01*
X116347224Y-94921500D01*
X116347225Y-94921500D01*
X116352622Y-94920054D01*
X117172500Y-94920054D01*
X117172500Y-95359943D01*
X117184248Y-95419009D01*
X117184250Y-95419013D01*
X117231867Y-95490276D01*
X117241199Y-95537192D01*
X117231867Y-95559722D01*
X117184250Y-95630984D01*
X117184248Y-95630988D01*
X117172500Y-95690054D01*
X117172500Y-96129943D01*
X117184248Y-96189009D01*
X117184249Y-96189011D01*
X117229006Y-96255993D01*
X117295988Y-96300750D01*
X117355056Y-96312499D01*
X117355057Y-96312499D01*
X117544943Y-96312499D01*
X117544944Y-96312499D01*
X117604012Y-96300750D01*
X117665276Y-96259813D01*
X117712189Y-96250481D01*
X117734720Y-96259812D01*
X117795988Y-96300751D01*
X117855056Y-96312500D01*
X117855057Y-96312500D01*
X118044943Y-96312500D01*
X118044944Y-96312500D01*
X118104012Y-96300751D01*
X118165726Y-96259513D01*
X118212642Y-96250181D01*
X118235172Y-96259513D01*
X118296180Y-96300276D01*
X118296185Y-96300278D01*
X118322999Y-96305611D01*
X118323000Y-96305611D01*
X118323000Y-94744386D01*
X118322999Y-94744386D01*
X118296185Y-94749719D01*
X118296184Y-94749720D01*
X118235172Y-94790485D01*
X118188255Y-94799816D01*
X118165727Y-94790484D01*
X118104014Y-94749248D01*
X118104010Y-94749246D01*
X118044944Y-94737498D01*
X117855056Y-94737498D01*
X117855055Y-94737498D01*
X117795989Y-94749246D01*
X117795985Y-94749248D01*
X117734722Y-94790183D01*
X117687806Y-94799515D01*
X117665276Y-94790183D01*
X117604014Y-94749249D01*
X117604010Y-94749247D01*
X117544944Y-94737499D01*
X117355056Y-94737499D01*
X117355055Y-94737499D01*
X117295989Y-94749247D01*
X117295988Y-94749248D01*
X117229006Y-94794005D01*
X117184249Y-94860987D01*
X117184248Y-94860988D01*
X117172500Y-94920054D01*
X116352622Y-94920054D01*
X116444254Y-94895501D01*
X116531247Y-94845276D01*
X116602276Y-94774247D01*
X116602276Y-94774246D01*
X116943615Y-94432907D01*
X117298777Y-94432907D01*
X117351369Y-94485499D01*
X117390709Y-94485499D01*
X117641861Y-94234346D01*
X117635931Y-94228417D01*
X117631101Y-94228893D01*
X117628043Y-94229119D01*
X117621814Y-94229425D01*
X117618747Y-94229500D01*
X117404296Y-94229500D01*
X117404127Y-94230017D01*
X117396779Y-94257446D01*
X117395590Y-94261364D01*
X117392917Y-94269237D01*
X117391478Y-94273061D01*
X117385161Y-94288312D01*
X117383474Y-94292036D01*
X117379796Y-94299495D01*
X117377867Y-94303104D01*
X117319387Y-94404394D01*
X117317230Y-94407863D01*
X117312613Y-94414774D01*
X117310231Y-94418099D01*
X117300183Y-94431196D01*
X117298777Y-94432907D01*
X116943615Y-94432907D01*
X117105275Y-94271247D01*
X117155501Y-94184253D01*
X117161996Y-94160014D01*
X117162927Y-94156870D01*
X117163739Y-94154371D01*
X117164626Y-94150193D01*
X117181500Y-94087225D01*
X117181500Y-94046375D01*
X117182206Y-94037405D01*
X117182206Y-94032723D01*
X117200512Y-93988529D01*
X117244706Y-93970223D01*
X117256895Y-93971423D01*
X117287442Y-93977500D01*
X117287443Y-93977500D01*
X117612557Y-93977500D01*
X117612558Y-93977500D01*
X117649748Y-93970102D01*
X117665277Y-93959725D01*
X117712191Y-93950392D01*
X117734723Y-93959725D01*
X117740409Y-93963524D01*
X117750252Y-93970101D01*
X117787442Y-93977499D01*
X117787443Y-93977499D01*
X118051264Y-93977499D01*
X118095458Y-93995805D01*
X118113764Y-94039999D01*
X118110704Y-94059317D01*
X118110575Y-94059710D01*
X118110574Y-94059714D01*
X118110573Y-94059717D01*
X118110572Y-94059722D01*
X118093106Y-94169996D01*
X118093106Y-94170003D01*
X118110572Y-94280282D01*
X118110574Y-94280287D01*
X118156141Y-94369717D01*
X118161267Y-94379777D01*
X118240223Y-94458733D01*
X118339714Y-94509426D01*
X118339717Y-94509427D01*
X118449997Y-94526894D01*
X118450000Y-94526894D01*
X118450002Y-94526894D01*
X118498707Y-94519179D01*
X118534746Y-94513471D01*
X118581260Y-94524637D01*
X118606254Y-94565423D01*
X118610191Y-94590282D01*
X118610193Y-94590287D01*
X118642809Y-94654299D01*
X118646562Y-94701987D01*
X118615495Y-94738361D01*
X118578026Y-94743543D01*
X118577000Y-94744385D01*
X118577000Y-96305609D01*
X118603815Y-96300278D01*
X118632758Y-96280939D01*
X118679674Y-96271607D01*
X118719448Y-96298183D01*
X118729981Y-96332906D01*
X118729981Y-96359422D01*
X118711675Y-96403616D01*
X118343616Y-96771675D01*
X118299422Y-96789981D01*
X108214422Y-96789981D01*
X108170228Y-96771675D01*
X108153123Y-96739675D01*
X108151587Y-96731955D01*
X108148736Y-96717620D01*
X108104538Y-96651474D01*
X107932475Y-96479411D01*
X108568973Y-96479411D01*
X108627543Y-96537981D01*
X109052048Y-96537981D01*
X109110618Y-96479410D01*
X109466998Y-96479410D01*
X109525569Y-96537981D01*
X109950073Y-96537981D01*
X110008643Y-96479410D01*
X110365024Y-96479410D01*
X110423595Y-96537981D01*
X110848099Y-96537981D01*
X110906669Y-96479410D01*
X111263049Y-96479410D01*
X111321620Y-96537981D01*
X111746125Y-96537981D01*
X111804695Y-96479411D01*
X111804694Y-96479410D01*
X112161075Y-96479410D01*
X112219646Y-96537981D01*
X112644150Y-96537981D01*
X112702719Y-96479411D01*
X113059101Y-96479411D01*
X113117671Y-96537981D01*
X113542176Y-96537981D01*
X113600746Y-96479410D01*
X113957126Y-96479410D01*
X114015697Y-96537981D01*
X114440201Y-96537981D01*
X114498771Y-96479410D01*
X114855152Y-96479410D01*
X114913723Y-96537981D01*
X115338227Y-96537981D01*
X115396797Y-96479410D01*
X115753177Y-96479410D01*
X115811748Y-96537981D01*
X116236253Y-96537981D01*
X116294823Y-96479411D01*
X116294822Y-96479410D01*
X116651203Y-96479410D01*
X116709774Y-96537981D01*
X117134278Y-96537981D01*
X117159577Y-96512681D01*
X117078695Y-96458637D01*
X117073767Y-96454982D01*
X117064122Y-96447066D01*
X117059579Y-96442948D01*
X117042051Y-96425420D01*
X117037933Y-96420877D01*
X117030017Y-96411232D01*
X117026362Y-96406304D01*
X116967832Y-96318708D01*
X116964679Y-96313448D01*
X116958795Y-96302440D01*
X116956172Y-96296892D01*
X116946686Y-96273988D01*
X116944620Y-96268214D01*
X116940999Y-96256276D01*
X116939509Y-96250328D01*
X116933485Y-96220047D01*
X116922026Y-96208588D01*
X116651203Y-96479410D01*
X116294822Y-96479410D01*
X116024000Y-96208588D01*
X115753177Y-96479410D01*
X115396797Y-96479410D01*
X115125975Y-96208588D01*
X114855152Y-96479410D01*
X114498771Y-96479410D01*
X114227949Y-96208588D01*
X113957126Y-96479410D01*
X113600746Y-96479410D01*
X113329923Y-96208588D01*
X113059101Y-96479411D01*
X112702719Y-96479411D01*
X112702720Y-96479410D01*
X112431898Y-96208588D01*
X112161075Y-96479410D01*
X111804694Y-96479410D01*
X111533872Y-96208588D01*
X111263049Y-96479410D01*
X110906669Y-96479410D01*
X110635847Y-96208588D01*
X110365024Y-96479410D01*
X110008643Y-96479410D01*
X109737821Y-96208588D01*
X109466998Y-96479410D01*
X109110618Y-96479410D01*
X108839795Y-96208588D01*
X108568973Y-96479411D01*
X107932475Y-96479411D01*
X107869286Y-96416222D01*
X107803140Y-96372024D01*
X107803139Y-96372023D01*
X107698767Y-96351263D01*
X107698765Y-96351263D01*
X107594393Y-96372023D01*
X107528243Y-96416224D01*
X107250570Y-96693897D01*
X107206369Y-96760047D01*
X107188950Y-96847624D01*
X107185609Y-96864420D01*
X107190887Y-96890958D01*
X107197476Y-96924082D01*
X107188144Y-96970999D01*
X107180371Y-96980469D01*
X106598197Y-97562644D01*
X106595915Y-97566059D01*
X106588148Y-97575521D01*
X106371657Y-97792013D01*
X106327463Y-97810319D01*
X106283269Y-97792013D01*
X106108260Y-97617004D01*
X106018458Y-97706807D01*
X106339684Y-98028033D01*
X106339820Y-98028074D01*
X106340758Y-98029107D01*
X106343968Y-98032317D01*
X106343813Y-98032471D01*
X106352228Y-98041738D01*
X106357009Y-98048893D01*
X106357012Y-98048897D01*
X106471863Y-98163748D01*
X106518848Y-98195142D01*
X106555915Y-98202515D01*
X106592981Y-98209888D01*
X106599138Y-98209888D01*
X106599138Y-98212133D01*
X106637326Y-98219719D01*
X106663913Y-98259485D01*
X106663916Y-98275176D01*
X106664425Y-98275176D01*
X106664425Y-98281332D01*
X106679170Y-98355464D01*
X106679172Y-98355468D01*
X106710564Y-98402450D01*
X106710565Y-98402451D01*
X106825416Y-98517302D01*
X106872401Y-98548696D01*
X106909468Y-98556069D01*
X106946534Y-98563442D01*
X106952691Y-98563442D01*
X106952691Y-98565686D01*
X106990883Y-98573275D01*
X107017467Y-98613043D01*
X107017470Y-98628729D01*
X107017979Y-98628729D01*
X107017979Y-98634885D01*
X107032724Y-98709017D01*
X107032726Y-98709021D01*
X107043838Y-98725651D01*
X107064119Y-98756004D01*
X107178970Y-98870855D01*
X107225955Y-98902249D01*
X107263022Y-98909622D01*
X107300088Y-98916995D01*
X107306245Y-98916995D01*
X107306245Y-98919240D01*
X107344433Y-98926826D01*
X107371020Y-98966592D01*
X107371023Y-98982283D01*
X107371532Y-98982283D01*
X107371532Y-98988439D01*
X107386277Y-99062571D01*
X107386279Y-99062575D01*
X107417671Y-99109557D01*
X107417672Y-99109558D01*
X107532523Y-99224409D01*
X107579508Y-99255803D01*
X107616575Y-99263176D01*
X107653641Y-99270549D01*
X107659798Y-99270549D01*
X107659798Y-99272794D01*
X107697986Y-99280380D01*
X107724573Y-99320146D01*
X107724576Y-99335836D01*
X107725085Y-99335836D01*
X107725085Y-99341992D01*
X107739830Y-99416124D01*
X107739832Y-99416128D01*
X107768812Y-99459500D01*
X107771225Y-99463111D01*
X107886076Y-99577962D01*
X107933061Y-99609356D01*
X107970128Y-99616729D01*
X108007194Y-99624102D01*
X108013351Y-99624102D01*
X108013351Y-99626346D01*
X108051543Y-99633935D01*
X108078127Y-99673703D01*
X108078130Y-99689389D01*
X108078639Y-99689389D01*
X108078639Y-99695545D01*
X108093384Y-99769677D01*
X108093386Y-99769681D01*
X108114106Y-99800691D01*
X108124779Y-99816664D01*
X108239630Y-99931515D01*
X108286615Y-99962909D01*
X108323682Y-99970282D01*
X108360748Y-99977655D01*
X108366905Y-99977655D01*
X108366905Y-99979900D01*
X108405093Y-99987486D01*
X108431680Y-100027252D01*
X108431683Y-100042943D01*
X108432192Y-100042943D01*
X108432192Y-100049099D01*
X108446937Y-100123231D01*
X108446939Y-100123235D01*
X108474409Y-100164347D01*
X108478332Y-100170218D01*
X108593183Y-100285069D01*
X108640168Y-100316463D01*
X108677235Y-100323836D01*
X108714301Y-100331209D01*
X108720458Y-100331209D01*
X108720458Y-100333453D01*
X108758650Y-100341042D01*
X108785234Y-100380810D01*
X108785237Y-100396496D01*
X108785746Y-100396496D01*
X108785746Y-100402652D01*
X108800491Y-100476784D01*
X108800493Y-100476788D01*
X108831885Y-100523770D01*
X108931738Y-100623623D01*
X108950044Y-100667817D01*
X108931738Y-100712011D01*
X108831887Y-100811861D01*
X108831885Y-100811863D01*
X108800493Y-100858845D01*
X108800491Y-100858849D01*
X108785746Y-100932981D01*
X108785746Y-100939138D01*
X108783504Y-100939138D01*
X108775905Y-100977340D01*
X108736131Y-101003916D01*
X108720458Y-101003916D01*
X108720458Y-101004425D01*
X108714301Y-101004425D01*
X108640169Y-101019170D01*
X108640165Y-101019172D01*
X108593183Y-101050564D01*
X108478331Y-101165416D01*
X108446939Y-101212398D01*
X108446937Y-101212402D01*
X108432192Y-101286534D01*
X108432192Y-101292691D01*
X108429951Y-101292691D01*
X108422349Y-101330897D01*
X108382574Y-101357471D01*
X108366905Y-101357470D01*
X108366905Y-101357979D01*
X108360748Y-101357979D01*
X108286616Y-101372724D01*
X108286612Y-101372726D01*
X108239630Y-101404118D01*
X108124778Y-101518970D01*
X108093386Y-101565952D01*
X108093384Y-101565956D01*
X108078639Y-101640088D01*
X108078639Y-101646245D01*
X108076397Y-101646245D01*
X108068798Y-101684447D01*
X108029024Y-101711023D01*
X108013351Y-101711023D01*
X108013351Y-101711532D01*
X108007194Y-101711532D01*
X107933062Y-101726277D01*
X107933058Y-101726279D01*
X107886076Y-101757671D01*
X107771224Y-101872523D01*
X107739832Y-101919505D01*
X107739830Y-101919509D01*
X107725085Y-101993641D01*
X107725085Y-101999798D01*
X107723054Y-101999798D01*
X107715345Y-102038536D01*
X107675569Y-102065107D01*
X107659797Y-102065106D01*
X107659797Y-102065594D01*
X107653642Y-102065594D01*
X107579701Y-102080301D01*
X107570004Y-102086780D01*
X107874613Y-102391389D01*
X108355997Y-102872774D01*
X108355998Y-102872774D01*
X108362476Y-102863081D01*
X108362478Y-102863076D01*
X108377185Y-102789137D01*
X108377185Y-102782982D01*
X108379387Y-102782982D01*
X108386998Y-102744683D01*
X108426766Y-102718099D01*
X108442981Y-102718098D01*
X108442981Y-102717694D01*
X108449138Y-102717694D01*
X108478834Y-102711787D01*
X108523271Y-102702948D01*
X108570256Y-102671554D01*
X108685107Y-102556703D01*
X108716501Y-102509718D01*
X108728700Y-102448391D01*
X109149800Y-102448391D01*
X109288808Y-102587399D01*
X109559630Y-102316576D01*
X109916011Y-102316576D01*
X110186834Y-102587399D01*
X110457656Y-102316577D01*
X110814037Y-102316577D01*
X111084859Y-102587399D01*
X111355682Y-102316577D01*
X111712063Y-102316577D01*
X111927500Y-102532014D01*
X111927500Y-102101140D01*
X111712063Y-102316577D01*
X111355682Y-102316577D01*
X111084859Y-102045754D01*
X110814037Y-102316577D01*
X110457656Y-102316577D01*
X110374513Y-102233434D01*
X110329131Y-102256559D01*
X110310533Y-102262602D01*
X110199777Y-102280144D01*
X110180223Y-102280144D01*
X110069467Y-102262602D01*
X110050869Y-102256559D01*
X110001290Y-102231297D01*
X109916011Y-102316576D01*
X109559630Y-102316576D01*
X109417165Y-102174111D01*
X109360074Y-102212259D01*
X109354812Y-102215413D01*
X109343805Y-102221296D01*
X109338259Y-102223918D01*
X109315355Y-102233404D01*
X109309657Y-102235442D01*
X109307618Y-102241142D01*
X109298132Y-102264046D01*
X109295510Y-102269592D01*
X109289627Y-102280599D01*
X109286473Y-102285861D01*
X109244753Y-102348299D01*
X109242985Y-102350809D01*
X109239269Y-102355819D01*
X109237384Y-102358234D01*
X109229533Y-102367801D01*
X109227526Y-102370129D01*
X109223339Y-102374748D01*
X109221226Y-102376966D01*
X109149800Y-102448391D01*
X108728700Y-102448391D01*
X108731247Y-102435584D01*
X108731247Y-102429428D01*
X108733492Y-102429428D01*
X108741080Y-102391236D01*
X108780848Y-102364652D01*
X108796535Y-102364651D01*
X108796535Y-102364141D01*
X108802692Y-102364141D01*
X108832388Y-102358234D01*
X108876825Y-102349395D01*
X108923810Y-102318001D01*
X109038661Y-102203150D01*
X109070055Y-102156165D01*
X109084801Y-102082031D01*
X109084801Y-102075875D01*
X109087045Y-102075875D01*
X109094636Y-102037679D01*
X109134405Y-102011097D01*
X109150088Y-102011097D01*
X109150088Y-102010587D01*
X109156245Y-102010587D01*
X109180955Y-102005671D01*
X109223716Y-101997166D01*
X109596600Y-101997166D01*
X109737820Y-102138386D01*
X109817476Y-102058730D01*
X110556191Y-102058730D01*
X110635847Y-102138386D01*
X110906669Y-101867564D01*
X111263049Y-101867564D01*
X111533872Y-102138386D01*
X111804694Y-101867564D01*
X111533872Y-101596741D01*
X111263049Y-101867564D01*
X110906669Y-101867564D01*
X110635846Y-101596741D01*
X110561297Y-101671290D01*
X110586559Y-101720869D01*
X110592602Y-101739467D01*
X110610144Y-101850223D01*
X110610144Y-101869777D01*
X110592602Y-101980533D01*
X110586559Y-101999131D01*
X110556191Y-102058730D01*
X109817476Y-102058730D01*
X109821671Y-102054535D01*
X109793441Y-101999130D01*
X109787398Y-101980533D01*
X109769856Y-101869777D01*
X109769856Y-101850223D01*
X109775008Y-101817692D01*
X109713628Y-101858706D01*
X109708366Y-101861860D01*
X109697359Y-101867743D01*
X109691813Y-101870365D01*
X109668909Y-101879851D01*
X109663209Y-101881890D01*
X109661171Y-101887588D01*
X109651685Y-101910492D01*
X109649063Y-101916038D01*
X109643180Y-101927045D01*
X109640026Y-101932307D01*
X109598306Y-101994745D01*
X109596600Y-101997166D01*
X109223716Y-101997166D01*
X109230378Y-101995841D01*
X109277363Y-101964447D01*
X109392214Y-101849596D01*
X109423608Y-101802611D01*
X109438354Y-101728477D01*
X109438354Y-101728476D01*
X109438354Y-101722321D01*
X109440599Y-101722321D01*
X109448187Y-101684129D01*
X109487955Y-101657545D01*
X109503642Y-101657544D01*
X109503642Y-101657034D01*
X109509799Y-101657034D01*
X109534509Y-101652118D01*
X109583932Y-101642288D01*
X109630917Y-101610894D01*
X109745768Y-101496043D01*
X109760115Y-101474571D01*
X110029023Y-101474571D01*
X110050869Y-101463441D01*
X110069467Y-101457398D01*
X110180223Y-101439856D01*
X110199777Y-101439856D01*
X110310533Y-101457398D01*
X110329130Y-101463441D01*
X110384535Y-101491671D01*
X110457654Y-101418551D01*
X110814037Y-101418551D01*
X111084859Y-101689373D01*
X111355682Y-101418551D01*
X111712062Y-101418551D01*
X111941646Y-101648135D01*
X111972331Y-101533620D01*
X111973519Y-101529703D01*
X111976192Y-101521830D01*
X111977631Y-101518006D01*
X111983948Y-101502755D01*
X111985635Y-101499031D01*
X111989313Y-101491572D01*
X111991242Y-101487963D01*
X112065388Y-101359539D01*
X112067545Y-101356070D01*
X112072162Y-101349159D01*
X112074544Y-101345834D01*
X112084592Y-101332737D01*
X112087192Y-101329570D01*
X112092678Y-101323315D01*
X112095472Y-101320332D01*
X112125480Y-101290324D01*
X111982885Y-101147729D01*
X111712062Y-101418551D01*
X111355682Y-101418551D01*
X111084859Y-101147728D01*
X110814037Y-101418551D01*
X110457654Y-101418551D01*
X110457655Y-101418550D01*
X110186833Y-101147728D01*
X110034044Y-101300517D01*
X110041484Y-101337918D01*
X110042384Y-101343985D01*
X110043607Y-101356403D01*
X110043908Y-101362529D01*
X110043908Y-101387319D01*
X110043607Y-101393445D01*
X110042384Y-101405863D01*
X110041484Y-101411930D01*
X110029023Y-101474571D01*
X109760115Y-101474571D01*
X109777162Y-101449058D01*
X109791908Y-101374924D01*
X109791470Y-101372724D01*
X109777162Y-101300790D01*
X109777162Y-101300789D01*
X109745768Y-101253805D01*
X109286059Y-100794096D01*
X109642440Y-100794096D01*
X109913262Y-101064918D01*
X110008642Y-100969538D01*
X110365024Y-100969538D01*
X110635847Y-101240361D01*
X110906669Y-100969538D01*
X111263049Y-100969538D01*
X111533872Y-101240361D01*
X111804694Y-100969538D01*
X112161075Y-100969538D01*
X112303670Y-101112133D01*
X112574492Y-100841310D01*
X112431897Y-100698716D01*
X112161075Y-100969538D01*
X111804694Y-100969538D01*
X111533872Y-100698716D01*
X111263049Y-100969538D01*
X110906669Y-100969538D01*
X110635847Y-100698716D01*
X110365024Y-100969538D01*
X110008642Y-100969538D01*
X109737820Y-100698715D01*
X109642440Y-100794096D01*
X109286059Y-100794096D01*
X109203974Y-100712011D01*
X109185668Y-100667817D01*
X109203974Y-100623623D01*
X109307071Y-100520526D01*
X109916012Y-100520526D01*
X110186834Y-100791348D01*
X110457656Y-100520526D01*
X110814037Y-100520526D01*
X111084859Y-100791348D01*
X111355682Y-100520526D01*
X111712063Y-100520526D01*
X111982885Y-100791348D01*
X112253707Y-100520526D01*
X112610089Y-100520526D01*
X112752683Y-100663120D01*
X113023505Y-100392298D01*
X112880911Y-100249704D01*
X112610089Y-100520526D01*
X112253707Y-100520526D01*
X111982885Y-100249704D01*
X111712063Y-100520526D01*
X111355682Y-100520526D01*
X111084859Y-100249703D01*
X110814037Y-100520526D01*
X110457656Y-100520526D01*
X110186834Y-100249704D01*
X109916012Y-100520526D01*
X109307071Y-100520526D01*
X109469399Y-100358198D01*
X109745768Y-100081829D01*
X109752661Y-100071513D01*
X110365025Y-100071513D01*
X110635847Y-100342335D01*
X110906669Y-100071513D01*
X111263050Y-100071513D01*
X111533872Y-100342335D01*
X111804694Y-100071513D01*
X112161076Y-100071513D01*
X112431898Y-100342335D01*
X112702720Y-100071513D01*
X112702719Y-100071512D01*
X113059101Y-100071512D01*
X113201695Y-100214107D01*
X113472518Y-99943285D01*
X113329923Y-99800690D01*
X113059101Y-100071512D01*
X112702719Y-100071512D01*
X112431898Y-99800691D01*
X112161076Y-100071513D01*
X111804694Y-100071513D01*
X111533872Y-99800690D01*
X111263050Y-100071513D01*
X110906669Y-100071513D01*
X110635847Y-99800691D01*
X110365025Y-100071513D01*
X109752661Y-100071513D01*
X109777162Y-100034845D01*
X109791908Y-99960710D01*
X109777162Y-99886576D01*
X109745768Y-99839591D01*
X109630917Y-99724740D01*
X109630916Y-99724739D01*
X109583934Y-99693347D01*
X109583930Y-99693345D01*
X109509799Y-99678600D01*
X109503642Y-99678600D01*
X109503642Y-99676359D01*
X109465432Y-99668755D01*
X109438861Y-99628978D01*
X109438862Y-99622500D01*
X109916011Y-99622500D01*
X110186834Y-99893322D01*
X110457656Y-99622500D01*
X110814037Y-99622500D01*
X111084859Y-99893322D01*
X111355682Y-99622500D01*
X111712062Y-99622500D01*
X111982885Y-99893322D01*
X112253707Y-99622500D01*
X112610088Y-99622500D01*
X112880911Y-99893322D01*
X113151733Y-99622500D01*
X113508113Y-99622500D01*
X113650708Y-99765094D01*
X113921530Y-99494272D01*
X113778936Y-99351677D01*
X113508113Y-99622500D01*
X113151733Y-99622500D01*
X112880911Y-99351678D01*
X112610088Y-99622500D01*
X112253707Y-99622500D01*
X111982885Y-99351678D01*
X111712062Y-99622500D01*
X111355682Y-99622500D01*
X111084859Y-99351677D01*
X110814037Y-99622500D01*
X110457656Y-99622500D01*
X110186834Y-99351678D01*
X109916011Y-99622500D01*
X109438862Y-99622500D01*
X109438864Y-99613313D01*
X109438354Y-99613313D01*
X109438354Y-99607156D01*
X109423608Y-99533024D01*
X109423606Y-99533020D01*
X109392214Y-99486038D01*
X109277362Y-99371186D01*
X109230380Y-99339794D01*
X109230376Y-99339792D01*
X109156245Y-99325047D01*
X109150088Y-99325047D01*
X109150088Y-99322805D01*
X109111882Y-99315204D01*
X109085308Y-99275429D01*
X109085311Y-99259759D01*
X109084801Y-99259759D01*
X109084801Y-99253602D01*
X109076772Y-99213236D01*
X109070055Y-99179469D01*
X109066058Y-99173487D01*
X109466998Y-99173487D01*
X109737821Y-99444309D01*
X110008643Y-99173487D01*
X110365024Y-99173487D01*
X110635847Y-99444309D01*
X110906669Y-99173487D01*
X111263049Y-99173487D01*
X111533872Y-99444309D01*
X111804694Y-99173487D01*
X112161075Y-99173487D01*
X112431898Y-99444309D01*
X112702720Y-99173487D01*
X113059101Y-99173487D01*
X113329923Y-99444309D01*
X113600746Y-99173487D01*
X113957126Y-99173487D01*
X114099721Y-99316081D01*
X114340333Y-99075471D01*
X114343316Y-99072676D01*
X114349570Y-99067191D01*
X114352737Y-99064592D01*
X114365834Y-99054544D01*
X114369159Y-99052162D01*
X114374127Y-99048843D01*
X114227949Y-98902665D01*
X113957126Y-99173487D01*
X113600746Y-99173487D01*
X113329923Y-98902664D01*
X113059101Y-99173487D01*
X112702720Y-99173487D01*
X112431898Y-98902665D01*
X112161075Y-99173487D01*
X111804694Y-99173487D01*
X111533872Y-98902664D01*
X111263049Y-99173487D01*
X110906669Y-99173487D01*
X110635847Y-98902665D01*
X110365024Y-99173487D01*
X110008643Y-99173487D01*
X109737821Y-98902665D01*
X109466998Y-99173487D01*
X109066058Y-99173487D01*
X109038661Y-99132484D01*
X108923810Y-99017633D01*
X108919955Y-99015057D01*
X108876827Y-98986240D01*
X108876823Y-98986238D01*
X108802692Y-98971493D01*
X108796535Y-98971493D01*
X108796535Y-98969252D01*
X108758325Y-98961648D01*
X108731754Y-98921871D01*
X108731757Y-98906206D01*
X108731247Y-98906206D01*
X108731247Y-98900049D01*
X108716501Y-98825917D01*
X108716499Y-98825913D01*
X108685107Y-98778931D01*
X108630650Y-98724474D01*
X109017985Y-98724474D01*
X109288808Y-98995297D01*
X109559630Y-98724474D01*
X109916011Y-98724474D01*
X110186834Y-98995297D01*
X110457656Y-98724474D01*
X110814037Y-98724474D01*
X111084859Y-98995297D01*
X111355682Y-98724474D01*
X111712062Y-98724474D01*
X111982885Y-98995297D01*
X112253707Y-98724474D01*
X112610088Y-98724474D01*
X112880911Y-98995297D01*
X113151733Y-98724474D01*
X113508113Y-98724474D01*
X113778936Y-98995297D01*
X114049758Y-98724474D01*
X114406139Y-98724474D01*
X114617009Y-98935344D01*
X114696860Y-98913949D01*
X114700842Y-98913021D01*
X114709001Y-98911398D01*
X114713040Y-98910731D01*
X114729407Y-98908577D01*
X114733479Y-98908177D01*
X114741773Y-98907634D01*
X114745856Y-98907500D01*
X114764759Y-98907500D01*
X114947784Y-98724474D01*
X115304165Y-98724474D01*
X115487191Y-98907500D01*
X115662785Y-98907500D01*
X115845810Y-98724474D01*
X116202190Y-98724474D01*
X116385216Y-98907500D01*
X116560810Y-98907500D01*
X116743835Y-98724474D01*
X117100216Y-98724474D01*
X117283242Y-98907500D01*
X117458836Y-98907500D01*
X117641861Y-98724474D01*
X117998241Y-98724474D01*
X118181267Y-98907500D01*
X118356861Y-98907500D01*
X118539886Y-98724474D01*
X118896267Y-98724474D01*
X119079293Y-98907500D01*
X119254887Y-98907500D01*
X119437912Y-98724474D01*
X119794293Y-98724474D01*
X119977319Y-98907500D01*
X120152913Y-98907500D01*
X120335938Y-98724474D01*
X120692318Y-98724474D01*
X120875344Y-98907500D01*
X121050938Y-98907500D01*
X121233963Y-98724474D01*
X120963141Y-98453652D01*
X120692318Y-98724474D01*
X120335938Y-98724474D01*
X120065115Y-98453652D01*
X119794293Y-98724474D01*
X119437912Y-98724474D01*
X119167090Y-98453652D01*
X118896267Y-98724474D01*
X118539886Y-98724474D01*
X118269064Y-98453652D01*
X117998241Y-98724474D01*
X117641861Y-98724474D01*
X117371039Y-98453652D01*
X117100216Y-98724474D01*
X116743835Y-98724474D01*
X116473013Y-98453652D01*
X116202190Y-98724474D01*
X115845810Y-98724474D01*
X115574987Y-98453652D01*
X115304165Y-98724474D01*
X114947784Y-98724474D01*
X114676962Y-98453652D01*
X114406139Y-98724474D01*
X114049758Y-98724474D01*
X113778936Y-98453652D01*
X113508113Y-98724474D01*
X113151733Y-98724474D01*
X112880911Y-98453652D01*
X112610088Y-98724474D01*
X112253707Y-98724474D01*
X111982885Y-98453652D01*
X111712062Y-98724474D01*
X111355682Y-98724474D01*
X111084859Y-98453652D01*
X110814037Y-98724474D01*
X110457656Y-98724474D01*
X110186834Y-98453652D01*
X109916011Y-98724474D01*
X109559630Y-98724474D01*
X109288808Y-98453652D01*
X109017985Y-98724474D01*
X108630650Y-98724474D01*
X108570255Y-98664079D01*
X108523273Y-98632687D01*
X108523269Y-98632685D01*
X108449138Y-98617940D01*
X108442981Y-98617940D01*
X108442981Y-98615698D01*
X108404775Y-98608097D01*
X108378201Y-98568322D01*
X108378204Y-98552653D01*
X108377694Y-98552653D01*
X108377694Y-98546496D01*
X108362948Y-98472364D01*
X108362946Y-98472360D01*
X108331554Y-98425378D01*
X108216702Y-98310526D01*
X108169720Y-98279134D01*
X108169718Y-98279133D01*
X108154262Y-98276058D01*
X108151266Y-98275462D01*
X108568973Y-98275462D01*
X108839795Y-98546284D01*
X109110618Y-98275462D01*
X109466999Y-98275462D01*
X109737821Y-98546284D01*
X110008643Y-98275462D01*
X110365025Y-98275462D01*
X110635847Y-98546284D01*
X110906669Y-98275462D01*
X111263050Y-98275462D01*
X111533872Y-98546284D01*
X111804694Y-98275462D01*
X112161076Y-98275462D01*
X112431898Y-98546284D01*
X112702720Y-98275462D01*
X113059101Y-98275462D01*
X113329923Y-98546284D01*
X113600746Y-98275462D01*
X113957127Y-98275462D01*
X114227949Y-98546284D01*
X114498771Y-98275462D01*
X114855153Y-98275462D01*
X115125975Y-98546284D01*
X115396797Y-98275462D01*
X115753178Y-98275462D01*
X116024000Y-98546284D01*
X116294822Y-98275462D01*
X116651204Y-98275462D01*
X116922026Y-98546284D01*
X117192848Y-98275462D01*
X117549229Y-98275462D01*
X117820051Y-98546284D01*
X118090874Y-98275462D01*
X118447255Y-98275462D01*
X118718077Y-98546284D01*
X118988899Y-98275462D01*
X119345281Y-98275462D01*
X119616103Y-98546284D01*
X119886925Y-98275462D01*
X120243306Y-98275462D01*
X120514128Y-98546284D01*
X120784951Y-98275462D01*
X121141332Y-98275462D01*
X121412154Y-98546284D01*
X121682976Y-98275462D01*
X121412154Y-98004640D01*
X121141332Y-98275462D01*
X120784951Y-98275462D01*
X120514128Y-98004639D01*
X120243306Y-98275462D01*
X119886925Y-98275462D01*
X119616103Y-98004640D01*
X119345281Y-98275462D01*
X118988899Y-98275462D01*
X118718077Y-98004639D01*
X118447255Y-98275462D01*
X118090874Y-98275462D01*
X117820051Y-98004639D01*
X117549229Y-98275462D01*
X117192848Y-98275462D01*
X116922026Y-98004640D01*
X116651204Y-98275462D01*
X116294822Y-98275462D01*
X116024000Y-98004639D01*
X115753178Y-98275462D01*
X115396797Y-98275462D01*
X115125975Y-98004640D01*
X114855153Y-98275462D01*
X114498771Y-98275462D01*
X114227949Y-98004640D01*
X113957127Y-98275462D01*
X113600746Y-98275462D01*
X113329923Y-98004639D01*
X113059101Y-98275462D01*
X112702720Y-98275462D01*
X112431898Y-98004640D01*
X112161076Y-98275462D01*
X111804694Y-98275462D01*
X111533872Y-98004639D01*
X111263050Y-98275462D01*
X110906669Y-98275462D01*
X110635847Y-98004640D01*
X110365025Y-98275462D01*
X110008643Y-98275462D01*
X109737821Y-98004640D01*
X109466999Y-98275462D01*
X109110618Y-98275462D01*
X108839795Y-98004639D01*
X108568973Y-98275462D01*
X108151266Y-98275462D01*
X108115309Y-98268310D01*
X108075536Y-98241734D01*
X108066204Y-98194817D01*
X108083307Y-98162819D01*
X108380492Y-97865635D01*
X118935454Y-97865635D01*
X119167090Y-98097271D01*
X119437912Y-97826449D01*
X119794293Y-97826449D01*
X120065115Y-98097271D01*
X120335938Y-97826449D01*
X120692319Y-97826449D01*
X120963141Y-98097271D01*
X121233963Y-97826449D01*
X121590345Y-97826449D01*
X121861167Y-98097271D01*
X122131989Y-97826449D01*
X121861167Y-97555627D01*
X121590345Y-97826449D01*
X121233963Y-97826449D01*
X120963141Y-97555626D01*
X120692319Y-97826449D01*
X120335938Y-97826449D01*
X120065115Y-97555626D01*
X119794293Y-97826449D01*
X119437912Y-97826449D01*
X119206276Y-97594813D01*
X118935454Y-97865635D01*
X108380492Y-97865635D01*
X108497803Y-97748325D01*
X108541997Y-97730019D01*
X118667361Y-97730019D01*
X118695723Y-97718271D01*
X118748153Y-97696554D01*
X118748153Y-97696553D01*
X118748157Y-97696552D01*
X119028087Y-97416622D01*
X119384467Y-97416622D01*
X119616103Y-97648258D01*
X119886925Y-97377436D01*
X120243306Y-97377436D01*
X120514128Y-97648258D01*
X120784951Y-97377436D01*
X120784950Y-97377435D01*
X121141331Y-97377435D01*
X121412154Y-97648258D01*
X121682976Y-97377436D01*
X122039357Y-97377436D01*
X122310179Y-97648258D01*
X122581002Y-97377436D01*
X122310179Y-97106613D01*
X122039357Y-97377436D01*
X121682976Y-97377436D01*
X121600844Y-97295304D01*
X121559131Y-97316559D01*
X121540533Y-97322602D01*
X121429777Y-97340144D01*
X121410223Y-97340144D01*
X121299467Y-97322602D01*
X121280869Y-97316559D01*
X121228759Y-97290007D01*
X121141331Y-97377435D01*
X120784950Y-97377435D01*
X120514128Y-97106613D01*
X120243306Y-97377436D01*
X119886925Y-97377436D01*
X119655289Y-97145800D01*
X119384467Y-97416622D01*
X119028087Y-97416622D01*
X119477868Y-96966841D01*
X119832711Y-96966841D01*
X120065115Y-97199245D01*
X120335938Y-96928423D01*
X120692318Y-96928423D01*
X120963140Y-97199245D01*
X121039985Y-97122400D01*
X121784321Y-97122400D01*
X121861166Y-97199245D01*
X122131989Y-96928423D01*
X122488370Y-96928423D01*
X122759192Y-97199245D01*
X123030015Y-96928423D01*
X122759192Y-96657600D01*
X122488370Y-96928423D01*
X122131989Y-96928423D01*
X121861166Y-96657600D01*
X121790007Y-96728759D01*
X121816559Y-96780869D01*
X121822602Y-96799467D01*
X121840144Y-96910223D01*
X121840144Y-96929777D01*
X121822602Y-97040533D01*
X121816559Y-97059131D01*
X121784321Y-97122400D01*
X121039985Y-97122400D01*
X121050381Y-97112004D01*
X121023441Y-97059131D01*
X121017398Y-97040533D01*
X120999856Y-96929777D01*
X120999856Y-96910223D01*
X121017398Y-96799467D01*
X121023441Y-96780870D01*
X121044695Y-96739155D01*
X120963141Y-96657601D01*
X120692318Y-96928423D01*
X120335938Y-96928423D01*
X120065115Y-96657600D01*
X119905608Y-96817106D01*
X119864628Y-96916044D01*
X119862004Y-96921592D01*
X119856120Y-96932599D01*
X119852966Y-96937859D01*
X119839193Y-96958470D01*
X119835540Y-96963396D01*
X119832711Y-96966841D01*
X119477868Y-96966841D01*
X119636553Y-96808156D01*
X119641875Y-96795309D01*
X119668117Y-96731955D01*
X119670020Y-96727360D01*
X119670020Y-96639906D01*
X119670020Y-96479410D01*
X120243306Y-96479410D01*
X120514128Y-96750233D01*
X120784951Y-96479410D01*
X121141331Y-96479410D01*
X121217599Y-96555678D01*
X121280869Y-96523441D01*
X121299467Y-96517398D01*
X121410223Y-96499856D01*
X121429777Y-96499856D01*
X121540533Y-96517398D01*
X121559131Y-96523441D01*
X121612004Y-96550381D01*
X121682975Y-96479410D01*
X122039357Y-96479410D01*
X122310179Y-96750233D01*
X122581002Y-96479410D01*
X122937382Y-96479410D01*
X123208205Y-96750233D01*
X123479027Y-96479410D01*
X123208205Y-96208588D01*
X122937382Y-96479410D01*
X122581002Y-96479410D01*
X122310179Y-96208588D01*
X122039357Y-96479410D01*
X121682975Y-96479410D01*
X121412154Y-96208588D01*
X121141331Y-96479410D01*
X120784951Y-96479410D01*
X120514128Y-96208588D01*
X120243306Y-96479410D01*
X119670020Y-96479410D01*
X119670020Y-96276410D01*
X119680554Y-96241686D01*
X119700000Y-96212583D01*
X119704727Y-96205509D01*
X119969405Y-96205509D01*
X120065116Y-96301220D01*
X120335938Y-96030398D01*
X120335937Y-96030397D01*
X120692318Y-96030397D01*
X120963141Y-96301220D01*
X121229861Y-96034499D01*
X121594446Y-96034499D01*
X121861167Y-96301220D01*
X122131989Y-96030398D01*
X122131988Y-96030397D01*
X122488370Y-96030397D01*
X122759192Y-96301220D01*
X123026413Y-96033999D01*
X123389997Y-96033999D01*
X123657218Y-96301220D01*
X123928040Y-96030398D01*
X123778413Y-95880771D01*
X123753181Y-95906003D01*
X123749380Y-95909502D01*
X123741364Y-95916291D01*
X123737289Y-95919463D01*
X123720309Y-95931587D01*
X123715985Y-95934412D01*
X123706960Y-95939790D01*
X123702416Y-95942250D01*
X123578719Y-96002721D01*
X123574285Y-96004679D01*
X123565128Y-96008306D01*
X123560564Y-96009912D01*
X123541878Y-96015686D01*
X123537199Y-96016936D01*
X123527594Y-96019106D01*
X123522831Y-96019989D01*
X123440223Y-96032023D01*
X123437991Y-96032307D01*
X123433426Y-96032805D01*
X123431166Y-96033011D01*
X123422073Y-96033670D01*
X123419813Y-96033792D01*
X123415221Y-96033958D01*
X123412963Y-96033999D01*
X123389997Y-96033999D01*
X123026413Y-96033999D01*
X122887037Y-96034000D01*
X122884779Y-96033959D01*
X122880187Y-96033793D01*
X122877928Y-96033671D01*
X122868834Y-96033012D01*
X122866576Y-96032807D01*
X122862009Y-96032309D01*
X122859773Y-96032024D01*
X122777165Y-96019988D01*
X122772404Y-96019105D01*
X122762798Y-96016935D01*
X122758117Y-96015685D01*
X122739432Y-96009911D01*
X122734865Y-96008303D01*
X122725710Y-96004676D01*
X122721281Y-96002720D01*
X122597585Y-95942250D01*
X122593040Y-95939790D01*
X122584228Y-95934539D01*
X122488370Y-96030397D01*
X122131988Y-96030397D01*
X122079864Y-95978273D01*
X122028864Y-96003206D01*
X122024430Y-96005165D01*
X122015273Y-96008792D01*
X122010709Y-96010398D01*
X121992023Y-96016172D01*
X121987344Y-96017422D01*
X121977739Y-96019592D01*
X121972976Y-96020475D01*
X121890271Y-96032523D01*
X121888039Y-96032807D01*
X121883474Y-96033305D01*
X121881214Y-96033511D01*
X121872121Y-96034170D01*
X121869861Y-96034292D01*
X121865269Y-96034458D01*
X121863011Y-96034499D01*
X121594446Y-96034499D01*
X121229861Y-96034499D01*
X121233963Y-96030397D01*
X121223361Y-96019795D01*
X121222259Y-96019591D01*
X121212653Y-96017421D01*
X121207972Y-96016171D01*
X121189287Y-96010397D01*
X121184720Y-96008789D01*
X121175565Y-96005162D01*
X121171136Y-96003206D01*
X121047287Y-95942661D01*
X121042741Y-95940201D01*
X121033713Y-95934821D01*
X121029387Y-95931994D01*
X121012409Y-95919870D01*
X121008335Y-95916698D01*
X121000321Y-95909910D01*
X120996522Y-95906413D01*
X120906412Y-95816303D01*
X120692318Y-96030397D01*
X120335937Y-96030397D01*
X120065115Y-95759575D01*
X119979500Y-95845191D01*
X119979500Y-96136131D01*
X119979425Y-96139198D01*
X119979119Y-96145427D01*
X119978893Y-96148485D01*
X119977680Y-96160802D01*
X119977304Y-96163851D01*
X119976389Y-96170017D01*
X119975865Y-96173036D01*
X119969405Y-96205509D01*
X119704727Y-96205509D01*
X119715751Y-96189011D01*
X119727500Y-96129943D01*
X119727500Y-95690055D01*
X119715751Y-95630987D01*
X119705448Y-95615568D01*
X119682608Y-95581385D01*
X120243306Y-95581385D01*
X120514128Y-95852206D01*
X120784950Y-95581384D01*
X120514128Y-95310562D01*
X120243306Y-95581385D01*
X119682608Y-95581385D01*
X119680362Y-95578024D01*
X119669829Y-95543301D01*
X119669829Y-95506695D01*
X119680363Y-95471971D01*
X119681100Y-95470869D01*
X119715751Y-95419011D01*
X119727500Y-95359943D01*
X119727500Y-95087357D01*
X119979500Y-95087357D01*
X119979500Y-95317578D01*
X120065116Y-95403194D01*
X120335938Y-95132372D01*
X120222941Y-95019375D01*
X120165864Y-95048458D01*
X120161406Y-95050513D01*
X120152186Y-95054332D01*
X120147583Y-95056030D01*
X120128736Y-95062154D01*
X120124014Y-95063486D01*
X120114310Y-95065816D01*
X120109495Y-95066774D01*
X119979635Y-95087342D01*
X119979500Y-95087357D01*
X119727500Y-95087357D01*
X119727500Y-94920055D01*
X119717709Y-94870831D01*
X119719372Y-94862472D01*
X120422419Y-94862472D01*
X120514128Y-94954181D01*
X120784951Y-94683359D01*
X120558010Y-94456418D01*
X120558701Y-94465187D01*
X120558894Y-94470091D01*
X120558894Y-94489909D01*
X120558701Y-94494813D01*
X120557918Y-94504762D01*
X120557342Y-94509635D01*
X120536774Y-94639495D01*
X120535816Y-94644310D01*
X120533486Y-94654014D01*
X120532154Y-94658736D01*
X120526030Y-94677583D01*
X120524332Y-94682186D01*
X120520513Y-94691406D01*
X120518458Y-94695863D01*
X120458768Y-94813012D01*
X120456369Y-94817296D01*
X120451153Y-94825807D01*
X120448426Y-94829888D01*
X120436777Y-94845920D01*
X120433740Y-94849772D01*
X120427260Y-94857359D01*
X120423929Y-94860962D01*
X120422419Y-94862472D01*
X119719372Y-94862472D01*
X119727041Y-94823917D01*
X119766815Y-94797341D01*
X119807381Y-94802951D01*
X119839714Y-94819426D01*
X119839715Y-94819426D01*
X119839717Y-94819427D01*
X119949997Y-94836894D01*
X119950000Y-94836894D01*
X119950003Y-94836894D01*
X120060282Y-94819427D01*
X120060283Y-94819426D01*
X120060286Y-94819426D01*
X120159777Y-94768733D01*
X120238733Y-94689777D01*
X120289426Y-94590286D01*
X120289427Y-94590282D01*
X120306894Y-94480003D01*
X120306894Y-94479996D01*
X120289427Y-94369717D01*
X120289425Y-94369712D01*
X120238733Y-94270223D01*
X120202856Y-94234346D01*
X120692318Y-94234346D01*
X120954040Y-94496068D01*
X120996522Y-94453587D01*
X121000321Y-94450090D01*
X121008335Y-94443302D01*
X121012409Y-94440130D01*
X121029387Y-94428006D01*
X121030000Y-94427605D01*
X121030000Y-94304906D01*
X121007468Y-94260686D01*
X121005414Y-94256229D01*
X121001594Y-94247007D01*
X120999895Y-94242401D01*
X120995703Y-94229500D01*
X120781253Y-94229500D01*
X120778186Y-94229425D01*
X120771957Y-94229119D01*
X120768899Y-94228893D01*
X120756582Y-94227680D01*
X120753534Y-94227304D01*
X120747367Y-94226389D01*
X120744346Y-94225865D01*
X120708025Y-94218639D01*
X120692318Y-94234346D01*
X120202856Y-94234346D01*
X120188135Y-94219625D01*
X120169829Y-94175431D01*
X120169829Y-94030260D01*
X120188135Y-93986066D01*
X120232329Y-93967760D01*
X120244523Y-93968961D01*
X120250251Y-93970100D01*
X120250252Y-93970101D01*
X120287442Y-93977499D01*
X120287443Y-93977499D01*
X120612557Y-93977499D01*
X120612558Y-93977499D01*
X120649748Y-93970101D01*
X120665275Y-93959725D01*
X120712191Y-93950393D01*
X120734723Y-93959726D01*
X120750252Y-93970102D01*
X120787442Y-93977500D01*
X120787443Y-93977500D01*
X121112557Y-93977500D01*
X121112558Y-93977500D01*
X121143101Y-93971424D01*
X121190016Y-93980755D01*
X121216593Y-94020529D01*
X121217794Y-94032723D01*
X121217794Y-94036997D01*
X121217794Y-94037000D01*
X121229175Y-94108856D01*
X121236500Y-94155108D01*
X121236500Y-94155109D01*
X121246855Y-94175431D01*
X121274405Y-94229500D01*
X121275188Y-94231035D01*
X121282000Y-94259410D01*
X121282000Y-94544082D01*
X121263694Y-94588276D01*
X121246950Y-94600231D01*
X121167341Y-94639149D01*
X121167338Y-94639151D01*
X121084152Y-94722337D01*
X121032482Y-94828030D01*
X121022500Y-94896547D01*
X121022500Y-95463451D01*
X121032482Y-95531969D01*
X121032483Y-95531972D01*
X121084152Y-95637662D01*
X121167338Y-95720848D01*
X121273028Y-95772517D01*
X121341547Y-95782500D01*
X121858452Y-95782499D01*
X121926972Y-95772517D01*
X122032662Y-95720848D01*
X122115848Y-95637662D01*
X122167517Y-95531972D01*
X122177500Y-95463453D01*
X122177500Y-95463403D01*
X122573001Y-95463403D01*
X122582968Y-95531824D01*
X122582969Y-95531825D01*
X122634565Y-95637368D01*
X122717631Y-95720434D01*
X122823175Y-95772031D01*
X122891588Y-95781998D01*
X122891602Y-95781999D01*
X123022999Y-95781999D01*
X123277000Y-95781999D01*
X123408404Y-95781999D01*
X123476824Y-95772031D01*
X123476825Y-95772030D01*
X123582368Y-95720434D01*
X123628800Y-95674002D01*
X123928026Y-95674002D01*
X124106231Y-95852207D01*
X124377053Y-95581385D01*
X124106231Y-95310563D01*
X123979000Y-95437794D01*
X123979000Y-95467965D01*
X123978959Y-95470223D01*
X123978793Y-95474815D01*
X123978671Y-95477075D01*
X123978012Y-95486168D01*
X123977807Y-95488427D01*
X123977309Y-95492993D01*
X123977024Y-95495227D01*
X123964988Y-95577835D01*
X123964105Y-95582596D01*
X123961935Y-95592202D01*
X123960685Y-95596883D01*
X123954911Y-95615568D01*
X123953303Y-95620135D01*
X123949676Y-95629290D01*
X123947719Y-95633720D01*
X123928026Y-95674002D01*
X123628800Y-95674002D01*
X123665434Y-95637368D01*
X123717031Y-95531824D01*
X123727000Y-95463404D01*
X123727000Y-95307000D01*
X123277000Y-95307000D01*
X123277000Y-95781999D01*
X123022999Y-95781999D01*
X123023000Y-95781998D01*
X123023000Y-95307000D01*
X122573001Y-95307000D01*
X122573001Y-95463403D01*
X122177500Y-95463403D01*
X122177499Y-95132372D01*
X124284422Y-95132372D01*
X124555244Y-95403194D01*
X124826066Y-95132372D01*
X124555244Y-94861550D01*
X124284422Y-95132372D01*
X122177499Y-95132372D01*
X122177499Y-94896595D01*
X122573000Y-94896595D01*
X122573000Y-95053000D01*
X123023000Y-95053000D01*
X123277000Y-95053000D01*
X123726999Y-95053000D01*
X123726999Y-94896596D01*
X123717031Y-94828175D01*
X123717030Y-94828174D01*
X123665434Y-94722631D01*
X123582368Y-94639565D01*
X123546473Y-94622017D01*
X123896750Y-94622017D01*
X123947721Y-94726281D01*
X123949679Y-94730715D01*
X123953306Y-94739872D01*
X123954912Y-94744436D01*
X123960686Y-94763122D01*
X123961936Y-94767801D01*
X123964106Y-94777406D01*
X123964989Y-94782169D01*
X123970235Y-94818185D01*
X124106231Y-94954181D01*
X124377053Y-94683359D01*
X124733434Y-94683359D01*
X125004256Y-94954181D01*
X125147500Y-94810938D01*
X125147500Y-94555780D01*
X125004256Y-94412536D01*
X124733434Y-94683359D01*
X124377053Y-94683359D01*
X124106230Y-94412536D01*
X123896750Y-94622017D01*
X123546473Y-94622017D01*
X123476824Y-94587968D01*
X123408404Y-94578000D01*
X123277000Y-94578000D01*
X123277000Y-95053000D01*
X123023000Y-95053000D01*
X123023000Y-94578000D01*
X122891596Y-94578000D01*
X122823175Y-94587968D01*
X122823174Y-94587969D01*
X122717631Y-94639565D01*
X122634565Y-94722631D01*
X122582968Y-94828175D01*
X122573000Y-94896595D01*
X122177499Y-94896595D01*
X122177499Y-94896548D01*
X122167517Y-94828028D01*
X122115848Y-94722338D01*
X122032662Y-94639152D01*
X122032661Y-94639151D01*
X122032658Y-94639149D01*
X121953050Y-94600231D01*
X121921386Y-94564376D01*
X121918000Y-94544082D01*
X121918000Y-94486412D01*
X122236303Y-94486412D01*
X122301413Y-94551522D01*
X122304910Y-94555321D01*
X122311698Y-94563335D01*
X122314870Y-94567409D01*
X122326994Y-94584387D01*
X122329821Y-94588713D01*
X122335201Y-94597741D01*
X122337661Y-94602286D01*
X122375278Y-94679235D01*
X122412750Y-94602585D01*
X122415210Y-94598040D01*
X122420588Y-94589015D01*
X122423413Y-94584691D01*
X122435537Y-94567711D01*
X122438709Y-94563636D01*
X122445498Y-94555620D01*
X122448996Y-94551819D01*
X122449228Y-94551585D01*
X122310179Y-94412536D01*
X122236303Y-94486412D01*
X121918000Y-94486412D01*
X121918000Y-94259410D01*
X121924017Y-94234346D01*
X122488370Y-94234346D01*
X122647413Y-94393390D01*
X122721282Y-94357279D01*
X122725715Y-94355321D01*
X122734872Y-94351694D01*
X122739436Y-94350088D01*
X122758122Y-94344314D01*
X122762801Y-94343064D01*
X122772406Y-94340894D01*
X122777169Y-94340011D01*
X122859777Y-94327977D01*
X122862020Y-94327691D01*
X122866583Y-94327194D01*
X122868825Y-94326991D01*
X122877917Y-94326331D01*
X122880185Y-94326208D01*
X122884778Y-94326042D01*
X122887034Y-94326001D01*
X122938360Y-94326000D01*
X123030014Y-94234346D01*
X123386395Y-94234346D01*
X123486811Y-94334762D01*
X123522836Y-94340012D01*
X123527596Y-94340895D01*
X123537202Y-94343065D01*
X123541883Y-94344315D01*
X123560568Y-94350089D01*
X123565135Y-94351697D01*
X123574290Y-94355324D01*
X123578719Y-94357280D01*
X123702415Y-94417750D01*
X123706960Y-94420210D01*
X123715985Y-94425588D01*
X123720309Y-94428413D01*
X123728281Y-94434105D01*
X123928040Y-94234346D01*
X124284421Y-94234346D01*
X124555244Y-94505169D01*
X124826066Y-94234346D01*
X124555244Y-93963524D01*
X124284421Y-94234346D01*
X123928040Y-94234346D01*
X123792292Y-94098598D01*
X123790739Y-94099198D01*
X123784860Y-94101301D01*
X123781942Y-94102265D01*
X123770097Y-94105856D01*
X123767146Y-94106672D01*
X123761104Y-94108185D01*
X123758115Y-94108856D01*
X123639197Y-94132509D01*
X123611818Y-94131837D01*
X123556490Y-94117978D01*
X123532026Y-94105663D01*
X123522717Y-94098023D01*
X123386395Y-94234346D01*
X123030014Y-94234346D01*
X122940673Y-94145005D01*
X122879250Y-94186048D01*
X122873990Y-94189201D01*
X122862984Y-94195084D01*
X122857438Y-94197707D01*
X122834536Y-94207193D01*
X122828759Y-94209260D01*
X122816820Y-94212881D01*
X122810874Y-94214370D01*
X122755604Y-94225365D01*
X122752583Y-94225889D01*
X122746416Y-94226804D01*
X122743368Y-94227180D01*
X122731051Y-94228393D01*
X122727993Y-94228619D01*
X122721764Y-94228925D01*
X122718697Y-94229000D01*
X122625850Y-94229000D01*
X122601932Y-94224242D01*
X122555254Y-94204907D01*
X122550000Y-94201396D01*
X122544746Y-94204907D01*
X122498762Y-94223954D01*
X122488370Y-94234346D01*
X121924017Y-94234346D01*
X121924812Y-94231035D01*
X121925595Y-94229500D01*
X121963500Y-94155108D01*
X121982206Y-94037000D01*
X121982206Y-94036997D01*
X121982206Y-94032213D01*
X122000512Y-93988019D01*
X122025166Y-93977807D01*
X124027882Y-93977807D01*
X124106231Y-94056156D01*
X124377053Y-93785334D01*
X124733434Y-93785334D01*
X125004256Y-94056156D01*
X125147500Y-93912913D01*
X125147500Y-93657755D01*
X125004256Y-93514511D01*
X124733434Y-93785334D01*
X124377053Y-93785334D01*
X124286591Y-93694872D01*
X124213115Y-93804838D01*
X124211347Y-93807348D01*
X124207631Y-93812358D01*
X124205746Y-93814773D01*
X124197895Y-93824340D01*
X124195888Y-93826668D01*
X124191701Y-93831287D01*
X124189588Y-93833505D01*
X124093505Y-93929588D01*
X124091287Y-93931701D01*
X124086668Y-93935888D01*
X124084340Y-93937895D01*
X124074773Y-93945746D01*
X124072358Y-93947631D01*
X124067348Y-93951347D01*
X124064838Y-93953115D01*
X124027882Y-93977807D01*
X122025166Y-93977807D01*
X122044706Y-93969713D01*
X122056900Y-93970914D01*
X122087493Y-93977000D01*
X122123000Y-93977000D01*
X122377000Y-93977000D01*
X122423000Y-93977000D01*
X122423000Y-93402000D01*
X122377000Y-93402000D01*
X122377000Y-93977000D01*
X122123000Y-93977000D01*
X122123000Y-93210500D01*
X122141306Y-93166306D01*
X122185500Y-93148000D01*
X122614500Y-93148000D01*
X122658694Y-93166306D01*
X122677000Y-93210500D01*
X122677000Y-93977000D01*
X122712507Y-93977000D01*
X122749553Y-93969630D01*
X122749554Y-93969630D01*
X122791561Y-93941561D01*
X122819630Y-93899554D01*
X122819630Y-93899553D01*
X122827000Y-93862507D01*
X122827000Y-93539587D01*
X122845306Y-93495393D01*
X122889500Y-93477087D01*
X122933694Y-93495393D01*
X122947242Y-93515669D01*
X122964360Y-93556996D01*
X122964361Y-93556998D01*
X123032976Y-93659688D01*
X123120311Y-93747023D01*
X123223001Y-93815638D01*
X123223004Y-93815639D01*
X123337103Y-93862902D01*
X123337112Y-93862905D01*
X123392999Y-93874021D01*
X123393000Y-93874021D01*
X123393000Y-93533087D01*
X123404204Y-93539556D01*
X123480504Y-93560000D01*
X123559496Y-93560000D01*
X123635796Y-93539556D01*
X123647000Y-93533087D01*
X123647000Y-93874021D01*
X123702887Y-93862905D01*
X123702896Y-93862902D01*
X123816995Y-93815639D01*
X123816998Y-93815638D01*
X123919688Y-93747023D01*
X124007023Y-93659688D01*
X124075638Y-93556998D01*
X124075639Y-93556996D01*
X124122905Y-93442887D01*
X124124754Y-93433590D01*
X124381691Y-93433590D01*
X124555244Y-93607143D01*
X124826066Y-93336321D01*
X124555244Y-93065499D01*
X124399000Y-93221743D01*
X124399000Y-93327942D01*
X124398925Y-93331009D01*
X124398619Y-93337237D01*
X124398393Y-93340295D01*
X124397180Y-93352612D01*
X124396804Y-93355658D01*
X124395889Y-93361826D01*
X124395365Y-93364848D01*
X124381691Y-93433590D01*
X124124754Y-93433590D01*
X124146999Y-93321754D01*
X124147000Y-93321754D01*
X124147000Y-92887308D01*
X124733434Y-92887308D01*
X125004256Y-93158130D01*
X125147500Y-93014887D01*
X125147500Y-92759729D01*
X125004256Y-92616485D01*
X124733434Y-92887308D01*
X124147000Y-92887308D01*
X124147000Y-92837000D01*
X123820000Y-92837000D01*
X123820000Y-92583000D01*
X124147000Y-92583000D01*
X124147000Y-92323717D01*
X124399000Y-92323717D01*
X124399000Y-92552873D01*
X124555244Y-92709117D01*
X124826066Y-92438295D01*
X124555244Y-92167473D01*
X124399000Y-92323717D01*
X124147000Y-92323717D01*
X124147000Y-92098246D01*
X124146999Y-92098245D01*
X124125326Y-91989282D01*
X124733434Y-91989282D01*
X125004256Y-92260105D01*
X125147500Y-92116862D01*
X125147500Y-91861703D01*
X125066296Y-91780499D01*
X124942218Y-91780499D01*
X124733434Y-91989282D01*
X124125326Y-91989282D01*
X124122905Y-91977112D01*
X124075639Y-91863003D01*
X124075638Y-91863001D01*
X124007023Y-91760311D01*
X123919688Y-91672976D01*
X123866593Y-91637499D01*
X124381651Y-91637499D01*
X124555243Y-91811091D01*
X124642108Y-91724226D01*
X124542836Y-91657894D01*
X124537909Y-91654240D01*
X124528261Y-91646322D01*
X124523714Y-91642201D01*
X124519013Y-91637499D01*
X124381651Y-91637499D01*
X123866593Y-91637499D01*
X123816998Y-91604361D01*
X123816996Y-91604360D01*
X123702887Y-91557094D01*
X123647000Y-91545977D01*
X123647000Y-91886912D01*
X123635796Y-91880444D01*
X123559496Y-91860000D01*
X123480504Y-91860000D01*
X123404204Y-91880444D01*
X123393000Y-91886912D01*
X123393000Y-91545978D01*
X123392999Y-91545977D01*
X123337112Y-91557094D01*
X123223003Y-91604360D01*
X123223001Y-91604361D01*
X123120311Y-91672976D01*
X123032976Y-91760311D01*
X122964361Y-91863001D01*
X122964360Y-91863003D01*
X122917094Y-91977112D01*
X122893000Y-92098245D01*
X122893000Y-92559287D01*
X122874694Y-92603481D01*
X122830500Y-92621787D01*
X122795777Y-92611254D01*
X122749553Y-92580369D01*
X122712507Y-92573000D01*
X122653206Y-92573000D01*
X122609012Y-92554694D01*
X122590706Y-92510500D01*
X122599079Y-92479250D01*
X122606841Y-92465806D01*
X122626281Y-92432135D01*
X122665500Y-92285766D01*
X122665500Y-92134234D01*
X122626281Y-91987865D01*
X122550515Y-91856635D01*
X122550513Y-91856633D01*
X122550510Y-91856629D01*
X122443370Y-91749489D01*
X122443366Y-91749486D01*
X122443365Y-91749485D01*
X122377750Y-91711602D01*
X122312134Y-91673718D01*
X122312131Y-91673717D01*
X122165772Y-91634501D01*
X122165767Y-91634500D01*
X122165766Y-91634500D01*
X122014234Y-91634500D01*
X122014233Y-91634500D01*
X122014227Y-91634501D01*
X121876426Y-91671424D01*
X121829000Y-91665180D01*
X121799880Y-91627230D01*
X121806124Y-91579804D01*
X121816052Y-91566864D01*
X121979112Y-91403805D01*
X122023306Y-91385499D01*
X124613134Y-91385499D01*
X124657328Y-91403805D01*
G37*
%TD.AperFunction*%
%TA.AperFunction,Conductor*%
G36*
X104979956Y-103524643D02*
G01*
X104997061Y-103556643D01*
X104999793Y-103570377D01*
X104999794Y-103570380D01*
X105031186Y-103617362D01*
X105031187Y-103617363D01*
X105146038Y-103732214D01*
X105193023Y-103763608D01*
X105216984Y-103768374D01*
X105267156Y-103778354D01*
X105273313Y-103778354D01*
X105273313Y-103780599D01*
X105311501Y-103788185D01*
X105338088Y-103827951D01*
X105338091Y-103843642D01*
X105338600Y-103843642D01*
X105338600Y-103849798D01*
X105353345Y-103923930D01*
X105353347Y-103923934D01*
X105363371Y-103938936D01*
X105384740Y-103970917D01*
X105499591Y-104085768D01*
X105546576Y-104117162D01*
X105583643Y-104124535D01*
X105620709Y-104131908D01*
X105620710Y-104131908D01*
X105620711Y-104131908D01*
X105645421Y-104126992D01*
X105694845Y-104117162D01*
X105741829Y-104085768D01*
X105831576Y-103996020D01*
X105875769Y-103977715D01*
X105919963Y-103996021D01*
X105938269Y-104040215D01*
X105937500Y-104049992D01*
X105924517Y-104131968D01*
X105923747Y-104136827D01*
X105925183Y-104145892D01*
X105942453Y-104254935D01*
X105942453Y-104254936D01*
X105977301Y-104323328D01*
X105996742Y-104361482D01*
X106081298Y-104446038D01*
X106187845Y-104500327D01*
X106305953Y-104519033D01*
X106424061Y-104500327D01*
X106530608Y-104446038D01*
X106615164Y-104361482D01*
X106669453Y-104254935D01*
X106688159Y-104136827D01*
X106688158Y-104136825D01*
X106688928Y-104131968D01*
X106691493Y-104132374D01*
X106706463Y-104096232D01*
X106771175Y-104031521D01*
X106815366Y-104013217D01*
X106859558Y-104031521D01*
X106913805Y-104085768D01*
X106960789Y-104117162D01*
X106997856Y-104124535D01*
X107034923Y-104131908D01*
X107034924Y-104131908D01*
X107034925Y-104131908D01*
X107059635Y-104126992D01*
X107109058Y-104117162D01*
X107156043Y-104085768D01*
X107270894Y-103970917D01*
X107302288Y-103923932D01*
X107305019Y-103910199D01*
X107331593Y-103870425D01*
X107378509Y-103861092D01*
X107410511Y-103878195D01*
X107447194Y-103914878D01*
X107465500Y-103959071D01*
X107465500Y-104568694D01*
X107447194Y-104612888D01*
X106895888Y-105164194D01*
X106851694Y-105182500D01*
X91666202Y-105182500D01*
X91622008Y-105164194D01*
X91603702Y-105120000D01*
X91622008Y-105075806D01*
X91767314Y-104930500D01*
X92123695Y-104930500D01*
X92416990Y-104930500D01*
X92933679Y-104930500D01*
X93315016Y-104930500D01*
X93831705Y-104930500D01*
X94213041Y-104930500D01*
X94729730Y-104930500D01*
X95111067Y-104930500D01*
X95627756Y-104930500D01*
X96009092Y-104930500D01*
X96525782Y-104930500D01*
X96907118Y-104930500D01*
X98321833Y-104930500D01*
X98703169Y-104930500D01*
X99219858Y-104930500D01*
X99601195Y-104930500D01*
X100117884Y-104930500D01*
X100499220Y-104930500D01*
X101015910Y-104930500D01*
X101397246Y-104930500D01*
X101913935Y-104930500D01*
X102295272Y-104930500D01*
X102811961Y-104930500D01*
X103193297Y-104930500D01*
X104608012Y-104930500D01*
X104989349Y-104930500D01*
X105506038Y-104930500D01*
X105887374Y-104930500D01*
X106404063Y-104930500D01*
X106773200Y-104930500D01*
X106779300Y-104924400D01*
X106594731Y-104739831D01*
X106404063Y-104930500D01*
X105887374Y-104930500D01*
X105696706Y-104739832D01*
X105506038Y-104930500D01*
X104989349Y-104930500D01*
X104798680Y-104739831D01*
X104608012Y-104930500D01*
X103193297Y-104930500D01*
X103002629Y-104739832D01*
X102811961Y-104930500D01*
X102295272Y-104930500D01*
X102104603Y-104739831D01*
X101913935Y-104930500D01*
X101397246Y-104930500D01*
X101206578Y-104739832D01*
X101015910Y-104930500D01*
X100499220Y-104930500D01*
X100308552Y-104739832D01*
X100117884Y-104930500D01*
X99601195Y-104930500D01*
X99410526Y-104739831D01*
X99219858Y-104930500D01*
X98703169Y-104930500D01*
X98512501Y-104739832D01*
X98321833Y-104930500D01*
X96907118Y-104930500D01*
X96716450Y-104739832D01*
X96525782Y-104930500D01*
X96009092Y-104930500D01*
X95818424Y-104739832D01*
X95627756Y-104930500D01*
X95111067Y-104930500D01*
X94920398Y-104739831D01*
X94729730Y-104930500D01*
X94213041Y-104930500D01*
X94022373Y-104739832D01*
X93831705Y-104930500D01*
X93315016Y-104930500D01*
X93124347Y-104739831D01*
X92933679Y-104930500D01*
X92416990Y-104930500D01*
X92270342Y-104783852D01*
X92123695Y-104930500D01*
X91767314Y-104930500D01*
X92092152Y-104605662D01*
X92448533Y-104605662D01*
X92675334Y-104832463D01*
X92946157Y-104561641D01*
X93302538Y-104561641D01*
X93573360Y-104832463D01*
X93844182Y-104561641D01*
X94200564Y-104561641D01*
X94471386Y-104832463D01*
X94742208Y-104561641D01*
X95098589Y-104561641D01*
X95369411Y-104832463D01*
X95640233Y-104561641D01*
X95996615Y-104561641D01*
X96267437Y-104832463D01*
X96538259Y-104561641D01*
X96894640Y-104561641D01*
X97165462Y-104832462D01*
X97242125Y-104755800D01*
X97223441Y-104719130D01*
X97217398Y-104700533D01*
X97199856Y-104589777D01*
X97199856Y-104570223D01*
X97217398Y-104459467D01*
X97223441Y-104440869D01*
X97254519Y-104379875D01*
X97247199Y-104372555D01*
X97981751Y-104372555D01*
X98016559Y-104440869D01*
X98022602Y-104459467D01*
X98040144Y-104570223D01*
X98040144Y-104589777D01*
X98022602Y-104700533D01*
X98016558Y-104719131D01*
X97994144Y-104763119D01*
X98063488Y-104832463D01*
X98334310Y-104561641D01*
X98690692Y-104561641D01*
X98961514Y-104832463D01*
X99232336Y-104561641D01*
X99588717Y-104561641D01*
X99859539Y-104832463D01*
X100130361Y-104561641D01*
X100486743Y-104561641D01*
X100757565Y-104832463D01*
X101028387Y-104561641D01*
X101384768Y-104561641D01*
X101655590Y-104832463D01*
X101926413Y-104561641D01*
X102282794Y-104561641D01*
X102553616Y-104832463D01*
X102824438Y-104561641D01*
X103180820Y-104561641D01*
X103451641Y-104832462D01*
X103524336Y-104759767D01*
X103517144Y-104745651D01*
X104262855Y-104745651D01*
X104349667Y-104832463D01*
X104620489Y-104561641D01*
X104976871Y-104561641D01*
X105247693Y-104832463D01*
X105391992Y-104688164D01*
X106001419Y-104688164D01*
X106145718Y-104832462D01*
X106217945Y-104760235D01*
X106138638Y-104747675D01*
X106133826Y-104746717D01*
X106124124Y-104744388D01*
X106119401Y-104743056D01*
X106100552Y-104736932D01*
X106095943Y-104735232D01*
X106086722Y-104731412D01*
X106082269Y-104729359D01*
X106001419Y-104688164D01*
X105391992Y-104688164D01*
X105518515Y-104561641D01*
X105518514Y-104561640D01*
X106772921Y-104561640D01*
X106957490Y-104746209D01*
X107213500Y-104490199D01*
X107213500Y-104460574D01*
X107124042Y-104371117D01*
X107071931Y-104381484D01*
X107065863Y-104382384D01*
X107053445Y-104383607D01*
X107047319Y-104383908D01*
X107022529Y-104383908D01*
X107016403Y-104383607D01*
X107003985Y-104382384D01*
X106997918Y-104381484D01*
X106960517Y-104374044D01*
X106772921Y-104561640D01*
X105518514Y-104561640D01*
X105247693Y-104290819D01*
X104976871Y-104561641D01*
X104620489Y-104561641D01*
X104349666Y-104290818D01*
X104263962Y-104376522D01*
X104286559Y-104420869D01*
X104292602Y-104439467D01*
X104310144Y-104550223D01*
X104310144Y-104569777D01*
X104292602Y-104680533D01*
X104286559Y-104699131D01*
X104262855Y-104745651D01*
X103517144Y-104745651D01*
X103493441Y-104699131D01*
X103487398Y-104680533D01*
X103469856Y-104569777D01*
X103469856Y-104550223D01*
X103487398Y-104439467D01*
X103493441Y-104420870D01*
X103523229Y-104362406D01*
X103451642Y-104290819D01*
X103180820Y-104561641D01*
X102824438Y-104561641D01*
X102553616Y-104290818D01*
X102282794Y-104561641D01*
X101926413Y-104561641D01*
X101655590Y-104290818D01*
X101384768Y-104561641D01*
X101028387Y-104561641D01*
X100757565Y-104290819D01*
X100486743Y-104561641D01*
X100130361Y-104561641D01*
X99859539Y-104290818D01*
X99588717Y-104561641D01*
X99232336Y-104561641D01*
X98961514Y-104290819D01*
X98690692Y-104561641D01*
X98334310Y-104561641D01*
X98063487Y-104290818D01*
X97981751Y-104372555D01*
X97247199Y-104372555D01*
X97165462Y-104290818D01*
X96894640Y-104561641D01*
X96538259Y-104561641D01*
X96267437Y-104290819D01*
X95996615Y-104561641D01*
X95640233Y-104561641D01*
X95369411Y-104290818D01*
X95098589Y-104561641D01*
X94742208Y-104561641D01*
X94471386Y-104290819D01*
X94200564Y-104561641D01*
X93844182Y-104561641D01*
X93573360Y-104290819D01*
X93302538Y-104561641D01*
X92946157Y-104561641D01*
X92712602Y-104328086D01*
X93068982Y-104328086D01*
X93124347Y-104383450D01*
X93395170Y-104112628D01*
X93751550Y-104112628D01*
X94022373Y-104383450D01*
X94293195Y-104112628D01*
X94649576Y-104112628D01*
X94920398Y-104383450D01*
X95191221Y-104112628D01*
X95547601Y-104112628D01*
X95818424Y-104383450D01*
X96089246Y-104112628D01*
X96445627Y-104112628D01*
X96716450Y-104383450D01*
X96987272Y-104112628D01*
X97343652Y-104112628D01*
X97436879Y-104205855D01*
X97480870Y-104183441D01*
X97499467Y-104177398D01*
X97610223Y-104159856D01*
X97629777Y-104159856D01*
X97740533Y-104177398D01*
X97759130Y-104183441D01*
X97795799Y-104202125D01*
X97885296Y-104112628D01*
X98241678Y-104112628D01*
X98512501Y-104383450D01*
X98783323Y-104112628D01*
X99139704Y-104112628D01*
X99410526Y-104383450D01*
X99681349Y-104112628D01*
X100037729Y-104112628D01*
X100308552Y-104383450D01*
X100579374Y-104112628D01*
X100935755Y-104112628D01*
X101206578Y-104383450D01*
X101477400Y-104112628D01*
X101833780Y-104112628D01*
X102104603Y-104383450D01*
X102375426Y-104112628D01*
X102731806Y-104112628D01*
X103002629Y-104383450D01*
X103273451Y-104112628D01*
X103629832Y-104112628D01*
X103704348Y-104187144D01*
X103750870Y-104163441D01*
X103769467Y-104157398D01*
X103880223Y-104139856D01*
X103899777Y-104139856D01*
X104010533Y-104157398D01*
X104029131Y-104163441D01*
X104089767Y-104194336D01*
X104171475Y-104112628D01*
X104527857Y-104112628D01*
X104798680Y-104383450D01*
X105069502Y-104112628D01*
X104864733Y-103907859D01*
X104793799Y-103978795D01*
X104789255Y-103982913D01*
X104779611Y-103990828D01*
X104774684Y-103994482D01*
X104754072Y-104008255D01*
X104748813Y-104011408D01*
X104737806Y-104017292D01*
X104732258Y-104019916D01*
X104615814Y-104068147D01*
X104610043Y-104070212D01*
X104598105Y-104073834D01*
X104592155Y-104075325D01*
X104567843Y-104080162D01*
X104561772Y-104081062D01*
X104559167Y-104081318D01*
X104527857Y-104112628D01*
X104171475Y-104112628D01*
X104171476Y-104112627D01*
X104141435Y-104082586D01*
X103659874Y-104082586D01*
X103629832Y-104112628D01*
X103273451Y-104112628D01*
X103243409Y-104082586D01*
X102761849Y-104082586D01*
X102731806Y-104112628D01*
X102375426Y-104112628D01*
X102345384Y-104082586D01*
X101863823Y-104082586D01*
X101833780Y-104112628D01*
X101477400Y-104112628D01*
X101447358Y-104082586D01*
X100965798Y-104082586D01*
X100935755Y-104112628D01*
X100579374Y-104112628D01*
X100549332Y-104082586D01*
X100067772Y-104082586D01*
X100037729Y-104112628D01*
X99681349Y-104112628D01*
X99651307Y-104082586D01*
X99169746Y-104082586D01*
X99139704Y-104112628D01*
X98783323Y-104112628D01*
X98753281Y-104082586D01*
X98271721Y-104082586D01*
X98241678Y-104112628D01*
X97885296Y-104112628D01*
X97885297Y-104112627D01*
X97855256Y-104082586D01*
X97373695Y-104082586D01*
X97343652Y-104112628D01*
X96987272Y-104112628D01*
X96957230Y-104082586D01*
X96475670Y-104082586D01*
X96445627Y-104112628D01*
X96089246Y-104112628D01*
X96059204Y-104082586D01*
X95577644Y-104082586D01*
X95547601Y-104112628D01*
X95191221Y-104112628D01*
X95161179Y-104082586D01*
X94679618Y-104082586D01*
X94649576Y-104112628D01*
X94293195Y-104112628D01*
X94263153Y-104082586D01*
X93781593Y-104082586D01*
X93751550Y-104112628D01*
X93395170Y-104112628D01*
X93365128Y-104082586D01*
X93302000Y-104082586D01*
X93302000Y-104127236D01*
X93297242Y-104151154D01*
X93277907Y-104197832D01*
X93264359Y-104218108D01*
X93192022Y-104290445D01*
X93171746Y-104303993D01*
X93125068Y-104323328D01*
X93101150Y-104328086D01*
X93068982Y-104328086D01*
X92712602Y-104328086D01*
X92638069Y-104328086D01*
X92616752Y-104349401D01*
X92616481Y-104350297D01*
X92613808Y-104358170D01*
X92612369Y-104361994D01*
X92606052Y-104377245D01*
X92604365Y-104380969D01*
X92600687Y-104388428D01*
X92598758Y-104392037D01*
X92524612Y-104520461D01*
X92522455Y-104523930D01*
X92517838Y-104530841D01*
X92515456Y-104534166D01*
X92505408Y-104547263D01*
X92502809Y-104550430D01*
X92497324Y-104556684D01*
X92494529Y-104559667D01*
X92448533Y-104605662D01*
X92092152Y-104605662D01*
X92310495Y-104387319D01*
X92310500Y-104387314D01*
X92376392Y-104273186D01*
X92410500Y-104145892D01*
X92410500Y-104138586D01*
X92428806Y-104094392D01*
X92473000Y-104076086D01*
X93050000Y-104076086D01*
X93050000Y-103893086D01*
X93068306Y-103848892D01*
X93112500Y-103830586D01*
X104530829Y-103830586D01*
X104530831Y-103830586D01*
X104624371Y-103791841D01*
X104891568Y-103524642D01*
X104935762Y-103506337D01*
X104979956Y-103524643D01*
G37*
%TD.AperFunction*%
%TA.AperFunction,Conductor*%
G36*
X125381194Y-86788806D02*
G01*
X125399500Y-86833000D01*
X125399500Y-89661971D01*
X125381194Y-89706165D01*
X125337000Y-89724471D01*
X125324807Y-89723270D01*
X125278207Y-89714001D01*
X125194400Y-89714001D01*
X125194400Y-90508001D01*
X125278205Y-90508001D01*
X125324806Y-90498731D01*
X125371723Y-90508063D01*
X125398299Y-90547836D01*
X125399500Y-90560030D01*
X125399500Y-90681459D01*
X125381194Y-90725653D01*
X125337000Y-90743959D01*
X125324807Y-90742758D01*
X125278257Y-90733499D01*
X125278256Y-90733499D01*
X124856544Y-90733499D01*
X124779977Y-90748728D01*
X124779975Y-90748729D01*
X124693150Y-90806744D01*
X124693147Y-90806747D01*
X124665101Y-90848722D01*
X124625327Y-90875298D01*
X124613134Y-90876499D01*
X121841377Y-90876499D01*
X121747838Y-90915243D01*
X121747835Y-90915245D01*
X120234246Y-92428834D01*
X120234244Y-92428837D01*
X120195498Y-92522380D01*
X120194944Y-92525168D01*
X120193366Y-92527528D01*
X120193145Y-92528063D01*
X120193038Y-92528018D01*
X120168365Y-92564940D01*
X120121454Y-92574269D01*
X120112561Y-92572500D01*
X120112558Y-92572500D01*
X119787442Y-92572500D01*
X119768847Y-92576199D01*
X119750251Y-92579898D01*
X119750250Y-92579898D01*
X119734723Y-92590274D01*
X119687807Y-92599606D01*
X119665277Y-92590274D01*
X119649748Y-92579898D01*
X119649743Y-92579897D01*
X119612558Y-92572500D01*
X119287442Y-92572500D01*
X119268847Y-92576199D01*
X119250251Y-92579898D01*
X119250250Y-92579898D01*
X119234723Y-92590274D01*
X119187807Y-92599606D01*
X119165277Y-92590274D01*
X119149748Y-92579898D01*
X119149743Y-92579897D01*
X119112558Y-92572500D01*
X118787442Y-92572500D01*
X118768847Y-92576199D01*
X118750251Y-92579898D01*
X118750250Y-92579898D01*
X118734723Y-92590274D01*
X118687807Y-92599606D01*
X118665277Y-92590274D01*
X118649748Y-92579898D01*
X118649743Y-92579897D01*
X118612558Y-92572500D01*
X118287442Y-92572500D01*
X118268847Y-92576199D01*
X118250251Y-92579898D01*
X118234722Y-92590274D01*
X118187805Y-92599605D01*
X118165277Y-92590273D01*
X118149748Y-92579897D01*
X118112558Y-92572499D01*
X117787442Y-92572499D01*
X117787440Y-92572499D01*
X117779189Y-92574140D01*
X117732274Y-92564805D01*
X117705700Y-92525029D01*
X117704500Y-92512840D01*
X117704500Y-92504929D01*
X117704501Y-92504920D01*
X117704501Y-92396402D01*
X117704500Y-92396399D01*
X117673061Y-92320499D01*
X118116038Y-92320499D01*
X118118747Y-92320499D01*
X118121814Y-92320574D01*
X118128043Y-92320880D01*
X118131101Y-92321106D01*
X118143418Y-92322319D01*
X118146466Y-92322695D01*
X118152633Y-92323610D01*
X118155654Y-92324134D01*
X118200002Y-92332956D01*
X118244346Y-92324135D01*
X118247367Y-92323611D01*
X118253534Y-92322696D01*
X118256582Y-92322320D01*
X118268899Y-92321107D01*
X118271957Y-92320881D01*
X118278186Y-92320575D01*
X118281253Y-92320500D01*
X118422092Y-92320500D01*
X119014063Y-92320500D01*
X119118747Y-92320500D01*
X119121814Y-92320575D01*
X119128043Y-92320881D01*
X119131101Y-92321107D01*
X119143418Y-92322320D01*
X119146466Y-92322696D01*
X119152633Y-92323611D01*
X119155654Y-92324135D01*
X119200000Y-92332956D01*
X119244346Y-92324135D01*
X119247367Y-92323611D01*
X119253534Y-92322696D01*
X119256582Y-92322320D01*
X119268899Y-92321107D01*
X119271957Y-92320881D01*
X119278186Y-92320575D01*
X119281253Y-92320500D01*
X119320117Y-92320500D01*
X119167090Y-92167473D01*
X119014063Y-92320500D01*
X118422092Y-92320500D01*
X118269064Y-92167472D01*
X118116038Y-92320499D01*
X117673061Y-92320499D01*
X117665757Y-92302865D01*
X117665753Y-92302860D01*
X117272512Y-91909619D01*
X117628893Y-91909619D01*
X117852709Y-92133435D01*
X117856827Y-92137978D01*
X117864742Y-92147622D01*
X117868395Y-92152548D01*
X117882168Y-92173159D01*
X117885322Y-92178419D01*
X117891040Y-92189115D01*
X118090873Y-91989282D01*
X118447254Y-91989282D01*
X118718077Y-92260105D01*
X118988899Y-91989282D01*
X119345280Y-91989282D01*
X119616103Y-92260105D01*
X119886924Y-91989283D01*
X120243306Y-91989283D01*
X120280361Y-92026338D01*
X120551184Y-91755515D01*
X120514129Y-91718460D01*
X120243306Y-91989283D01*
X119886924Y-91989283D01*
X119886925Y-91989282D01*
X119616103Y-91718460D01*
X119345280Y-91989282D01*
X118988899Y-91989282D01*
X118718077Y-91718460D01*
X118447254Y-91989282D01*
X118090873Y-91989282D01*
X117820051Y-91718460D01*
X117628893Y-91909619D01*
X117272512Y-91909619D01*
X116823499Y-91460606D01*
X117179880Y-91460606D01*
X117450702Y-91731428D01*
X117641859Y-91540270D01*
X117998242Y-91540270D01*
X118269064Y-91811092D01*
X118539886Y-91540270D01*
X118896268Y-91540270D01*
X119167090Y-91811092D01*
X119437912Y-91540270D01*
X119794293Y-91540270D01*
X120065115Y-91811092D01*
X120335938Y-91540270D01*
X120692319Y-91540270D01*
X120729374Y-91577325D01*
X121000196Y-91306503D01*
X120963141Y-91269448D01*
X120692319Y-91540270D01*
X120335938Y-91540270D01*
X120065115Y-91269447D01*
X119794293Y-91540270D01*
X119437912Y-91540270D01*
X119167090Y-91269448D01*
X118896268Y-91540270D01*
X118539886Y-91540270D01*
X118269064Y-91269447D01*
X117998242Y-91540270D01*
X117641859Y-91540270D01*
X117641860Y-91540269D01*
X117371038Y-91269447D01*
X117179880Y-91460606D01*
X116823499Y-91460606D01*
X116374486Y-91011593D01*
X116730867Y-91011593D01*
X117001689Y-91282415D01*
X117192846Y-91091257D01*
X117549229Y-91091257D01*
X117820051Y-91362079D01*
X118090874Y-91091257D01*
X118447255Y-91091257D01*
X118718077Y-91362079D01*
X118988899Y-91091257D01*
X119345281Y-91091257D01*
X119616103Y-91362079D01*
X119886925Y-91091257D01*
X120243306Y-91091257D01*
X120514128Y-91362079D01*
X120784951Y-91091257D01*
X121141332Y-91091257D01*
X121178387Y-91128312D01*
X121449209Y-90857490D01*
X121412154Y-90820435D01*
X121141332Y-91091257D01*
X120784951Y-91091257D01*
X120514128Y-90820434D01*
X120243306Y-91091257D01*
X119886925Y-91091257D01*
X119616103Y-90820435D01*
X119345281Y-91091257D01*
X118988899Y-91091257D01*
X118718077Y-90820434D01*
X118447255Y-91091257D01*
X118090874Y-91091257D01*
X117820051Y-90820434D01*
X117549229Y-91091257D01*
X117192846Y-91091257D01*
X117192847Y-91091256D01*
X116922025Y-90820434D01*
X116730867Y-91011593D01*
X116374486Y-91011593D01*
X116278138Y-90915245D01*
X116278137Y-90915244D01*
X116184597Y-90876499D01*
X116184596Y-90876499D01*
X113786866Y-90876499D01*
X113742672Y-90858193D01*
X113734899Y-90848722D01*
X113706852Y-90806747D01*
X113706849Y-90806744D01*
X113620024Y-90748729D01*
X113620022Y-90748728D01*
X113543456Y-90733499D01*
X113121744Y-90733499D01*
X113045177Y-90748728D01*
X113045175Y-90748729D01*
X112958347Y-90806746D01*
X112900330Y-90893574D01*
X112900329Y-90893576D01*
X112885100Y-90970142D01*
X112885100Y-91291855D01*
X112900329Y-91368421D01*
X112900330Y-91368423D01*
X112958347Y-91455251D01*
X113045175Y-91513268D01*
X113045177Y-91513269D01*
X113121744Y-91528499D01*
X113543456Y-91528499D01*
X113620023Y-91513269D01*
X113706852Y-91455251D01*
X113734899Y-91413276D01*
X113774673Y-91386700D01*
X113786866Y-91385499D01*
X116002668Y-91385499D01*
X116046862Y-91403805D01*
X116191855Y-91548798D01*
X116210161Y-91592992D01*
X116191855Y-91637186D01*
X116163837Y-91653362D01*
X116087868Y-91673717D01*
X116087865Y-91673718D01*
X115956633Y-91749486D01*
X115956629Y-91749489D01*
X115849489Y-91856629D01*
X115849486Y-91856633D01*
X115773718Y-91987865D01*
X115773717Y-91987868D01*
X115734501Y-92134227D01*
X115734500Y-92134235D01*
X115734500Y-92285764D01*
X115734501Y-92285772D01*
X115773717Y-92432131D01*
X115773718Y-92432134D01*
X115800921Y-92479250D01*
X115807164Y-92526676D01*
X115778044Y-92564627D01*
X115746794Y-92573000D01*
X115687493Y-92573000D01*
X115650446Y-92580369D01*
X115650445Y-92580369D01*
X115604223Y-92611254D01*
X115557306Y-92620586D01*
X115517533Y-92594010D01*
X115507000Y-92559287D01*
X115507000Y-92098246D01*
X115506999Y-92098245D01*
X115482905Y-91977112D01*
X115435639Y-91863003D01*
X115435638Y-91863001D01*
X115367023Y-91760311D01*
X115279688Y-91672976D01*
X115176998Y-91604361D01*
X115176996Y-91604360D01*
X115062887Y-91557094D01*
X115007000Y-91545977D01*
X115007000Y-91886912D01*
X114995796Y-91880444D01*
X114919496Y-91860000D01*
X114840504Y-91860000D01*
X114764204Y-91880444D01*
X114753000Y-91886912D01*
X114753000Y-91545978D01*
X114752999Y-91545977D01*
X114697112Y-91557094D01*
X114583003Y-91604360D01*
X114583001Y-91604361D01*
X114480311Y-91672976D01*
X114392976Y-91760311D01*
X114324361Y-91863001D01*
X114324360Y-91863003D01*
X114277094Y-91977112D01*
X114253000Y-92098245D01*
X114253000Y-92583000D01*
X114580000Y-92583000D01*
X114580000Y-92837000D01*
X114253000Y-92837000D01*
X114253000Y-93321754D01*
X114277094Y-93442887D01*
X114324360Y-93556996D01*
X114324361Y-93556998D01*
X114392976Y-93659688D01*
X114480311Y-93747023D01*
X114583001Y-93815638D01*
X114583004Y-93815639D01*
X114697103Y-93862902D01*
X114697112Y-93862905D01*
X114752999Y-93874021D01*
X114753000Y-93874021D01*
X114753000Y-93533087D01*
X114764204Y-93539556D01*
X114840504Y-93560000D01*
X114919496Y-93560000D01*
X114995796Y-93539556D01*
X115007000Y-93533087D01*
X115007000Y-93874021D01*
X115062887Y-93862905D01*
X115062896Y-93862902D01*
X115176995Y-93815639D01*
X115176998Y-93815638D01*
X115279688Y-93747023D01*
X115367023Y-93659688D01*
X115435638Y-93556998D01*
X115435639Y-93556996D01*
X115452758Y-93515669D01*
X115486582Y-93481844D01*
X115534418Y-93481845D01*
X115568243Y-93515669D01*
X115573000Y-93539587D01*
X115573000Y-93862507D01*
X115572999Y-93862507D01*
X115580369Y-93899553D01*
X115580369Y-93899554D01*
X115608438Y-93941561D01*
X115650446Y-93969630D01*
X115687493Y-93977000D01*
X115723000Y-93977000D01*
X115977000Y-93977000D01*
X116023000Y-93977000D01*
X116023000Y-93402000D01*
X115977000Y-93402000D01*
X115977000Y-93977000D01*
X115723000Y-93977000D01*
X115723000Y-93210500D01*
X115741306Y-93166306D01*
X115785500Y-93148000D01*
X116214500Y-93148000D01*
X116258694Y-93166306D01*
X116277000Y-93210500D01*
X116277000Y-93994588D01*
X116258694Y-94038782D01*
X116157283Y-94140194D01*
X116113089Y-94158500D01*
X111450203Y-94158500D01*
X111406009Y-94140194D01*
X111387703Y-94096000D01*
X111406009Y-94051806D01*
X111672481Y-93785334D01*
X112161076Y-93785334D01*
X112282242Y-93906500D01*
X112581554Y-93906500D01*
X112702720Y-93785334D01*
X112702719Y-93785333D01*
X113059101Y-93785333D01*
X113180268Y-93906500D01*
X113479580Y-93906500D01*
X113600746Y-93785334D01*
X113600745Y-93785333D01*
X113957126Y-93785333D01*
X114078293Y-93906500D01*
X114283407Y-93906500D01*
X114210412Y-93833505D01*
X114208299Y-93831287D01*
X114204112Y-93826668D01*
X114202105Y-93824340D01*
X114194254Y-93814773D01*
X114192369Y-93812358D01*
X114188653Y-93807348D01*
X114186885Y-93804838D01*
X114111389Y-93691851D01*
X114109747Y-93689257D01*
X114106537Y-93683901D01*
X114105021Y-93681226D01*
X114099189Y-93670311D01*
X114097813Y-93667577D01*
X114095151Y-93661948D01*
X114093910Y-93659146D01*
X114090806Y-93651653D01*
X113957126Y-93785333D01*
X113600745Y-93785333D01*
X113329923Y-93514511D01*
X113059101Y-93785333D01*
X112702719Y-93785333D01*
X112431898Y-93514512D01*
X112161076Y-93785334D01*
X111672481Y-93785334D01*
X112121493Y-93336321D01*
X112610089Y-93336321D01*
X112880911Y-93607143D01*
X113151733Y-93336321D01*
X113508114Y-93336321D01*
X113778936Y-93607143D01*
X114007388Y-93378690D01*
X114004635Y-93364847D01*
X114004111Y-93361826D01*
X114003196Y-93355658D01*
X114002820Y-93352612D01*
X114001607Y-93340295D01*
X114001381Y-93337237D01*
X114001075Y-93331009D01*
X114001000Y-93327942D01*
X114001000Y-93287562D01*
X113778936Y-93065498D01*
X113508114Y-93336321D01*
X113151733Y-93336321D01*
X112880911Y-93065499D01*
X112610089Y-93336321D01*
X112121493Y-93336321D01*
X112550495Y-92907319D01*
X112550500Y-92907314D01*
X112562050Y-92887308D01*
X113059101Y-92887308D01*
X113329923Y-93158130D01*
X113600746Y-92887308D01*
X113329923Y-92616485D01*
X113059101Y-92887308D01*
X112562050Y-92887308D01*
X112596581Y-92827499D01*
X112616392Y-92793186D01*
X112644472Y-92688389D01*
X112901639Y-92688389D01*
X113151733Y-92438295D01*
X113508113Y-92438295D01*
X113778936Y-92709117D01*
X114001000Y-92487054D01*
X114001000Y-92389536D01*
X113778936Y-92167472D01*
X113508113Y-92438295D01*
X113151733Y-92438295D01*
X112902500Y-92189062D01*
X112902500Y-92674144D01*
X112902366Y-92678227D01*
X112901823Y-92686521D01*
X112901639Y-92688389D01*
X112644472Y-92688389D01*
X112650500Y-92665892D01*
X112650500Y-91989282D01*
X113059101Y-91989282D01*
X113329923Y-92260105D01*
X113600746Y-91989282D01*
X113391963Y-91780499D01*
X113267885Y-91780499D01*
X113059101Y-91989282D01*
X112650500Y-91989282D01*
X112650500Y-90626394D01*
X116218040Y-90626394D01*
X116221609Y-90626923D01*
X116245921Y-90631760D01*
X116251871Y-90633251D01*
X116263809Y-90636873D01*
X116269580Y-90638938D01*
X116386024Y-90687169D01*
X116391572Y-90689793D01*
X116402579Y-90695677D01*
X116407838Y-90698830D01*
X116428450Y-90712603D01*
X116433377Y-90716257D01*
X116443021Y-90724172D01*
X116447564Y-90728290D01*
X116552676Y-90833402D01*
X116743834Y-90642244D01*
X117100217Y-90642244D01*
X117371039Y-90913066D01*
X117641861Y-90642244D01*
X117998242Y-90642244D01*
X118269064Y-90913066D01*
X118539886Y-90642244D01*
X118896268Y-90642244D01*
X119167090Y-90913066D01*
X119437912Y-90642244D01*
X119794293Y-90642244D01*
X120065115Y-90913066D01*
X120335938Y-90642244D01*
X120692319Y-90642244D01*
X120963141Y-90913066D01*
X121233963Y-90642244D01*
X121590345Y-90642244D01*
X121636772Y-90688671D01*
X121639950Y-90687169D01*
X121756394Y-90638938D01*
X121762165Y-90636873D01*
X121774103Y-90633251D01*
X121780053Y-90631760D01*
X121804365Y-90626923D01*
X121810436Y-90626023D01*
X121822856Y-90624800D01*
X121828981Y-90624499D01*
X122114244Y-90624499D01*
X122506115Y-90624499D01*
X123012270Y-90624499D01*
X123404141Y-90624499D01*
X123910295Y-90624499D01*
X123657218Y-90371422D01*
X123404141Y-90624499D01*
X123012270Y-90624499D01*
X122759192Y-90371421D01*
X122506115Y-90624499D01*
X122114244Y-90624499D01*
X121861167Y-90371422D01*
X121590345Y-90642244D01*
X121233963Y-90642244D01*
X120963141Y-90371421D01*
X120692319Y-90642244D01*
X120335938Y-90642244D01*
X120065115Y-90371421D01*
X119794293Y-90642244D01*
X119437912Y-90642244D01*
X119167090Y-90371422D01*
X118896268Y-90642244D01*
X118539886Y-90642244D01*
X118269064Y-90371421D01*
X117998242Y-90642244D01*
X117641861Y-90642244D01*
X117371039Y-90371422D01*
X117100217Y-90642244D01*
X116743834Y-90642244D01*
X116743835Y-90642243D01*
X116473013Y-90371421D01*
X116218040Y-90626394D01*
X112650500Y-90626394D01*
X112650500Y-90624499D01*
X114423885Y-90624499D01*
X114930039Y-90624499D01*
X115321910Y-90624499D01*
X115828065Y-90624499D01*
X115574987Y-90371421D01*
X115321910Y-90624499D01*
X114930039Y-90624499D01*
X114676962Y-90371422D01*
X114423885Y-90624499D01*
X112650500Y-90624499D01*
X112650500Y-90271807D01*
X112885600Y-90271807D01*
X112900800Y-90348226D01*
X112900802Y-90348230D01*
X112958708Y-90434892D01*
X113045370Y-90492798D01*
X113045374Y-90492800D01*
X113121793Y-90508000D01*
X113121794Y-90508001D01*
X113205600Y-90508001D01*
X113459600Y-90508001D01*
X113543406Y-90508001D01*
X113543406Y-90508000D01*
X113619825Y-90492800D01*
X113619829Y-90492798D01*
X113706491Y-90434892D01*
X113764397Y-90348230D01*
X113764399Y-90348226D01*
X113779599Y-90271807D01*
X113779600Y-90271807D01*
X113779600Y-90238001D01*
X113459600Y-90238001D01*
X113459600Y-90508001D01*
X113205600Y-90508001D01*
X113205600Y-90238001D01*
X112885600Y-90238001D01*
X112885600Y-90271807D01*
X112650500Y-90271807D01*
X112650500Y-90135061D01*
X114015296Y-90135061D01*
X114026842Y-90162933D01*
X114031600Y-90186851D01*
X114031600Y-90267704D01*
X114227949Y-90464053D01*
X114498771Y-90193231D01*
X114855152Y-90193231D01*
X115125975Y-90464053D01*
X115396797Y-90193231D01*
X115753177Y-90193231D01*
X116024000Y-90464053D01*
X116294822Y-90193231D01*
X116651203Y-90193231D01*
X116922026Y-90464053D01*
X117192848Y-90193231D01*
X117549229Y-90193231D01*
X117820051Y-90464053D01*
X118090874Y-90193231D01*
X118447254Y-90193231D01*
X118718077Y-90464053D01*
X118988899Y-90193231D01*
X119345280Y-90193231D01*
X119616103Y-90464053D01*
X119886925Y-90193231D01*
X120243306Y-90193231D01*
X120514128Y-90464053D01*
X120784951Y-90193231D01*
X121141331Y-90193231D01*
X121412154Y-90464053D01*
X121682976Y-90193231D01*
X122039357Y-90193231D01*
X122310179Y-90464053D01*
X122581002Y-90193231D01*
X122937382Y-90193231D01*
X123208205Y-90464053D01*
X123479027Y-90193231D01*
X123835408Y-90193231D01*
X124106230Y-90464053D01*
X124298477Y-90271807D01*
X124620400Y-90271807D01*
X124635600Y-90348226D01*
X124635602Y-90348230D01*
X124693508Y-90434892D01*
X124780170Y-90492798D01*
X124780174Y-90492800D01*
X124856593Y-90508000D01*
X124856594Y-90508001D01*
X124940400Y-90508001D01*
X124940400Y-90238001D01*
X124620400Y-90238001D01*
X124620400Y-90271807D01*
X124298477Y-90271807D01*
X124368400Y-90201884D01*
X124368400Y-90186851D01*
X124368777Y-90184955D01*
X124134016Y-89950194D01*
X124620400Y-89950194D01*
X124620400Y-89984001D01*
X124940400Y-89984001D01*
X124940400Y-89714001D01*
X124856594Y-89714001D01*
X124780174Y-89729201D01*
X124780170Y-89729203D01*
X124693508Y-89787109D01*
X124635602Y-89873771D01*
X124635600Y-89873775D01*
X124620400Y-89950194D01*
X124134016Y-89950194D01*
X124106231Y-89922409D01*
X123835408Y-90193231D01*
X123479027Y-90193231D01*
X123208205Y-89922408D01*
X122937382Y-90193231D01*
X122581002Y-90193231D01*
X122310179Y-89922408D01*
X122039357Y-90193231D01*
X121682976Y-90193231D01*
X121412154Y-89922409D01*
X121141331Y-90193231D01*
X120784951Y-90193231D01*
X120514128Y-89922408D01*
X120243306Y-90193231D01*
X119886925Y-90193231D01*
X119616103Y-89922409D01*
X119345280Y-90193231D01*
X118988899Y-90193231D01*
X118718077Y-89922408D01*
X118447254Y-90193231D01*
X118090874Y-90193231D01*
X117820051Y-89922408D01*
X117549229Y-90193231D01*
X117192848Y-90193231D01*
X116922026Y-89922409D01*
X116651203Y-90193231D01*
X116294822Y-90193231D01*
X116024000Y-89922408D01*
X115753177Y-90193231D01*
X115396797Y-90193231D01*
X115125975Y-89922409D01*
X114855152Y-90193231D01*
X114498771Y-90193231D01*
X114227949Y-89922409D01*
X114015296Y-90135061D01*
X112650500Y-90135061D01*
X112650500Y-89950194D01*
X112885600Y-89950194D01*
X112885600Y-89984001D01*
X113205600Y-89984001D01*
X113459600Y-89984001D01*
X113779600Y-89984001D01*
X113779600Y-89950195D01*
X113779599Y-89950194D01*
X113764399Y-89873775D01*
X113764397Y-89873771D01*
X113706491Y-89787109D01*
X113619829Y-89729203D01*
X113619825Y-89729201D01*
X113543406Y-89714001D01*
X113459600Y-89714001D01*
X113459600Y-89984001D01*
X113205600Y-89984001D01*
X113205600Y-89714001D01*
X113121794Y-89714001D01*
X113045374Y-89729201D01*
X113045370Y-89729203D01*
X112958708Y-89787109D01*
X112900802Y-89873771D01*
X112900800Y-89873775D01*
X112885600Y-89950194D01*
X112650500Y-89950194D01*
X112650500Y-89509086D01*
X113743245Y-89509086D01*
X113744261Y-89509630D01*
X113749523Y-89512784D01*
X113856801Y-89584465D01*
X113861727Y-89588118D01*
X113871373Y-89596034D01*
X113875918Y-89600154D01*
X113893447Y-89617683D01*
X113897567Y-89622228D01*
X113905483Y-89631874D01*
X113909136Y-89636800D01*
X113980817Y-89744078D01*
X113983971Y-89749340D01*
X113989854Y-89760347D01*
X113992476Y-89765893D01*
X114001962Y-89788797D01*
X114002809Y-89791166D01*
X114049758Y-89744218D01*
X114406139Y-89744218D01*
X114676962Y-90015041D01*
X114947784Y-89744219D01*
X114947783Y-89744218D01*
X115304165Y-89744218D01*
X115574987Y-90015041D01*
X115845810Y-89744218D01*
X116202190Y-89744218D01*
X116473013Y-90015041D01*
X116743835Y-89744218D01*
X117100216Y-89744218D01*
X117371039Y-90015041D01*
X117641861Y-89744218D01*
X117998241Y-89744218D01*
X118269064Y-90015041D01*
X118539886Y-89744218D01*
X118896267Y-89744218D01*
X119167090Y-90015041D01*
X119437912Y-89744218D01*
X119794293Y-89744218D01*
X120065115Y-90015041D01*
X120335938Y-89744218D01*
X120692318Y-89744218D01*
X120963141Y-90015041D01*
X121233963Y-89744218D01*
X121590344Y-89744218D01*
X121861167Y-90015041D01*
X122131989Y-89744218D01*
X122488370Y-89744218D01*
X122759192Y-90015041D01*
X123030015Y-89744218D01*
X123386395Y-89744218D01*
X123657218Y-90015041D01*
X123928040Y-89744218D01*
X124284421Y-89744218D01*
X124384523Y-89844320D01*
X124390861Y-89812457D01*
X124392351Y-89806509D01*
X124395972Y-89794571D01*
X124398038Y-89788797D01*
X124407524Y-89765893D01*
X124410146Y-89760347D01*
X124416029Y-89749340D01*
X124419183Y-89744078D01*
X124490864Y-89636800D01*
X124494517Y-89631874D01*
X124502433Y-89622228D01*
X124506553Y-89617683D01*
X124524082Y-89600154D01*
X124528627Y-89596034D01*
X124538273Y-89588118D01*
X124543199Y-89584465D01*
X124617000Y-89535152D01*
X124555243Y-89473396D01*
X124284421Y-89744218D01*
X123928040Y-89744218D01*
X123834835Y-89651013D01*
X123793607Y-89668092D01*
X123790739Y-89669198D01*
X123784860Y-89671301D01*
X123781942Y-89672265D01*
X123770097Y-89675856D01*
X123767146Y-89676672D01*
X123761104Y-89678185D01*
X123758115Y-89678856D01*
X123639197Y-89702509D01*
X123611818Y-89701837D01*
X123556490Y-89687978D01*
X123532026Y-89675663D01*
X123520000Y-89665793D01*
X123507974Y-89675663D01*
X123483510Y-89687978D01*
X123428976Y-89701638D01*
X123386395Y-89744218D01*
X123030015Y-89744218D01*
X122809519Y-89523723D01*
X124063926Y-89523723D01*
X124106231Y-89566028D01*
X124377053Y-89295206D01*
X124377052Y-89295205D01*
X124733434Y-89295205D01*
X124900230Y-89462001D01*
X124991550Y-89462001D01*
X125015468Y-89466759D01*
X125062146Y-89486094D01*
X125067399Y-89489604D01*
X125072653Y-89486094D01*
X125092348Y-89477935D01*
X125147500Y-89422784D01*
X125147500Y-89167626D01*
X125004257Y-89024383D01*
X124733434Y-89295205D01*
X124377052Y-89295205D01*
X124307526Y-89225679D01*
X124306091Y-89229146D01*
X124304849Y-89231948D01*
X124302187Y-89237577D01*
X124300811Y-89240311D01*
X124294979Y-89251226D01*
X124293463Y-89253901D01*
X124290253Y-89259257D01*
X124288611Y-89261851D01*
X124213115Y-89374838D01*
X124211347Y-89377348D01*
X124207631Y-89382358D01*
X124205746Y-89384773D01*
X124197895Y-89394340D01*
X124195888Y-89396668D01*
X124191701Y-89401287D01*
X124189588Y-89403505D01*
X124093505Y-89499588D01*
X124091287Y-89501701D01*
X124086668Y-89505888D01*
X124084340Y-89507895D01*
X124074773Y-89515746D01*
X124072358Y-89517631D01*
X124067348Y-89521347D01*
X124064838Y-89523115D01*
X124063926Y-89523723D01*
X122809519Y-89523723D01*
X122759192Y-89473396D01*
X122488370Y-89744218D01*
X122131989Y-89744218D01*
X121861167Y-89473396D01*
X121590344Y-89744218D01*
X121233963Y-89744218D01*
X120963141Y-89473396D01*
X120692318Y-89744218D01*
X120335938Y-89744218D01*
X120065115Y-89473396D01*
X119794293Y-89744218D01*
X119437912Y-89744218D01*
X119336498Y-89642804D01*
X119329131Y-89646558D01*
X119310533Y-89652602D01*
X119199777Y-89670144D01*
X119180223Y-89670144D01*
X119069467Y-89652602D01*
X119050869Y-89646559D01*
X119013146Y-89627338D01*
X118896267Y-89744218D01*
X118539886Y-89744218D01*
X118269064Y-89473396D01*
X117998241Y-89744218D01*
X117641861Y-89744218D01*
X117371039Y-89473396D01*
X117100216Y-89744218D01*
X116743835Y-89744218D01*
X116473013Y-89473396D01*
X116202190Y-89744218D01*
X115845810Y-89744218D01*
X115574987Y-89473396D01*
X115304165Y-89744218D01*
X114947783Y-89744218D01*
X114874155Y-89670590D01*
X114867975Y-89675663D01*
X114843510Y-89687978D01*
X114788182Y-89701837D01*
X114760803Y-89702509D01*
X114641885Y-89678856D01*
X114638896Y-89678185D01*
X114632854Y-89676672D01*
X114629903Y-89675856D01*
X114618058Y-89672265D01*
X114615140Y-89671301D01*
X114609261Y-89669198D01*
X114606394Y-89668092D01*
X114518622Y-89631734D01*
X114406139Y-89744218D01*
X114049758Y-89744218D01*
X113778936Y-89473396D01*
X113743245Y-89509086D01*
X112650500Y-89509086D01*
X112650500Y-89295205D01*
X113059101Y-89295205D01*
X113225897Y-89462001D01*
X113256750Y-89462001D01*
X113280668Y-89466759D01*
X113327346Y-89486094D01*
X113332600Y-89489604D01*
X113337854Y-89486094D01*
X113384532Y-89466759D01*
X113408450Y-89462001D01*
X113433951Y-89462001D01*
X113600746Y-89295205D01*
X113957126Y-89295205D01*
X114227948Y-89566027D01*
X114300441Y-89493534D01*
X114210412Y-89403505D01*
X114208299Y-89401287D01*
X114204112Y-89396668D01*
X114202105Y-89394340D01*
X114194254Y-89384773D01*
X114192369Y-89382358D01*
X114188653Y-89377348D01*
X114186885Y-89374838D01*
X114111389Y-89261851D01*
X114109747Y-89259257D01*
X114106537Y-89253901D01*
X114105021Y-89251226D01*
X114099189Y-89240311D01*
X114097813Y-89237577D01*
X114095151Y-89231948D01*
X114093910Y-89229146D01*
X114073195Y-89179136D01*
X113957126Y-89295205D01*
X113600746Y-89295205D01*
X113329923Y-89024383D01*
X113059101Y-89295205D01*
X112650500Y-89295205D01*
X112650500Y-89095426D01*
X112902500Y-89095426D01*
X113151733Y-88846193D01*
X113508114Y-88846193D01*
X113778936Y-89117015D01*
X114001000Y-88894951D01*
X114001000Y-88797434D01*
X113778936Y-88575370D01*
X113508114Y-88846193D01*
X113151733Y-88846193D01*
X112902500Y-88596960D01*
X112902500Y-89095426D01*
X112650500Y-89095426D01*
X112650500Y-88397180D01*
X113059101Y-88397180D01*
X113329923Y-88668002D01*
X113600746Y-88397180D01*
X113329923Y-88126357D01*
X113059101Y-88397180D01*
X112650500Y-88397180D01*
X112650500Y-88197400D01*
X112902500Y-88197400D01*
X113151733Y-87948167D01*
X113508113Y-87948167D01*
X113778935Y-88218989D01*
X113829679Y-88168245D01*
X114253000Y-88168245D01*
X114253000Y-88403000D01*
X114580000Y-88403000D01*
X114580000Y-88657000D01*
X114253000Y-88657000D01*
X114253000Y-88891754D01*
X114277094Y-89012887D01*
X114324360Y-89126996D01*
X114324361Y-89126998D01*
X114392976Y-89229688D01*
X114480311Y-89317023D01*
X114583001Y-89385638D01*
X114583004Y-89385639D01*
X114697103Y-89432902D01*
X114697112Y-89432905D01*
X114752999Y-89444021D01*
X114753000Y-89444021D01*
X114753000Y-89103087D01*
X114764204Y-89109556D01*
X114840504Y-89130000D01*
X114919496Y-89130000D01*
X114995796Y-89109556D01*
X115007000Y-89103087D01*
X115007000Y-89444021D01*
X115062887Y-89432905D01*
X115062896Y-89432902D01*
X115176995Y-89385639D01*
X115176998Y-89385638D01*
X115279688Y-89317023D01*
X115301506Y-89295205D01*
X115753177Y-89295205D01*
X116024000Y-89566028D01*
X116294822Y-89295205D01*
X116651203Y-89295205D01*
X116922026Y-89566028D01*
X117192848Y-89295205D01*
X117549229Y-89295205D01*
X117820051Y-89566028D01*
X118090874Y-89295205D01*
X118447254Y-89295205D01*
X118718076Y-89566027D01*
X118797357Y-89486746D01*
X119536821Y-89486746D01*
X119616103Y-89566028D01*
X119886925Y-89295205D01*
X120243306Y-89295205D01*
X120514128Y-89566028D01*
X120784951Y-89295205D01*
X121141331Y-89295205D01*
X121412154Y-89566028D01*
X121682976Y-89295205D01*
X122039357Y-89295205D01*
X122310179Y-89566028D01*
X122581002Y-89295205D01*
X122310179Y-89024383D01*
X122039357Y-89295205D01*
X121682976Y-89295205D01*
X121412154Y-89024383D01*
X121141331Y-89295205D01*
X120784951Y-89295205D01*
X120514128Y-89024383D01*
X120243306Y-89295205D01*
X119886925Y-89295205D01*
X119616102Y-89024382D01*
X119567338Y-89073146D01*
X119586559Y-89110869D01*
X119592602Y-89129467D01*
X119610144Y-89240223D01*
X119610144Y-89259777D01*
X119592602Y-89370533D01*
X119586559Y-89389131D01*
X119536821Y-89486746D01*
X118797357Y-89486746D01*
X118827712Y-89456391D01*
X118793441Y-89389131D01*
X118787398Y-89370533D01*
X118769856Y-89259777D01*
X118769856Y-89240223D01*
X118787398Y-89129467D01*
X118793441Y-89110870D01*
X118797195Y-89103501D01*
X118718077Y-89024383D01*
X118447254Y-89295205D01*
X118090874Y-89295205D01*
X117820051Y-89024383D01*
X117549229Y-89295205D01*
X117192848Y-89295205D01*
X116922026Y-89024383D01*
X116651203Y-89295205D01*
X116294822Y-89295205D01*
X116024000Y-89024383D01*
X115753177Y-89295205D01*
X115301506Y-89295205D01*
X115367023Y-89229688D01*
X115435638Y-89126998D01*
X115435639Y-89126996D01*
X115482905Y-89012887D01*
X115506999Y-88891754D01*
X115507000Y-88891754D01*
X115507000Y-88846193D01*
X116202191Y-88846193D01*
X116473013Y-89117015D01*
X116743835Y-88846193D01*
X117100217Y-88846193D01*
X117371039Y-89117015D01*
X117641861Y-88846193D01*
X117998242Y-88846193D01*
X118269064Y-89117015D01*
X118539886Y-88846193D01*
X118896268Y-88846193D01*
X118953253Y-88903178D01*
X119050869Y-88853441D01*
X119069467Y-88847398D01*
X119180223Y-88829856D01*
X119199777Y-88829856D01*
X119310533Y-88847398D01*
X119329131Y-88853441D01*
X119396391Y-88887712D01*
X119437910Y-88846193D01*
X119794293Y-88846193D01*
X120065115Y-89117015D01*
X120335938Y-88846193D01*
X120692319Y-88846193D01*
X120963141Y-89117015D01*
X121233963Y-88846193D01*
X121590345Y-88846193D01*
X121861167Y-89117015D01*
X122131989Y-88846193D01*
X122131988Y-88846192D01*
X122488370Y-88846192D01*
X122661422Y-89019244D01*
X122644635Y-88934848D01*
X122644111Y-88931826D01*
X122643196Y-88925658D01*
X122642820Y-88922612D01*
X122641607Y-88910295D01*
X122641381Y-88907237D01*
X122641075Y-88901009D01*
X122641000Y-88897942D01*
X122641000Y-88693563D01*
X122488370Y-88846192D01*
X122131988Y-88846192D01*
X121861167Y-88575371D01*
X121590345Y-88846193D01*
X121233963Y-88846193D01*
X120963141Y-88575370D01*
X120692319Y-88846193D01*
X120335938Y-88846193D01*
X120065115Y-88575370D01*
X119794293Y-88846193D01*
X119437910Y-88846193D01*
X119437911Y-88846192D01*
X119167090Y-88575371D01*
X118896268Y-88846193D01*
X118539886Y-88846193D01*
X118269064Y-88575370D01*
X117998242Y-88846193D01*
X117641861Y-88846193D01*
X117371039Y-88575371D01*
X117100217Y-88846193D01*
X116743835Y-88846193D01*
X116473013Y-88575370D01*
X116202191Y-88846193D01*
X115507000Y-88846193D01*
X115507000Y-88657000D01*
X115180000Y-88657000D01*
X115180000Y-88403000D01*
X115507000Y-88403000D01*
X115507000Y-88391358D01*
X115759000Y-88391358D01*
X115759000Y-88403002D01*
X116024000Y-88668002D01*
X116294822Y-88397180D01*
X116651204Y-88397180D01*
X116922026Y-88668002D01*
X117192848Y-88397180D01*
X117549229Y-88397180D01*
X117820051Y-88668002D01*
X118090874Y-88397180D01*
X118447255Y-88397180D01*
X118718077Y-88668002D01*
X118988899Y-88397180D01*
X119345281Y-88397180D01*
X119616103Y-88668002D01*
X119886925Y-88397180D01*
X120243306Y-88397180D01*
X120514128Y-88668002D01*
X120784951Y-88397180D01*
X121141332Y-88397180D01*
X121412154Y-88668002D01*
X121682976Y-88397180D01*
X122039357Y-88397180D01*
X122310179Y-88668002D01*
X122581002Y-88397180D01*
X122352067Y-88168245D01*
X122893000Y-88168245D01*
X122893000Y-88403000D01*
X123220000Y-88403000D01*
X123220000Y-88657000D01*
X122893000Y-88657000D01*
X122893000Y-88891754D01*
X122917094Y-89012887D01*
X122964360Y-89126996D01*
X122964361Y-89126998D01*
X123032976Y-89229688D01*
X123120311Y-89317023D01*
X123223001Y-89385638D01*
X123223004Y-89385639D01*
X123337103Y-89432902D01*
X123337112Y-89432905D01*
X123392999Y-89444021D01*
X123393000Y-89444021D01*
X123393000Y-89103087D01*
X123404204Y-89109556D01*
X123480504Y-89130000D01*
X123559496Y-89130000D01*
X123635796Y-89109556D01*
X123647000Y-89103087D01*
X123647000Y-89444021D01*
X123702887Y-89432905D01*
X123702896Y-89432902D01*
X123816995Y-89385639D01*
X123816998Y-89385638D01*
X123919688Y-89317023D01*
X124007023Y-89229688D01*
X124075638Y-89126998D01*
X124075639Y-89126996D01*
X124122905Y-89012887D01*
X124134730Y-88953438D01*
X124391667Y-88953438D01*
X124555244Y-89117015D01*
X124826066Y-88846193D01*
X124555244Y-88575371D01*
X124399000Y-88731615D01*
X124399000Y-88897942D01*
X124398925Y-88901009D01*
X124398619Y-88907237D01*
X124398393Y-88910295D01*
X124397180Y-88922612D01*
X124396804Y-88925658D01*
X124395889Y-88931826D01*
X124395365Y-88934849D01*
X124391667Y-88953438D01*
X124134730Y-88953438D01*
X124146999Y-88891754D01*
X124147000Y-88891754D01*
X124147000Y-88657000D01*
X123820000Y-88657000D01*
X123820000Y-88403000D01*
X124147000Y-88403000D01*
X124147000Y-88397180D01*
X124733434Y-88397180D01*
X125004256Y-88668002D01*
X125147500Y-88524759D01*
X125147500Y-88269601D01*
X125004256Y-88126357D01*
X124733434Y-88397180D01*
X124147000Y-88397180D01*
X124147000Y-88168246D01*
X124146999Y-88168245D01*
X124122905Y-88047112D01*
X124075639Y-87933003D01*
X124075638Y-87933001D01*
X124052575Y-87898484D01*
X124334103Y-87898484D01*
X124358089Y-87956389D01*
X124359193Y-87959250D01*
X124361292Y-87965116D01*
X124362254Y-87968028D01*
X124365847Y-87979871D01*
X124366664Y-87982822D01*
X124368181Y-87988875D01*
X124368855Y-87991876D01*
X124378966Y-88042711D01*
X124555244Y-88218989D01*
X124826066Y-87948167D01*
X124555243Y-87677344D01*
X124334103Y-87898484D01*
X124052575Y-87898484D01*
X124007023Y-87830311D01*
X123919688Y-87742976D01*
X123816998Y-87674361D01*
X123816996Y-87674360D01*
X123702887Y-87627094D01*
X123647000Y-87615977D01*
X123647000Y-87956912D01*
X123635796Y-87950444D01*
X123559496Y-87930000D01*
X123480504Y-87930000D01*
X123404204Y-87950444D01*
X123393000Y-87956912D01*
X123393000Y-87615978D01*
X123392999Y-87615977D01*
X123337112Y-87627094D01*
X123223003Y-87674360D01*
X123223001Y-87674361D01*
X123120311Y-87742976D01*
X123032976Y-87830311D01*
X122964361Y-87933001D01*
X122964360Y-87933003D01*
X122917094Y-88047112D01*
X122893000Y-88168245D01*
X122352067Y-88168245D01*
X122310179Y-88126357D01*
X122039357Y-88397180D01*
X121682976Y-88397180D01*
X121412154Y-88126358D01*
X121141332Y-88397180D01*
X120784951Y-88397180D01*
X120514128Y-88126357D01*
X120243306Y-88397180D01*
X119886925Y-88397180D01*
X119616103Y-88126358D01*
X119345281Y-88397180D01*
X118988899Y-88397180D01*
X118718077Y-88126357D01*
X118447255Y-88397180D01*
X118090874Y-88397180D01*
X117820051Y-88126357D01*
X117549229Y-88397180D01*
X117192848Y-88397180D01*
X116922026Y-88126358D01*
X116651204Y-88397180D01*
X116294822Y-88397180D01*
X116024000Y-88126357D01*
X115759000Y-88391358D01*
X115507000Y-88391358D01*
X115507000Y-88168246D01*
X115506999Y-88168245D01*
X115482905Y-88047112D01*
X115435639Y-87933003D01*
X115435638Y-87933001D01*
X115367023Y-87830311D01*
X115279688Y-87742976D01*
X115187974Y-87681695D01*
X115570637Y-87681695D01*
X115571347Y-87682652D01*
X115573115Y-87685162D01*
X115648611Y-87798149D01*
X115650253Y-87800743D01*
X115653463Y-87806099D01*
X115654979Y-87808774D01*
X115660811Y-87819689D01*
X115662187Y-87822423D01*
X115664849Y-87828052D01*
X115666090Y-87830854D01*
X115718089Y-87956389D01*
X115719193Y-87959250D01*
X115721292Y-87965116D01*
X115722254Y-87968028D01*
X115725847Y-87979871D01*
X115726664Y-87982822D01*
X115728181Y-87988875D01*
X115728855Y-87991876D01*
X115741007Y-88052969D01*
X115845810Y-87948167D01*
X116202190Y-87948167D01*
X116473013Y-88218989D01*
X116743835Y-87948167D01*
X117100216Y-87948167D01*
X117371039Y-88218989D01*
X117641861Y-87948167D01*
X117998241Y-87948167D01*
X118269064Y-88218989D01*
X118539886Y-87948167D01*
X118896267Y-87948167D01*
X119167090Y-88218989D01*
X119437912Y-87948167D01*
X119794293Y-87948167D01*
X120065115Y-88218989D01*
X120335938Y-87948167D01*
X120692318Y-87948167D01*
X120963141Y-88218989D01*
X121233963Y-87948167D01*
X121590344Y-87948167D01*
X121861167Y-88218989D01*
X122131989Y-87948167D01*
X122488370Y-87948167D01*
X122648072Y-88107869D01*
X122671145Y-87991876D01*
X122671819Y-87988875D01*
X122673336Y-87982822D01*
X122674153Y-87979871D01*
X122677746Y-87968028D01*
X122678708Y-87965116D01*
X122680807Y-87959250D01*
X122681911Y-87956389D01*
X122733910Y-87830854D01*
X122735151Y-87828052D01*
X122737813Y-87822423D01*
X122739189Y-87819689D01*
X122745021Y-87808774D01*
X122746537Y-87806099D01*
X122749747Y-87800743D01*
X122751389Y-87798149D01*
X122802902Y-87721054D01*
X122759192Y-87677344D01*
X122488370Y-87948167D01*
X122131989Y-87948167D01*
X121861167Y-87677345D01*
X121590344Y-87948167D01*
X121233963Y-87948167D01*
X120963141Y-87677344D01*
X120692318Y-87948167D01*
X120335938Y-87948167D01*
X120065115Y-87677344D01*
X119794293Y-87948167D01*
X119437912Y-87948167D01*
X119167090Y-87677345D01*
X118896267Y-87948167D01*
X118539886Y-87948167D01*
X118269064Y-87677344D01*
X117998241Y-87948167D01*
X117641861Y-87948167D01*
X117371039Y-87677345D01*
X117100216Y-87948167D01*
X116743835Y-87948167D01*
X116473013Y-87677344D01*
X116202190Y-87948167D01*
X115845810Y-87948167D01*
X115574988Y-87677345D01*
X115570637Y-87681695D01*
X115187974Y-87681695D01*
X115176998Y-87674361D01*
X115176996Y-87674360D01*
X115062887Y-87627094D01*
X115007000Y-87615977D01*
X115007000Y-87956912D01*
X114995796Y-87950444D01*
X114919496Y-87930000D01*
X114840504Y-87930000D01*
X114764204Y-87950444D01*
X114753000Y-87956912D01*
X114753000Y-87615978D01*
X114752999Y-87615977D01*
X114697112Y-87627094D01*
X114583003Y-87674360D01*
X114583001Y-87674361D01*
X114480311Y-87742976D01*
X114392976Y-87830311D01*
X114324361Y-87933001D01*
X114324360Y-87933003D01*
X114277094Y-88047112D01*
X114253000Y-88168245D01*
X113829679Y-88168245D01*
X114042175Y-87955749D01*
X114046617Y-87945025D01*
X113778936Y-87677344D01*
X113508113Y-87948167D01*
X113151733Y-87948167D01*
X112902500Y-87698934D01*
X112902500Y-88197400D01*
X112650500Y-88197400D01*
X112650500Y-87499154D01*
X113059101Y-87499154D01*
X113329923Y-87769977D01*
X113600746Y-87499154D01*
X113957126Y-87499154D01*
X114169360Y-87711388D01*
X114186885Y-87685161D01*
X114188653Y-87682652D01*
X114192369Y-87677642D01*
X114194254Y-87675227D01*
X114202105Y-87665660D01*
X114204112Y-87663332D01*
X114208299Y-87658713D01*
X114210412Y-87656495D01*
X114306495Y-87560412D01*
X114308713Y-87558299D01*
X114313332Y-87554112D01*
X114315660Y-87552105D01*
X114325227Y-87544254D01*
X114327642Y-87542369D01*
X114332652Y-87538653D01*
X114335162Y-87536885D01*
X114448149Y-87461389D01*
X114450743Y-87459747D01*
X114456099Y-87456537D01*
X114456133Y-87456517D01*
X114357165Y-87357549D01*
X114996757Y-87357549D01*
X114999200Y-87357490D01*
X115118124Y-87381145D01*
X115121125Y-87381819D01*
X115127178Y-87383336D01*
X115130129Y-87384153D01*
X115141972Y-87387746D01*
X115144884Y-87388708D01*
X115150750Y-87390807D01*
X115153611Y-87391911D01*
X115279146Y-87443910D01*
X115281948Y-87445151D01*
X115287577Y-87447813D01*
X115290311Y-87449189D01*
X115301226Y-87455021D01*
X115303901Y-87456537D01*
X115309257Y-87459747D01*
X115311851Y-87461389D01*
X115385410Y-87510540D01*
X115396796Y-87499154D01*
X115753177Y-87499154D01*
X116024000Y-87769977D01*
X116294822Y-87499154D01*
X116651203Y-87499154D01*
X116922026Y-87769977D01*
X117192848Y-87499154D01*
X117549229Y-87499154D01*
X117820051Y-87769977D01*
X118090874Y-87499154D01*
X118447254Y-87499154D01*
X118718077Y-87769977D01*
X118988899Y-87499154D01*
X119345280Y-87499154D01*
X119616103Y-87769977D01*
X119886925Y-87499154D01*
X120243306Y-87499154D01*
X120514128Y-87769977D01*
X120784951Y-87499154D01*
X121141331Y-87499154D01*
X121412154Y-87769977D01*
X121682976Y-87499154D01*
X122039357Y-87499154D01*
X122310179Y-87769977D01*
X122581002Y-87499154D01*
X122937382Y-87499154D01*
X122975133Y-87536905D01*
X122975162Y-87536885D01*
X123088149Y-87461389D01*
X123090743Y-87459747D01*
X123096099Y-87456537D01*
X123098774Y-87455021D01*
X123109689Y-87449189D01*
X123112423Y-87447813D01*
X123118052Y-87445151D01*
X123120854Y-87443910D01*
X123141003Y-87435564D01*
X123898998Y-87435564D01*
X123919146Y-87443910D01*
X123921948Y-87445151D01*
X123927577Y-87447813D01*
X123930311Y-87449189D01*
X123941226Y-87455021D01*
X123943901Y-87456537D01*
X123949257Y-87459747D01*
X123951851Y-87461389D01*
X124064838Y-87536885D01*
X124067348Y-87538653D01*
X124072358Y-87542369D01*
X124074773Y-87544254D01*
X124084340Y-87552105D01*
X124086668Y-87554112D01*
X124091287Y-87558299D01*
X124093505Y-87560412D01*
X124189588Y-87656495D01*
X124191701Y-87658713D01*
X124195888Y-87663332D01*
X124197895Y-87665660D01*
X124203597Y-87672609D01*
X124377052Y-87499154D01*
X124733434Y-87499154D01*
X125004256Y-87769977D01*
X125147500Y-87626734D01*
X125147500Y-87371575D01*
X125004257Y-87228332D01*
X124733434Y-87499154D01*
X124377052Y-87499154D01*
X124106230Y-87228332D01*
X123898998Y-87435564D01*
X123141003Y-87435564D01*
X123246389Y-87391911D01*
X123249250Y-87390807D01*
X123255116Y-87388708D01*
X123258028Y-87387746D01*
X123269871Y-87384153D01*
X123272822Y-87383336D01*
X123278875Y-87381819D01*
X123281876Y-87381145D01*
X123347887Y-87368014D01*
X123208205Y-87228332D01*
X122937382Y-87499154D01*
X122581002Y-87499154D01*
X122310179Y-87228332D01*
X122039357Y-87499154D01*
X121682976Y-87499154D01*
X121412154Y-87228332D01*
X121141331Y-87499154D01*
X120784951Y-87499154D01*
X120514128Y-87228332D01*
X120243306Y-87499154D01*
X119886925Y-87499154D01*
X119616103Y-87228332D01*
X119345280Y-87499154D01*
X118988899Y-87499154D01*
X118718077Y-87228332D01*
X118447254Y-87499154D01*
X118090874Y-87499154D01*
X117820051Y-87228332D01*
X117549229Y-87499154D01*
X117192848Y-87499154D01*
X116922026Y-87228332D01*
X116651203Y-87499154D01*
X116294822Y-87499154D01*
X116024000Y-87228332D01*
X115753177Y-87499154D01*
X115396796Y-87499154D01*
X115125974Y-87228332D01*
X114996757Y-87357549D01*
X114357165Y-87357549D01*
X114227948Y-87228332D01*
X113957126Y-87499154D01*
X113600746Y-87499154D01*
X113329923Y-87228332D01*
X113059101Y-87499154D01*
X112650500Y-87499154D01*
X112650500Y-87299375D01*
X112902500Y-87299375D01*
X113151733Y-87050142D01*
X113508114Y-87050142D01*
X113778936Y-87320964D01*
X114049757Y-87050142D01*
X114406140Y-87050142D01*
X114676962Y-87320964D01*
X114947784Y-87050142D01*
X114947783Y-87050141D01*
X115304165Y-87050141D01*
X115574987Y-87320964D01*
X115845810Y-87050142D01*
X116202191Y-87050142D01*
X116473013Y-87320964D01*
X116743834Y-87050142D01*
X117100217Y-87050142D01*
X117371039Y-87320964D01*
X117641861Y-87050142D01*
X117998242Y-87050142D01*
X118269064Y-87320964D01*
X118539885Y-87050142D01*
X118896268Y-87050142D01*
X119167090Y-87320964D01*
X119437912Y-87050142D01*
X119437911Y-87050141D01*
X119794293Y-87050141D01*
X120065115Y-87320964D01*
X120335938Y-87050142D01*
X120692319Y-87050142D01*
X120963141Y-87320964D01*
X121233962Y-87050142D01*
X121590345Y-87050142D01*
X121861167Y-87320964D01*
X122131989Y-87050142D01*
X122131988Y-87050141D01*
X122488370Y-87050141D01*
X122759192Y-87320964D01*
X123030015Y-87050142D01*
X123386396Y-87050142D01*
X123657218Y-87320964D01*
X123928040Y-87050142D01*
X124284422Y-87050142D01*
X124555244Y-87320964D01*
X124826066Y-87050142D01*
X124798424Y-87022500D01*
X124312064Y-87022500D01*
X124284422Y-87050142D01*
X123928040Y-87050142D01*
X123900398Y-87022500D01*
X123414038Y-87022500D01*
X123386396Y-87050142D01*
X123030015Y-87050142D01*
X123002373Y-87022500D01*
X122516012Y-87022500D01*
X122488370Y-87050141D01*
X122131988Y-87050141D01*
X122104347Y-87022500D01*
X121617987Y-87022500D01*
X121590345Y-87050142D01*
X121233962Y-87050142D01*
X121233963Y-87050141D01*
X121206322Y-87022500D01*
X120719961Y-87022500D01*
X120692319Y-87050142D01*
X120335938Y-87050142D01*
X120308296Y-87022500D01*
X119821935Y-87022500D01*
X119794293Y-87050141D01*
X119437911Y-87050141D01*
X119410270Y-87022500D01*
X118923910Y-87022500D01*
X118896268Y-87050142D01*
X118539885Y-87050142D01*
X118539886Y-87050141D01*
X118512245Y-87022500D01*
X118025884Y-87022500D01*
X117998242Y-87050142D01*
X117641861Y-87050142D01*
X117614219Y-87022500D01*
X117127859Y-87022500D01*
X117100217Y-87050142D01*
X116743834Y-87050142D01*
X116743835Y-87050141D01*
X116716194Y-87022500D01*
X116229833Y-87022500D01*
X116202191Y-87050142D01*
X115845810Y-87050142D01*
X115818168Y-87022500D01*
X115331807Y-87022500D01*
X115304165Y-87050141D01*
X114947783Y-87050141D01*
X114920142Y-87022500D01*
X114433782Y-87022500D01*
X114406140Y-87050142D01*
X114049757Y-87050142D01*
X114049758Y-87050141D01*
X114022117Y-87022500D01*
X113535756Y-87022500D01*
X113508114Y-87050142D01*
X113151733Y-87050142D01*
X113124091Y-87022500D01*
X112902500Y-87022500D01*
X112902500Y-87299375D01*
X112650500Y-87299375D01*
X112650500Y-86833000D01*
X112668806Y-86788806D01*
X112713000Y-86770500D01*
X125337000Y-86770500D01*
X125381194Y-86788806D01*
G37*
%TD.AperFunction*%
%TD*%
M02*
